FiraSans-CondensedBoldItalic.ufo
<glyph name="exclam" format="2">
  <advance width="230"/>
  <unicode hex="0021"/>
  <outline>
    <contour>
      <point x="39" y="267" type="line"/>
      <point x="182" y="267" type="line"/>
      <point x="266" y="696" type="line"/>
      <point x="72" y="696" type="line"/>
    </contour>
    <component base="period" xOffset="5"/>
  </outline>
</glyph>
<glyph name="numbersign" format="2">
  <advance width="490"/>
  <unicode hex="0023"/>
  <outline>
    <contour>
      <point x="512" y="679" type="line"/>
      <point x="368" y="679" type="line"/>
      <point x="201" y="0" type="line"/>
      <point x="344" y="0" type="line"/>
    </contour>
    <contour>
      <point x="315" y="679" type="line"/>
      <point x="170" y="679" type="line"/>
      <point x="4" y="0" type="line"/>
      <point x="146" y="0" type="line"/>
    </contour>
    <contour>
      <point x="447" y="255" type="line"/>
      <point x="10" y="255" type="line"/>
      <point x="-7" y="136" type="line"/>
      <point x="430" y="136" type="line"/>
    </contour>
    <contour>
      <point x="519" y="556" type="line"/>
      <point x="82" y="556" type="line"/>
      <point x="66" y="437" type="line"/>
      <point x="503" y="437" type="line"/>
    </contour>
  </outline>
</glyph>
<glyph name="dollar" format="2">
  <advance width="462"/>
  <unicode hex="0024"/>
  <outline>
    <contour>
      <point x="264" y="5" type="line"/>
      <point x="141" y="-1" type="line"/>
      <point x="118" y="-164" type="line"/>
      <point x="240" y="-164" type="line"/>
    </contour>
    <contour>
      <point x="380" y="833" type="line"/>
      <point x="257" y="833" type="line"/>
      <point x="234" y="672" type="line"/>
      <point x="357" y="677" type="line"/>
    </contour>
    <contour>
      <point x="290" y="690" type="curve" smooth="yes"/>
      <point x="152" y="690"/>
      <point x="42" y="596"/>
      <point x="42" y="458" type="curve" smooth="yes"/>
      <point x="42" y="378"/>
      <point x="82" y="333"/>
      <point x="170" y="290" type="curve" smooth="yes"/>
      <point x="233" y="259"/>
      <point x="253" y="236"/>
      <point x="253" y="203" type="curve" smooth="yes"/>
      <point x="253" y="160"/>
      <point x="229" y="125"/>
      <point x="179" y="125" type="curve" smooth="yes"/>
      <point x="135" y="125"/>
      <point x="101" y="148"/>
      <point x="65" y="185" type="curve"/>
      <point x="-33" y="89" type="line"/>
      <point x="8" y="36"/>
      <point x="69" y="-10"/>
      <point x="180" y="-10" type="curve" smooth="yes"/>
      <point x="336" y="-10"/>
      <point x="447" y="88"/>
      <point x="447" y="240" type="curve" smooth="yes"/>
      <point x="447" y="330"/>
      <point x="402" y="376"/>
      <point x="315" y="421" type="curve" smooth="yes"/>
      <point x="256" y="451"/>
      <point x="235" y="468"/>
      <point x="235" y="497" type="curve" smooth="yes"/>
      <point x="235" y="530"/>
      <point x="256" y="556"/>
      <point x="299" y="556" type="curve" smooth="yes"/>
      <point x="335" y="556"/>
      <point x="367" y="539"/>
      <point x="398" y="507" type="curve"/>
      <point x="488" y="600" type="line"/>
      <point x="443" y="657"/>
      <point x="382" y="690"/>
    </contour>
  </outline>
</glyph>
<glyph name="percent" format="2">
  <advance width="737"/>
  <unicode hex="0025"/>
  <outline>
    <contour>
      <point x="571" y="724" type="line"/>
      <point x="667" y="663" type="line"/>
      <point x="189" y="-44" type="line"/>
      <point x="95" y="17" type="line"/>
    </contour>
    <contour>
      <point x="525" y="-20" type="curve" smooth="yes"/>
      <point x="639" y="-20"/>
      <point x="707" y="85"/>
      <point x="707" y="205" type="curve" smooth="yes"/>
      <point x="707" y="305"/>
      <point x="649" y="352"/>
      <point x="572" y="352" type="curve" smooth="yes"/>
      <point x="457" y="352"/>
      <point x="388" y="248"/>
      <point x="388" y="128" type="curve" smooth="yes"/>
      <point x="388" y="27"/>
      <point x="448" y="-20"/>
    </contour>
    <contour>
      <point x="535" y="85" type="curve" smooth="yes"/>
      <point x="517" y="85"/>
      <point x="508" y="96"/>
      <point x="508" y="128" type="curve" smooth="yes"/>
      <point x="508" y="181"/>
      <point x="521" y="247"/>
      <point x="561" y="247" type="curve" smooth="yes"/>
      <point x="578" y="247"/>
      <point x="588" y="235"/>
      <point x="588" y="205" type="curve" smooth="yes"/>
      <point x="588" y="155"/>
      <point x="572" y="85"/>
    </contour>
    <contour>
      <point x="187" y="324" type="curve" smooth="yes"/>
      <point x="301" y="324"/>
      <point x="369" y="429"/>
      <point x="369" y="549" type="curve" smooth="yes"/>
      <point x="369" y="649"/>
      <point x="311" y="696"/>
      <point x="234" y="696" type="curve" smooth="yes"/>
      <point x="119" y="696"/>
      <point x="50" y="592"/>
      <point x="50" y="472" type="curve" smooth="yes"/>
      <point x="50" y="371"/>
      <point x="110" y="324"/>
    </contour>
    <contour>
      <point x="197" y="429" type="curve" smooth="yes"/>
      <point x="179" y="429"/>
      <point x="170" y="440"/>
      <point x="170" y="472" type="curve" smooth="yes"/>
      <point x="170" y="525"/>
      <point x="183" y="591"/>
      <point x="223" y="591" type="curve" smooth="yes"/>
      <point x="240" y="591"/>
      <point x="250" y="579"/>
      <point x="250" y="549" type="curve" smooth="yes"/>
      <point x="250" y="499"/>
      <point x="234" y="429"/>
    </contour>
  </outline>
</glyph>
<glyph name="ampersand" format="2">
  <advance width="671"/>
  <unicode hex="0026"/>
  <outline>
    <contour>
      <point x="333" y="716" type="curve" smooth="yes"/>
      <point x="201" y="716"/>
      <point x="107" y="636"/>
      <point x="107" y="508" type="curve" smooth="yes"/>
      <point x="107" y="466"/>
      <point x="121" y="428"/>
      <point x="167" y="372" type="curve"/>
      <point x="81" y="313"/>
      <point x="26" y="250"/>
      <point x="26" y="150" type="curve" smooth="yes"/>
      <point x="26" y="50"/>
      <point x="102" y="-20"/>
      <point x="217" y="-20" type="curve" smooth="yes"/>
      <point x="283" y="-20"/>
      <point x="341" y="-2"/>
      <point x="405" y="46" type="curve"/>
      <point x="451" y="-20" type="line"/>
      <point x="620" y="48" type="line"/>
      <point x="530" y="155" type="line"/>
      <point x="567" y="204"/>
      <point x="601" y="263"/>
      <point x="631" y="336" type="curve"/>
      <point x="496" y="372" type="line"/>
      <point x="480" y="321"/>
      <point x="468" y="285"/>
      <point x="452" y="249" type="curve"/>
      <point x="383" y="355" type="line"/>
      <point x="459" y="412"/>
      <point x="515" y="475"/>
      <point x="515" y="566" type="curve" smooth="yes"/>
      <point x="515" y="653"/>
      <point x="451" y="716"/>
    </contour>
    <contour>
      <point x="252" y="264" type="curve"/>
      <point x="334" y="135" type="line"/>
      <point x="313" y="119"/>
      <point x="293" y="111"/>
      <point x="267" y="111" type="curve" smooth="yes"/>
      <point x="237" y="111"/>
      <point x="220" y="129"/>
      <point x="220" y="165" type="curve" smooth="yes"/>
      <point x="220" y="202"/>
      <point x="230" y="235"/>
    </contour>
    <contour>
      <point x="321" y="597" type="curve" smooth="yes"/>
      <point x="336" y="597"/>
      <point x="342" y="588"/>
      <point x="342" y="568" type="curve" smooth="yes"/>
      <point x="342" y="520"/>
      <point x="327" y="486"/>
      <point x="298" y="447" type="curve"/>
      <point x="285" y="473"/>
      <point x="280" y="489"/>
      <point x="280" y="513" type="curve" smooth="yes"/>
      <point x="280" y="543"/>
      <point x="289" y="597"/>
    </contour>
  </outline>
</glyph>
<glyph name="quotesingle" format="2">
  <advance width="224"/>
  <unicode hex="0027"/>
  <outline>
    <contour>
      <point x="73" y="406" type="line"/>
      <point x="189" y="406" type="line"/>
      <point x="249" y="696" type="line"/>
      <point x="95" y="696" type="line"/>
    </contour>
  </outline>
</glyph>
<glyph name="parenleft" format="2">
  <advance width="284"/>
  <unicode hex="0028"/>
  <outline>
    <contour>
      <point x="244" y="866" type="line"/>
      <point x="91" y="661"/>
      <point x="4" y="487"/>
      <point x="4" y="218" type="curve" smooth="yes"/>
      <point x="4" y="56"/>
      <point x="52" y="-54"/>
      <point x="102" y="-164" type="curve"/>
      <point x="234" y="-90" type="line"/>
      <point x="200" y="-8"/>
      <point x="184" y="75"/>
      <point x="184" y="187" type="curve" smooth="yes"/>
      <point x="184" y="385"/>
      <point x="236" y="618"/>
      <point x="356" y="783" type="curve"/>
    </contour>
  </outline>
</glyph>
<glyph name="parenright" format="2">
  <advance width="287"/>
  <unicode hex="0029"/>
  <outline>
    <contour>
      <point x="207" y="864" type="curve"/>
      <point x="74" y="790" type="line"/>
      <point x="108" y="708"/>
      <point x="124" y="623"/>
      <point x="124" y="511" type="curve" smooth="yes"/>
      <point x="124" y="311"/>
      <point x="75" y="86"/>
      <point x="-46" y="-83" type="curve"/>
      <point x="64" y="-166" type="line"/>
      <point x="217" y="36"/>
      <point x="306" y="215"/>
      <point x="306" y="481" type="curve" smooth="yes"/>
      <point x="306" y="644"/>
      <point x="257" y="754"/>
    </contour>
  </outline>
</glyph>
<glyph name="asterisk" format="2">
  <advance width="404"/>
  <unicode hex="002A"/>
  <outline>
    <contour>
      <point x="235" y="533" type="line"/>
      <point x="220" y="453" type="line"/>
      <point x="250" y="316" type="line"/>
      <point x="392" y="399" type="line"/>
      <point x="307" y="515" type="line"/>
    </contour>
    <contour>
      <point x="345" y="744" type="line"/>
      <point x="185" y="744" type="line"/>
      <point x="194" y="590" type="line"/>
      <point x="235" y="533" type="line"/>
      <point x="295" y="589" type="line"/>
    </contour>
    <contour>
      <point x="402" y="663" type="line"/>
      <point x="287" y="596" type="line"/>
      <point x="235" y="533" type="line"/>
      <point x="302" y="500" type="line"/>
      <point x="435" y="521" type="line"/>
    </contour>
    <contour>
      <point x="100" y="663" type="line"/>
      <point x="41" y="522" type="line"/>
      <point x="158" y="502" type="line"/>
      <point x="235" y="533" type="line"/>
      <point x="204" y="599" type="line"/>
    </contour>
    <contour>
      <point x="235" y="533" type="line"/>
      <point x="154" y="515" type="line"/>
      <point x="45" y="398" type="line"/>
      <point x="167" y="315" type="line"/>
      <point x="232" y="453" type="line"/>
    </contour>
  </outline>
</glyph>
<glyph name="plus" format="2">
  <advance width="462"/>
  <unicode hex="002B"/>
  <outline>
    <contour>
      <point x="349" y="563" type="line"/>
      <point x="202" y="563" type="line"/>
      <point x="180" y="404" type="line"/>
      <point x="50" y="404" type="line"/>
      <point x="30" y="260" type="line"/>
      <point x="157" y="260" type="line"/>
      <point x="134" y="101" type="line"/>
      <point x="280" y="101" type="line"/>
      <point x="304" y="260" type="line"/>
      <point x="430" y="260" type="line"/>
      <point x="450" y="404" type="line"/>
      <point x="327" y="404" type="line"/>
    </contour>
  </outline>
</glyph>
<glyph name="comma" format="2">
  <advance width="219"/>
  <unicode hex="002C"/>
  <outline>
    <contour>
      <point x="95" y="182" type="curve" smooth="yes"/>
      <point x="33" y="182"/>
      <point x="-12" y="129"/>
      <point x="-12" y="68" type="curve" smooth="yes"/>
      <point x="-12" y="38"/>
      <point x="-1" y="16"/>
      <point x="22" y="0" type="curve"/>
      <point x="-42" y="-183" type="line"/>
      <point x="49" y="-183" type="line"/>
      <point x="126" y="-43" type="line" smooth="yes"/>
      <point x="163" y="25"/>
      <point x="179" y="57"/>
      <point x="179" y="97" type="curve" smooth="yes"/>
      <point x="179" y="149"/>
      <point x="147" y="182"/>
    </contour>
  </outline>
</glyph>
<glyph name="period" format="2">
  <advance width="223"/>
  <unicode hex="002E"/>
  <outline>
    <contour>
      <point x="73" y="-20" type="curve" smooth="yes"/>
      <point x="136" y="-20"/>
      <point x="182" y="28"/>
      <point x="182" y="92" type="curve" smooth="yes"/>
      <point x="182" y="141"/>
      <point x="151" y="181"/>
      <point x="97" y="181" type="curve" smooth="yes"/>
      <point x="34" y="181"/>
      <point x="-12" y="131"/>
      <point x="-12" y="68" type="curve" smooth="yes"/>
      <point x="-12" y="20"/>
      <point x="19" y="-20"/>
    </contour>
  </outline>
</glyph>
<glyph name="slash" format="2">
  <advance width="427"/>
  <unicode hex="002F"/>
  <outline>
    <contour>
      <point x="307" y="821" type="line"/>
      <point x="-10" y="-77" type="line"/>
      <point x="146" y="-116" type="line"/>
      <point x="462" y="783" type="line"/>
    </contour>
  </outline>
</glyph>
<glyph name="zero" format="2">
  <advance width="523"/>
  <unicode hex="0030"/>
  <outline>
    <contour>
      <point x="317" y="696" type="curve" smooth="yes"/>
      <point x="444" y="696"/>
      <point x="512" y="610"/>
      <point x="512" y="445" type="curve" smooth="yes"/>
      <point x="512" y="213"/>
      <point x="427" y="-20"/>
      <point x="227" y="-20" type="curve" smooth="yes"/>
      <point x="100" y="-20"/>
      <point x="31" y="60"/>
      <point x="31" y="229" type="curve" smooth="yes"/>
      <point x="31" y="463"/>
      <point x="113" y="696"/>
    </contour>
    <contour>
      <point x="307" y="558" type="curve" smooth="yes"/>
      <point x="244" y="558"/>
      <point x="210" y="295"/>
      <point x="210" y="170" type="curve" smooth="yes"/>
      <point x="210" y="129"/>
      <point x="220" y="118"/>
      <point x="236" y="118" type="curve" smooth="yes"/>
      <point x="296" y="118"/>
      <point x="333" y="368"/>
      <point x="333" y="506" type="curve" smooth="yes"/>
      <point x="333" y="547"/>
      <point x="323" y="558"/>
    </contour>
  </outline>
</glyph>
<glyph name="one" format="2">
  <advance width="411"/>
  <unicode hex="0031"/>
  <outline>
    <contour>
      <point x="413" y="680" type="line"/>
      <point x="246" y="680" type="line"/>
      <point x="23" y="536" type="line"/>
      <point x="86" y="410" type="line"/>
      <point x="204" y="488" type="line"/>
      <point x="139" y="0" type="line"/>
      <point x="318" y="0" type="line"/>
    </contour>
  </outline>
</glyph>
<glyph name="two" format="2">
  <advance width="437"/>
  <unicode hex="0032"/>
  <outline>
    <contour>
      <point x="254" y="696" type="curve" smooth="yes"/>
      <point x="154" y="696"/>
      <point x="82" y="647"/>
      <point x="26" y="573" type="curve"/>
      <point x="120" y="490" type="line"/>
      <point x="159" y="531"/>
      <point x="187" y="553"/>
      <point x="217" y="553" type="curve" smooth="yes"/>
      <point x="241" y="553"/>
      <point x="256" y="539"/>
      <point x="256" y="508" type="curve" smooth="yes"/>
      <point x="256" y="407"/>
      <point x="133" y="281"/>
      <point x="-10" y="132" type="curve"/>
      <point x="-26" y="0" type="line"/>
      <point x="367" y="0" type="line"/>
      <point x="406" y="143" type="line"/>
      <point x="189" y="142" type="line"/>
      <point x="340" y="287"/>
      <point x="447" y="397"/>
      <point x="447" y="522" type="curve" smooth="yes"/>
      <point x="447" y="618"/>
      <point x="384" y="696"/>
    </contour>
  </outline>
</glyph>
<glyph name="three" format="2">
  <advance width="442"/>
  <unicode hex="0033"/>
  <outline>
    <contour>
      <point x="247" y="696" type="curve" smooth="yes"/>
      <point x="161" y="696"/>
      <point x="88" y="663"/>
      <point x="24" y="600" type="curve"/>
      <point x="102" y="503" type="line"/>
      <point x="135" y="536"/>
      <point x="173" y="558"/>
      <point x="208" y="558" type="curve" smooth="yes"/>
      <point x="239" y="558"/>
      <point x="254" y="542"/>
      <point x="254" y="509" type="curve" smooth="yes"/>
      <point x="254" y="454"/>
      <point x="223" y="418"/>
      <point x="176" y="418" type="curve" smooth="yes"/>
      <point x="146" y="418" type="line"/>
      <point x="108" y="291" type="line"/>
      <point x="155" y="291" type="line" smooth="yes"/>
      <point x="197" y="291"/>
      <point x="222" y="272"/>
      <point x="222" y="229" type="curve" smooth="yes"/>
      <point x="222" y="159"/>
      <point x="185" y="122"/>
      <point x="145" y="122" type="curve" smooth="yes"/>
      <point x="109" y="122"/>
      <point x="85" y="140"/>
      <point x="53" y="179" type="curve"/>
      <point x="-55" y="89" type="line"/>
      <point x="-9" y="23"/>
      <point x="50" y="-20"/>
      <point x="149" y="-20" type="curve" smooth="yes"/>
      <point x="299" y="-20"/>
      <point x="412" y="87"/>
      <point x="412" y="226" type="curve" smooth="yes"/>
      <point x="412" y="309"/>
      <point x="360" y="347"/>
      <point x="273" y="358" type="curve"/>
      <point x="380" y="382"/>
      <point x="438" y="442"/>
      <point x="438" y="535" type="curve" smooth="yes"/>
      <point x="438" y="625"/>
      <point x="371" y="696"/>
    </contour>
  </outline>
</glyph>
<glyph name="four" format="2">
  <advance width="494"/>
  <unicode hex="0034"/>
  <outline>
    <contour>
      <point x="222" y="701" type="line"/>
      <point x="10" y="261" type="line"/>
      <point x="-7" y="136" type="line"/>
      <point x="467" y="136" type="line"/>
      <point x="487" y="277" type="line"/>
      <point x="203" y="277" type="line"/>
      <point x="372" y="646" type="line"/>
    </contour>
    <contour>
      <point x="455" y="427" type="line"/>
      <point x="302" y="427" type="line"/>
      <point x="253" y="261" type="line"/>
      <point x="219" y="0" type="line"/>
      <point x="395" y="0" type="line"/>
    </contour>
  </outline>
</glyph>
<glyph name="five" format="2">
  <advance width="467"/>
  <unicode hex="0035"/>
  <outline>
    <contour>
      <point x="474" y="680" type="line"/>
      <point x="94" y="680" type="line"/>
      <point x="40" y="301" type="line"/>
      <point x="159" y="300" type="line"/>
      <point x="185" y="318"/>
      <point x="201" y="325"/>
      <point x="220" y="325" type="curve" smooth="yes"/>
      <point x="243" y="325"/>
      <point x="258" y="313"/>
      <point x="258" y="272" type="curve" smooth="yes"/>
      <point x="258" y="202"/>
      <point x="238" y="120"/>
      <point x="171" y="120" type="curve" smooth="yes"/>
      <point x="131" y="120"/>
      <point x="109" y="145"/>
      <point x="86" y="178" type="curve"/>
      <point x="-25" y="91" type="line"/>
      <point x="12" y="28"/>
      <point x="68" y="-20"/>
      <point x="168" y="-20" type="curve" smooth="yes"/>
      <point x="334" y="-20"/>
      <point x="447" y="105"/>
      <point x="447" y="282" type="curve" smooth="yes"/>
      <point x="447" y="397"/>
      <point x="390" y="452"/>
      <point x="316" y="452" type="curve" smooth="yes"/>
      <point x="288" y="452"/>
      <point x="265" y="447"/>
      <point x="231" y="428" type="curve"/>
      <point x="248" y="547" type="line"/>
      <point x="437" y="547" type="line"/>
    </contour>
  </outline>
</glyph>
<glyph name="six" format="2">
  <advance width="497"/>
  <unicode hex="0036"/>
  <outline>
    <contour>
      <point x="357" y="696" type="curve" smooth="yes"/>
      <point x="146" y="696"/>
      <point x="26" y="452"/>
      <point x="26" y="212" type="curve" smooth="yes"/>
      <point x="26" y="61"/>
      <point x="90" y="-20"/>
      <point x="226" y="-20" type="curve" smooth="yes"/>
      <point x="389" y="-20"/>
      <point x="486" y="112"/>
      <point x="486" y="289" type="curve" smooth="yes"/>
      <point x="486" y="398"/>
      <point x="437" y="462"/>
      <point x="351" y="462" type="curve" smooth="yes"/>
      <point x="307" y="462"/>
      <point x="265" y="444"/>
      <point x="229" y="401" type="curve"/>
      <point x="213" y="287" type="line"/>
      <point x="240" y="321"/>
      <point x="262" y="338"/>
      <point x="280" y="338" type="curve" smooth="yes"/>
      <point x="294" y="338"/>
      <point x="303" y="331"/>
      <point x="303" y="298" type="curve" smooth="yes"/>
      <point x="303" y="236"/>
      <point x="283" y="113"/>
      <point x="235" y="113" type="curve" smooth="yes"/>
      <point x="218" y="113"/>
      <point x="209" y="125"/>
      <point x="209" y="163" type="curve" smooth="yes"/>
      <point x="209" y="194"/>
      <point x="214" y="241"/>
      <point x="223" y="311" type="curve"/>
      <point x="233" y="386" type="line"/>
      <point x="259" y="516"/>
      <point x="305" y="564"/>
      <point x="355" y="564" type="curve" smooth="yes"/>
      <point x="376" y="564"/>
      <point x="395" y="556"/>
      <point x="414" y="545" type="curve"/>
      <point x="491" y="649" type="line"/>
      <point x="461" y="675"/>
      <point x="418" y="696"/>
    </contour>
  </outline>
</glyph>
<glyph name="seven" format="2">
  <advance width="399"/>
  <unicode hex="0037"/>
  <outline>
    <contour>
      <point x="455" y="679" type="line"/>
      <point x="60" y="679" type="line"/>
      <point x="40" y="539" type="line"/>
      <point x="245" y="539" type="line"/>
      <point x="8" y="38" type="line"/>
      <point x="165" y="-19" type="line"/>
      <point x="437" y="554" type="line"/>
    </contour>
  </outline>
</glyph>
<glyph name="nine" format="2">
  <advance width="499"/>
  <unicode hex="0039"/>
  <outline>
    <contour>
      <point x="295" y="290" type="curve"/>
      <point x="317" y="412" type="line"/>
      <point x="295" y="378"/>
      <point x="273" y="357"/>
      <point x="252" y="357" type="curve" smooth="yes"/>
      <point x="236" y="357"/>
      <point x="221" y="369"/>
      <point x="221" y="414" type="curve" smooth="yes"/>
      <point x="221" y="477"/>
      <point x="243" y="568"/>
      <point x="291" y="568" type="curve" smooth="yes"/>
      <point x="310" y="568"/>
      <point x="320" y="557"/>
      <point x="320" y="521" type="curve" smooth="yes"/>
      <point x="320" y="491"/>
      <point x="318" y="445"/>
      <point x="308" y="376" type="curve"/>
      <point x="294" y="295" type="line"/>
      <point x="242" y="184"/>
      <point x="172" y="138"/>
      <point x="20" y="97" type="curve"/>
      <point x="44" y="-31" type="line"/>
      <point x="336" y="25"/>
      <point x="508" y="201"/>
      <point x="508" y="486" type="curve" smooth="yes"/>
      <point x="508" y="616"/>
      <point x="440" y="696"/>
      <point x="303" y="696" type="curve" smooth="yes"/>
      <point x="139" y="696"/>
      <point x="34" y="572"/>
      <point x="34" y="409" type="curve" smooth="yes"/>
      <point x="34" y="296"/>
      <point x="94" y="230"/>
      <point x="175" y="230" type="curve" smooth="yes"/>
      <point x="222" y="230"/>
      <point x="256" y="250"/>
    </contour>
  </outline>
</glyph>
<glyph name="less" format="2">
  <advance width="439"/>
  <unicode hex="003C"/>
  <outline>
    <contour>
      <point x="410" y="588" type="line"/>
      <point x="36" y="414" type="line"/>
      <point x="14" y="253" type="line"/>
      <point x="335" y="78" type="line"/>
      <point x="414" y="202" type="line"/>
      <point x="174" y="328" type="line"/>
      <point x="450" y="453" type="line"/>
    </contour>
  </outline>
</glyph>
<glyph name="greater" format="2">
  <advance width="440"/>
  <unicode hex="003E"/>
  <outline>
    <contour>
      <point x="124" y="588" type="line"/>
      <point x="45" y="464" type="line"/>
      <point x="289" y="340" type="line"/>
      <point x="8" y="215" type="line"/>
      <point x="49" y="78" type="line"/>
      <point x="423" y="252" type="line"/>
      <point x="445" y="413" type="line"/>
    </contour>
  </outline>
</glyph>
<glyph name="question" format="2">
  <advance width="418"/>
  <unicode hex="003F"/>
  <outline>
    <contour>
      <point x="268" y="715" type="curve" smooth="yes"/>
      <point x="174" y="715"/>
      <point x="103" y="671"/>
      <point x="50" y="605" type="curve"/>
      <point x="146" y="515" type="line"/>
      <point x="179" y="549"/>
      <point x="206" y="567"/>
      <point x="229" y="567" type="curve" smooth="yes"/>
      <point x="247" y="567"/>
      <point x="256" y="558"/>
      <point x="256" y="541" type="curve" smooth="yes"/>
      <point x="256" y="459"/>
      <point x="100" y="457"/>
      <point x="100" y="294" type="curve" smooth="yes"/>
      <point x="100" y="270"/>
      <point x="105" y="253"/>
      <point x="109" y="239" type="curve"/>
      <point x="273" y="264" type="line"/>
      <point x="272" y="269"/>
      <point x="271" y="276"/>
      <point x="271" y="291" type="curve" smooth="yes"/>
      <point x="271" y="385"/>
      <point x="454" y="385"/>
      <point x="454" y="554" type="curve" smooth="yes"/>
      <point x="454" y="643"/>
      <point x="389" y="715"/>
    </contour>
    <component base="period" xOffset="100"/>
  </outline>
</glyph>
<glyph name="at" format="2">
  <advance width="847"/>
  <unicode hex="0040"/>
  <outline>
    <contour>
      <point x="495" y="715" type="curve" smooth="yes"/>
      <point x="209" y="715"/>
      <point x="21" y="444"/>
      <point x="21" y="142" type="curve" smooth="yes"/>
      <point x="21" y="-86"/>
      <point x="141" y="-226"/>
      <point x="371" y="-226" type="curve" smooth="yes"/>
      <point x="441" y="-226"/>
      <point x="524" y="-208"/>
      <point x="580" y="-183" type="curve"/>
      <point x="553" y="-61" type="line"/>
      <point x="512" y="-78"/>
      <point x="447" y="-94"/>
      <point x="387" y="-94" type="curve" smooth="yes"/>
      <point x="248" y="-94"/>
      <point x="180" y="-22"/>
      <point x="180" y="135" type="curve" smooth="yes"/>
      <point x="180" y="368"/>
      <point x="273" y="584"/>
      <point x="487" y="584" type="curve" smooth="yes"/>
      <point x="614" y="584"/>
      <point x="672" y="515"/>
      <point x="672" y="382" type="curve" smooth="yes"/>
      <point x="672" y="276"/>
      <point x="638" y="113"/>
      <point x="590" y="113" type="curve" smooth="yes"/>
      <point x="566" y="113"/>
      <point x="577" y="156"/>
      <point x="586" y="219" type="curve" smooth="yes"/>
      <point x="620" y="459" type="line"/>
      <point x="579" y="487"/>
      <point x="521" y="508"/>
      <point x="465" y="508" type="curve" smooth="yes"/>
      <point x="309" y="508"/>
      <point x="228" y="345"/>
      <point x="228" y="171" type="curve" smooth="yes"/>
      <point x="228" y="69"/>
      <point x="271" y="6"/>
      <point x="356" y="6" type="curve" smooth="yes"/>
      <point x="420" y="6"/>
      <point x="458" y="40"/>
      <point x="484" y="95" type="curve"/>
      <point x="487" y="43"/>
      <point x="524" y="2"/>
      <point x="585" y="2" type="curve" smooth="yes"/>
      <point x="724" y="2"/>
      <point x="826" y="172"/>
      <point x="826" y="378" type="curve" smooth="yes"/>
      <point x="826" y="561"/>
      <point x="710" y="715"/>
    </contour>
    <contour>
      <point x="398" y="116" type="curve" smooth="yes"/>
      <point x="387" y="116"/>
      <point x="383" y="124"/>
      <point x="383" y="153" type="curve" smooth="yes"/>
      <point x="383" y="242"/>
      <point x="408" y="397"/>
      <point x="451" y="397" type="curve" smooth="yes"/>
      <point x="457" y="397"/>
      <point x="460" y="396"/>
      <point x="463" y="395" type="curve"/>
      <point x="427" y="138" type="line"/>
      <point x="419" y="125"/>
      <point x="409" y="116"/>
    </contour>
  </outline>
</glyph>
<glyph name="A" format="2">
  <advance width="506"/>
  <unicode hex="0041"/>
  <anchor x="213" y="0" name="bottom"/>
  <anchor x="400" y="0" name="ogonek"/>
  <anchor x="313" y="696" name="top"/>
  <anchor x="178" y="696" name="topleft"/>
  <outline>
    <contour>
      <point x="428" y="696" type="line"/>
      <point x="197" y="696" type="line"/>
      <point x="-58" y="0" type="line"/>
      <point x="143" y="0" type="line"/>
      <point x="290" y="570" type="line"/>
      <point x="290" y="0" type="line"/>
      <point x="488" y="0" type="line"/>
    </contour>
    <contour>
      <point x="298" y="276" type="line"/>
      <point x="213" y="276" type="line"/>
      <point x="166" y="138" type="line"/>
      <point x="300" y="138" type="line"/>
    </contour>
  </outline>
</glyph>
<glyph name="B" format="2">
  <advance width="512"/>
  <unicode hex="0042"/>
  <anchor x="294" y="696" name="top"/>
  <outline>
    <contour>
      <point x="274" y="696" type="curve" smooth="yes"/>
      <point x="88" y="696" type="line"/>
      <point x="-10" y="0" type="line"/>
      <point x="201" y="0" type="line" smooth="yes"/>
      <point x="371" y="0"/>
      <point x="500" y="72"/>
      <point x="500" y="230" type="curve" smooth="yes"/>
      <point x="500" y="315"/>
      <point x="447" y="353"/>
      <point x="378" y="368" type="curve"/>
      <point x="454" y="388"/>
      <point x="520" y="442"/>
      <point x="520" y="538" type="curve" smooth="yes"/>
      <point x="520" y="647"/>
      <point x="425" y="696"/>
    </contour>
    <contour>
      <point x="275" y="560" type="line" smooth="yes"/>
      <point x="310" y="560"/>
      <point x="323" y="543"/>
      <point x="323" y="515" type="curve" smooth="yes"/>
      <point x="323" y="465"/>
      <point x="305" y="425"/>
      <point x="254" y="425" type="curve" smooth="yes"/>
      <point x="230" y="425" type="line"/>
      <point x="212" y="299" type="line"/>
      <point x="247" y="299" type="line" smooth="yes"/>
      <point x="289" y="299"/>
      <point x="304" y="279"/>
      <point x="304" y="242" type="curve" smooth="yes"/>
      <point x="304" y="189"/>
      <point x="279" y="140"/>
      <point x="221" y="140" type="curve" smooth="yes"/>
      <point x="204" y="140" type="line"/>
      <point x="262" y="560" type="line"/>
    </contour>
  </outline>
</glyph>
<glyph name="C" format="2">
  <advance width="488"/>
  <unicode hex="0043"/>
  <anchor x="235" y="0" name="bottom"/>
  <anchor x="352" y="696" name="top"/>
  <outline>
    <contour>
      <point x="357" y="716" type="curve" smooth="yes"/>
      <point x="133" y="716"/>
      <point x="23" y="505"/>
      <point x="23" y="252" type="curve" smooth="yes"/>
      <point x="23" y="66"/>
      <point x="114" y="-20"/>
      <point x="249" y="-20" type="curve" smooth="yes"/>
      <point x="341" y="-20"/>
      <point x="414" y="24"/>
      <point x="466" y="74" type="curve"/>
      <point x="397" y="180" type="line"/>
      <point x="357" y="150"/>
      <point x="326" y="129"/>
      <point x="290" y="129" type="curve" smooth="yes"/>
      <point x="246" y="129"/>
      <point x="223" y="160"/>
      <point x="223" y="240" type="curve" smooth="yes"/>
      <point x="223" y="380"/>
      <point x="256" y="573"/>
      <point x="355" y="573" type="curve" smooth="yes"/>
      <point x="387" y="573"/>
      <point x="413" y="555"/>
      <point x="436" y="530" type="curve"/>
      <point x="537" y="634" type="line"/>
      <point x="494" y="684"/>
      <point x="436" y="716"/>
    </contour>
  </outline>
</glyph>
<glyph name="D" format="2">
  <advance width="550"/>
  <unicode hex="0044"/>
  <anchor x="221" y="0" name="bottom"/>
  <anchor x="284" y="348" name="center"/>
  <anchor x="298" y="696" name="top"/>
  <outline>
    <contour>
      <point x="285" y="696" type="curve" smooth="yes"/>
      <point x="88" y="696" type="line"/>
      <point x="-10" y="0" type="line"/>
      <point x="198" y="0" type="line" smooth="yes"/>
      <point x="449" y="0"/>
      <point x="549" y="182"/>
      <point x="549" y="445" type="curve" smooth="yes"/>
      <point x="549" y="653"/>
      <point x="424" y="696"/>
    </contour>
    <contour>
      <point x="289" y="557" type="line" smooth="yes"/>
      <point x="332" y="557"/>
      <point x="353" y="528"/>
      <point x="353" y="452" type="curve" smooth="yes"/>
      <point x="353" y="329"/>
      <point x="326" y="140"/>
      <point x="227" y="140" type="curve" smooth="yes"/>
      <point x="204" y="140" type="line"/>
      <point x="262" y="557" type="line"/>
    </contour>
  </outline>
</glyph>
<glyph name="E" format="2">
  <advance width="421"/>
  <unicode hex="0045"/>
  <anchor x="181" y="0" name="bottom"/>
  <anchor x="347" y="0" name="ogonek"/>
  <anchor x="281" y="696" name="top"/>
  <anchor x="92" y="696" name="topleft"/>
  <outline>
    <contour>
      <point x="476" y="696" type="line"/>
      <point x="88" y="696" type="line"/>
      <point x="-10" y="0" type="line"/>
      <point x="372" y="0" type="line"/>
      <point x="392" y="139" type="line"/>
      <point x="204" y="139" type="line"/>
      <point x="224" y="286" type="line"/>
      <point x="377" y="286" type="line"/>
      <point x="397" y="420" type="line"/>
      <point x="243" y="420" type="line"/>
      <point x="263" y="559" type="line"/>
      <point x="434" y="559" type="line"/>
    </contour>
  </outline>
</glyph>
<glyph name="F" format="2">
  <advance width="397"/>
  <unicode hex="0046"/>
  <anchor x="162" y="0" name="bottom"/>
  <anchor x="274" y="696" name="top"/>
  <outline>
    <contour>
      <point x="462" y="696" type="line"/>
      <point x="88" y="696" type="line"/>
      <point x="-10" y="0" type="line"/>
      <point x="184" y="0" type="line"/>
      <point x="221" y="261" type="line"/>
      <point x="361" y="261" type="line"/>
      <point x="383" y="399" type="line"/>
      <point x="241" y="399" type="line"/>
      <point x="263" y="559" type="line"/>
      <point x="419" y="559" type="line"/>
    </contour>
  </outline>
</glyph>
<glyph name="G" format="2">
  <advance width="547"/>
  <unicode hex="0047"/>
  <anchor x="256" y="0" name="bottom"/>
  <anchor x="350" y="696" name="top"/>
  <outline>
    <contour>
      <point x="375" y="716" type="curve" smooth="yes"/>
      <point x="146" y="716"/>
      <point x="21" y="498"/>
      <point x="21" y="244" type="curve" smooth="yes"/>
      <point x="21" y="73"/>
      <point x="96" y="-19"/>
      <point x="257" y="-19" type="curve" smooth="yes"/>
      <point x="330" y="-19"/>
      <point x="421" y="8"/>
      <point x="492" y="58" type="curve"/>
      <point x="540" y="407" type="line"/>
      <point x="294" y="407" type="line"/>
      <point x="293" y="273" type="line"/>
      <point x="341" y="273" type="line"/>
      <point x="322" y="141" type="line"/>
      <point x="306" y="129"/>
      <point x="288" y="121"/>
      <point x="267" y="121" type="curve" smooth="yes"/>
      <point x="235" y="121"/>
      <point x="217" y="145"/>
      <point x="217" y="213" type="curve" smooth="yes"/>
      <point x="217" y="369"/>
      <point x="252" y="577"/>
      <point x="372" y="577" type="curve" smooth="yes"/>
      <point x="411" y="577"/>
      <point x="438" y="563"/>
      <point x="471" y="532" type="curve"/>
      <point x="572" y="625" type="line"/>
      <point x="530" y="676"/>
      <point x="465" y="716"/>
    </contour>
  </outline>
</glyph>
<glyph name="H" format="2">
  <advance width="536"/>
  <unicode hex="0048"/>
  <anchor x="227" y="0" name="bottom"/>
  <anchor x="478" y="0" name="bottomright"/>
  <anchor x="280" y="348" name="center"/>
  <anchor x="328" y="696" name="top"/>
  <anchor x="95" y="696" name="topleft"/>
  <outline>
    <contour>
      <point x="-10" y="0" type="line"/>
      <point x="184" y="0" type="line"/>
      <point x="224" y="284" type="line"/>
      <point x="316" y="284" type="line"/>
      <point x="276" y="0" type="line"/>
      <point x="470" y="0" type="line"/>
      <point x="567" y="696" type="line"/>
      <point x="373" y="696" type="line"/>
      <point x="337" y="436" type="line"/>
      <point x="245" y="436" type="line"/>
      <point x="282" y="696" type="line"/>
      <point x="88" y="696" type="line"/>
    </contour>
  </outline>
</glyph>
<glyph name="I" format="2">
  <advance width="250"/>
  <unicode hex="0049"/>
  <anchor x="87" y="0" name="bottom"/>
  <anchor x="143" y="0" name="ogonek"/>
  <anchor x="185" y="696" name="top"/>
  <anchor x="92" y="696" name="topleft"/>
  <outline>
    <contour>
      <point x="282" y="696" type="line"/>
      <point x="88" y="696" type="line"/>
      <point x="-10" y="0" type="line"/>
      <point x="184" y="0" type="line"/>
    </contour>
  </outline>
</glyph>
<glyph name="J" format="2">
  <advance width="278"/>
  <unicode hex="004A"/>
  <anchor x="213" y="696" name="top"/>
  <outline>
    <contour>
      <point x="311" y="696" type="line"/>
      <point x="117" y="696" type="line"/>
      <point x="36" y="118" type="line" smooth="yes"/>
      <point x="24" y="30"/>
      <point x="5" y="-16"/>
      <point x="-65" y="-46" type="curve"/>
      <point x="-33" y="-185" type="line"/>
      <point x="83" y="-146"/>
      <point x="201" y="-89"/>
      <point x="229" y="109" type="curve" smooth="yes"/>
    </contour>
  </outline>
</glyph>
<glyph name="K" format="2">
  <advance width="566"/>
  <unicode hex="004B"/>
  <anchor x="239" y="0" name="bottom"/>
  <anchor x="333" y="696" name="top"/>
  <outline>
    <contour>
      <point x="329" y="0" type="line"/>
      <point x="538" y="0" type="line"/>
      <point x="435" y="376" type="line"/>
      <point x="620" y="696" type="line"/>
      <point x="428" y="696" type="line"/>
      <point x="241" y="371" type="line"/>
    </contour>
    <contour>
      <point x="-10" y="0" type="line"/>
      <point x="184" y="0" type="line"/>
      <point x="282" y="696" type="line"/>
      <point x="88" y="696" type="line"/>
    </contour>
  </outline>
</glyph>
<glyph name="L" format="2">
  <advance width="428"/>
  <unicode hex="004C"/>
  <anchor x="181" y="0" name="bottom"/>
  <anchor x="354" y="403" name="center"/>
  <anchor x="185" y="696" name="top"/>
  <anchor x="296" y="696" name="topright"/>
  <outline>
    <contour>
      <point x="282" y="696" type="line"/>
      <point x="88" y="696" type="line"/>
      <point x="-10" y="0" type="line"/>
      <point x="371" y="0" type="line"/>
      <point x="414" y="152" type="line"/>
      <point x="206" y="152" type="line"/>
    </contour>
  </outline>
</glyph>
<glyph name="M" format="2">
  <advance width="662"/>
  <unicode hex="004D"/>
  <anchor x="290" y="0" name="bottom"/>
  <anchor x="622" y="0" name="bottomright"/>
  <anchor x="383" y="696" name="top"/>
  <outline>
    <contour>
      <point x="671" y="696" type="line"/>
      <point x="425" y="696" type="line"/>
      <point x="322" y="223" type="line"/>
      <point x="338" y="696" type="line"/>
      <point x="109" y="696" type="line"/>
      <point x="-26" y="0" type="line"/>
      <point x="161" y="0" type="line"/>
      <point x="193" y="251" type="line" smooth="yes"/>
      <point x="205" y="346"/>
      <point x="210" y="424"/>
      <point x="217" y="553" type="curve"/>
      <point x="210" y="71" type="line"/>
      <point x="394" y="71" type="line"/>
      <point x="508" y="555" type="line"/>
      <point x="487" y="436"/>
      <point x="469" y="344"/>
      <point x="457" y="253" type="curve" smooth="yes"/>
      <point x="425" y="0" type="line"/>
      <point x="612" y="0" type="line"/>
    </contour>
  </outline>
</glyph>
<glyph name="N" format="2">
  <advance width="530"/>
  <unicode hex="004E"/>
  <anchor x="228" y="0" name="bottom"/>
  <anchor x="322" y="696" name="top"/>
  <outline>
    <contour>
      <point x="561" y="696" type="line"/>
      <point x="395" y="696" type="line"/>
      <point x="367" y="472" type="line" smooth="yes"/>
      <point x="352" y="349"/>
      <point x="355" y="272"/>
      <point x="359" y="162" type="curve"/>
      <point x="316" y="696" type="line"/>
      <point x="88" y="696" type="line"/>
      <point x="-9" y="0" type="line"/>
      <point x="158" y="0" type="line"/>
      <point x="184" y="213" type="line" smooth="yes"/>
      <point x="200" y="341"/>
      <point x="196" y="436"/>
      <point x="192" y="533" type="curve"/>
      <point x="237" y="0" type="line"/>
      <point x="464" y="0" type="line"/>
    </contour>
  </outline>
</glyph>
<glyph name="O" format="2">
  <advance width="581"/>
  <unicode hex="004F"/>
  <anchor x="253" y="0" name="bottom"/>
  <anchor x="342" y="696" name="top"/>
  <anchor x="86" y="696" name="topleft"/>
  <anchor x="555" y="696" name="topright"/>
  <outline>
    <contour>
      <point x="349" y="716" type="curve" smooth="yes"/>
      <point x="124" y="716"/>
      <point x="23" y="496"/>
      <point x="23" y="246" type="curve" smooth="yes"/>
      <point x="23" y="68"/>
      <point x="101" y="-20"/>
      <point x="254" y="-20" type="curve" smooth="yes"/>
      <point x="478" y="-20"/>
      <point x="581" y="201"/>
      <point x="581" y="451" type="curve" smooth="yes"/>
      <point x="581" y="629"/>
      <point x="502" y="716"/>
    </contour>
    <contour>
      <point x="337" y="575" type="curve" smooth="yes"/>
      <point x="369" y="575"/>
      <point x="384" y="551"/>
      <point x="384" y="489" type="curve" smooth="yes"/>
      <point x="384" y="352"/>
      <point x="354" y="120"/>
      <point x="266" y="120" type="curve" smooth="yes"/>
      <point x="234" y="120"/>
      <point x="219" y="142"/>
      <point x="219" y="202" type="curve" smooth="yes"/>
      <point x="219" y="334"/>
      <point x="251" y="575"/>
    </contour>
  </outline>
</glyph>
<glyph name="P" format="2">
  <advance width="505"/>
  <unicode hex="0050"/>
  <anchor x="212" y="0" name="bottom"/>
  <anchor x="311" y="696" name="top"/>
  <anchor x="86" y="696" name="topleft"/>
  <outline>
    <contour>
      <point x="88" y="696" type="line"/>
      <point x="-10" y="0" type="line"/>
      <point x="184" y="0" type="line"/>
      <point x="262" y="559" type="line"/>
      <point x="276" y="559" type="line" smooth="yes"/>
      <point x="315" y="559"/>
      <point x="332" y="542"/>
      <point x="332" y="496" type="curve" smooth="yes"/>
      <point x="332" y="422"/>
      <point x="311" y="359"/>
      <point x="243" y="359" type="curve" smooth="yes"/>
      <point x="221" y="359" type="line"/>
      <point x="201" y="220" type="line"/>
      <point x="245" y="220" type="line" smooth="yes"/>
      <point x="421" y="220"/>
      <point x="529" y="332"/>
      <point x="529" y="499" type="curve" smooth="yes"/>
      <point x="529" y="629"/>
      <point x="444" y="696"/>
      <point x="286" y="696" type="curve" smooth="yes"/>
    </contour>
  </outline>
</glyph>
<glyph name="Q" format="2">
  <advance width="579"/>
  <unicode hex="0051"/>
  <anchor x="247" y="0" name="bottom"/>
  <anchor x="345" y="696" name="top"/>
  <outline>
    <contour>
      <point x="254" y="-16" type="curve" smooth="yes"/>
      <point x="282" y="-16"/>
      <point x="309" y="-16"/>
      <point x="333" y="-10" type="curve"/>
      <point x="362" y="29" type="line"/>
      <point x="517" y="87"/>
      <point x="581" y="256"/>
      <point x="581" y="451" type="curve" smooth="yes"/>
      <point x="581" y="629"/>
      <point x="502" y="716"/>
      <point x="349" y="716" type="curve" smooth="yes"/>
      <point x="124" y="716"/>
      <point x="23" y="496"/>
      <point x="23" y="246" type="curve" smooth="yes"/>
      <point x="23" y="68"/>
      <point x="101" y="-16"/>
    </contour>
    <contour>
      <point x="436" y="-167" type="curve"/>
      <point x="572" y="-26" type="line"/>
      <point x="524" y="26"/>
      <point x="468" y="47"/>
      <point x="378" y="47" type="curve"/>
      <point x="254" y="-16" type="line"/>
      <point x="347" y="-16"/>
      <point x="405" y="-94"/>
    </contour>
    <contour>
      <point x="266" y="120" type="curve" smooth="yes"/>
      <point x="234" y="120"/>
      <point x="219" y="142"/>
      <point x="219" y="202" type="curve" smooth="yes"/>
      <point x="219" y="334"/>
      <point x="251" y="575"/>
      <point x="337" y="575" type="curve" smooth="yes"/>
      <point x="369" y="575"/>
      <point x="384" y="551"/>
      <point x="384" y="489" type="curve" smooth="yes"/>
      <point x="384" y="352"/>
      <point x="354" y="120"/>
    </contour>
  </outline>
</glyph>
<glyph name="R" format="2">
  <advance width="518"/>
  <unicode hex="0052"/>
  <anchor x="243" y="0" name="bottom"/>
  <anchor x="307" y="696" name="top"/>
  <outline>
    <contour>
      <point x="286" y="696" type="curve" smooth="yes"/>
      <point x="88" y="696" type="line"/>
      <point x="-10" y="0" type="line"/>
      <point x="184" y="0" type="line"/>
      <point x="263" y="561" type="line"/>
      <point x="279" y="561" type="line" smooth="yes"/>
      <point x="318" y="561"/>
      <point x="338" y="545"/>
      <point x="338" y="501" type="curve" smooth="yes"/>
      <point x="338" y="442"/>
      <point x="316" y="384"/>
      <point x="255" y="384" type="curve" smooth="yes"/>
      <point x="226" y="384" type="line"/>
      <point x="207" y="251" type="line"/>
      <point x="332" y="250" type="line"/>
      <point x="466" y="309"/>
      <point x="534" y="373"/>
      <point x="534" y="506" type="curve" smooth="yes"/>
      <point x="534" y="627"/>
      <point x="459" y="696"/>
    </contour>
    <contour>
      <point x="407" y="301" type="line"/>
      <point x="234" y="265" type="line"/>
      <point x="305" y="0" type="line"/>
      <point x="505" y="0" type="line"/>
    </contour>
  </outline>
</glyph>
<glyph name="S" format="2">
  <advance width="488"/>
  <unicode hex="0053"/>
  <anchor x="198" y="0" name="bottom"/>
  <anchor x="307" y="696" name="top"/>
  <outline>
    <contour>
      <point x="308" y="716" type="curve" smooth="yes"/>
      <point x="163" y="716"/>
      <point x="51" y="626"/>
      <point x="51" y="480" type="curve" smooth="yes"/>
      <point x="51" y="390"/>
      <point x="90" y="343"/>
      <point x="177" y="299" type="curve" smooth="yes"/>
      <point x="250" y="262"/>
      <point x="276" y="240"/>
      <point x="276" y="196" type="curve" smooth="yes"/>
      <point x="276" y="153"/>
      <point x="247" y="122"/>
      <point x="197" y="122" type="curve" smooth="yes"/>
      <point x="144" y="122"/>
      <point x="108" y="146"/>
      <point x="69" y="183" type="curve"/>
      <point x="-34" y="84" type="line"/>
      <point x="10" y="29"/>
      <point x="80" y="-20"/>
      <point x="197" y="-20" type="curve" smooth="yes"/>
      <point x="356" y="-20"/>
      <point x="473" y="84"/>
      <point x="473" y="234" type="curve" smooth="yes"/>
      <point x="473" y="332"/>
      <point x="427" y="383"/>
      <point x="345" y="426" type="curve" smooth="yes"/>
      <point x="266" y="467"/>
      <point x="247" y="484"/>
      <point x="247" y="517" type="curve" smooth="yes"/>
      <point x="247" y="548"/>
      <point x="270" y="575"/>
      <point x="318" y="575" type="curve" smooth="yes"/>
      <point x="361" y="575"/>
      <point x="395" y="557"/>
      <point x="427" y="523" type="curve"/>
      <point x="521" y="621" type="line"/>
      <point x="472" y="681"/>
      <point x="406" y="716"/>
    </contour>
  </outline>
</glyph>
<glyph name="T" format="2">
  <advance width="457"/>
  <unicode hex="0054"/>
  <anchor x="191" y="0" name="bottom"/>
  <anchor x="297" y="0" name="bottomright"/>
  <anchor x="240" y="348" name="center"/>
  <anchor x="289" y="696" name="top"/>
  <outline>
    <contour>
      <point x="524" y="696" type="line"/>
      <point x="60" y="696" type="line"/>
      <point x="39" y="548" type="line"/>
      <point x="171" y="548" type="line"/>
      <point x="94" y="0" type="line"/>
      <point x="288" y="0" type="line"/>
      <point x="365" y="548" type="line"/>
      <point x="483" y="548" type="line"/>
    </contour>
  </outline>
</glyph>
<glyph name="U" format="2">
  <advance width="524"/>
  <unicode hex="0055"/>
  <anchor x="224" y="0" name="bottom"/>
  <anchor x="345" y="0" name="ogonek"/>
  <anchor x="321" y="696" name="top"/>
  <anchor x="573" y="696" name="topright"/>
  <outline>
    <contour>
      <point x="566" y="696" type="line"/>
      <point x="371" y="696" type="line"/>
      <point x="301" y="197" type="line" smooth="yes"/>
      <point x="295" y="153"/>
      <point x="279" y="123"/>
      <point x="241" y="123" type="curve" smooth="yes"/>
      <point x="204" y="123"/>
      <point x="196" y="151"/>
      <point x="202" y="195" type="curve" smooth="yes"/>
      <point x="272" y="696" type="line"/>
      <point x="78" y="696" type="line"/>
      <point x="11" y="220" type="line" smooth="yes"/>
      <point x="-8" y="85"/>
      <point x="57" y="-19"/>
      <point x="229" y="-19" type="curve" smooth="yes"/>
      <point x="389" y="-19"/>
      <point x="479" y="80"/>
      <point x="498" y="214" type="curve" smooth="yes"/>
    </contour>
  </outline>
</glyph>
<glyph name="V" format="2">
  <advance width="486"/>
  <unicode hex="0056"/>
  <anchor x="212" y="0" name="bottom"/>
  <anchor x="302" y="696" name="top"/>
  <outline>
    <contour>
      <point x="566" y="696" type="line"/>
      <point x="369" y="696" type="line"/>
      <point x="233" y="140" type="line"/>
      <point x="237" y="696" type="line"/>
      <point x="40" y="696" type="line"/>
      <point x="84" y="0" type="line"/>
      <point x="341" y="0" type="line"/>
    </contour>
  </outline>
</glyph>
<glyph name="W" format="2">
  <advance width="710"/>
  <unicode hex="0057"/>
  <anchor x="317" y="0" name="bottom"/>
  <anchor x="418" y="696" name="top"/>
  <outline>
    <contour>
      <point x="770" y="696" type="line"/>
      <point x="583" y="696" type="line"/>
      <point x="473" y="144" type="line"/>
      <point x="513" y="696" type="line"/>
      <point x="319" y="696" type="line"/>
      <point x="196" y="144" type="line"/>
      <point x="250" y="696" type="line"/>
      <point x="60" y="696" type="line"/>
      <point x="30" y="0" type="line"/>
      <point x="283" y="0" type="line"/>
      <point x="386" y="511" type="line"/>
      <point x="347" y="0" type="line"/>
      <point x="602" y="0" type="line"/>
    </contour>
  </outline>
</glyph>
<glyph name="X" format="2">
  <advance width="503"/>
  <unicode hex="0058"/>
  <anchor x="213" y="0" name="bottom"/>
  <anchor x="423" y="0" name="bottomright"/>
  <anchor x="311" y="696" name="top"/>
  <outline>
    <contour>
      <point x="259" y="696" type="line"/>
      <point x="56" y="696" type="line"/>
      <point x="145" y="369" type="line"/>
      <point x="246" y="255" type="line"/>
      <point x="274" y="0" type="line"/>
      <point x="477" y="0" type="line"/>
      <point x="378" y="375" type="line"/>
      <point x="275" y="476" type="line"/>
    </contour>
    <contour>
      <point x="564" y="696" type="line"/>
      <point x="356" y="696" type="line"/>
      <point x="275" y="476" type="line"/>
      <point x="144" y="369" type="line"/>
      <point x="-50" y="0" type="line"/>
      <point x="160" y="0" type="line"/>
      <point x="246" y="255" type="line"/>
      <point x="378" y="375" type="line"/>
    </contour>
  </outline>
</glyph>
<glyph name="Y" format="2">
  <advance width="514"/>
  <unicode hex="0059"/>
  <anchor x="220" y="0" name="bottom"/>
  <anchor x="314" y="696" name="top"/>
  <anchor x="43" y="696" name="topleft"/>
  <outline>
    <contour>
      <point x="592" y="696" type="line"/>
      <point x="386" y="696" type="line"/>
      <point x="279" y="402" type="line"/>
      <point x="246" y="696" type="line"/>
      <point x="42" y="696" type="line"/>
      <point x="159" y="257" type="line"/>
      <point x="123" y="0" type="line"/>
      <point x="317" y="0" type="line"/>
      <point x="353" y="257" type="line"/>
    </contour>
  </outline>
</glyph>
<glyph name="Z" format="2">
  <advance width="457"/>
  <unicode hex="005A"/>
  <anchor x="180" y="0" name="bottom"/>
  <anchor x="285" y="696" name="top"/>
  <outline>
    <contour>
      <point x="-35" y="0" type="line"/>
      <point x="395" y="0" type="line"/>
      <point x="438" y="155" type="line"/>
      <point x="198" y="155" type="line"/>
      <point x="477" y="549" type="line"/>
      <point x="499" y="696" type="line"/>
      <point x="82" y="696" type="line"/>
      <point x="59" y="546" type="line"/>
      <point x="265" y="546" type="line"/>
      <point x="-14" y="145" type="line"/>
    </contour>
  </outline>
</glyph>
<glyph name="bracketleft" format="2">
  <advance width="274"/>
  <unicode hex="005B"/>
  <outline>
    <contour>
      <point x="346" y="826" type="line"/>
      <point x="85" y="826" type="line"/>
      <point x="-51" y="-126" type="line"/>
      <point x="214" y="-126" type="line"/>
      <point x="234" y="11" type="line"/>
      <point x="149" y="11" type="line"/>
      <point x="239" y="688" type="line"/>
      <point x="327" y="688" type="line"/>
    </contour>
  </outline>
</glyph>
<glyph name="backslash" format="2">
  <advance width="434"/>
  <unicode hex="005C"/>
  <outline>
    <contour>
      <point x="279" y="813" type="line"/>
      <point x="111" y="783" type="line"/>
      <point x="177" y="-116" type="line"/>
      <point x="346" y="-86" type="line"/>
    </contour>
  </outline>
</glyph>
<glyph name="bracketright" format="2">
  <advance width="272"/>
  <unicode hex="005D"/>
  <outline>
    <contour>
      <point x="347" y="826" type="line"/>
      <point x="83" y="826" type="line"/>
      <point x="65" y="689" type="line"/>
      <point x="148" y="689" type="line"/>
      <point x="58" y="12" type="line"/>
      <point x="-29" y="12" type="line"/>
      <point x="-49" y="-126" type="line"/>
      <point x="212" y="-126" type="line"/>
    </contour>
  </outline>
</glyph>
<glyph name="asciicircum" format="2">
  <advance width="476"/>
  <unicode hex="005E"/>
  <outline>
    <contour>
      <point x="405" y="847" type="line"/>
      <point x="234" y="847" type="line"/>
      <point x="37" y="527" type="line"/>
      <point x="219" y="527" type="line"/>
      <point x="298" y="710" type="line"/>
      <point x="339" y="527" type="line"/>
      <point x="513" y="527" type="line"/>
    </contour>
  </outline>
</glyph>
<glyph name="underscore" format="2">
  <advance width="426"/>
  <unicode hex="005F"/>
  <outline>
    <contour>
      <point x="-58" y="-185" type="line"/>
      <point x="357" y="-185" type="line"/>
      <point x="377" y="-40" type="line"/>
      <point x="-38" y="-40" type="line"/>
    </contour>
  </outline>
</glyph>
<glyph name="a" format="2">
  <advance width="483"/>
  <unicode hex="0061"/>
  <anchor x="222" y="0" name="bottom"/>
  <anchor x="412" y="-16" name="ogonek"/>
  <anchor x="303" y="534" name="top"/>
  <outline>
    <contour>
      <point x="298" y="554" type="curve" smooth="yes"/>
      <point x="82" y="554"/>
      <point x="7" y="365"/>
      <point x="7" y="172" type="curve" smooth="yes"/>
      <point x="7" y="55"/>
      <point x="53" y="-20"/>
      <point x="144" y="-20" type="curve" smooth="yes"/>
      <point x="204" y="-20"/>
      <point x="242" y="9"/>
      <point x="277" y="58" type="curve"/>
      <point x="297" y="11"/>
      <point x="350" y="-11"/>
      <point x="405" y="-16" type="curve"/>
      <point x="462" y="106" type="line"/>
      <point x="442" y="116"/>
      <point x="441" y="133"/>
      <point x="446" y="168" type="curve" smooth="yes"/>
      <point x="493" y="499" type="line"/>
      <point x="435" y="533"/>
      <point x="368" y="554"/>
    </contour>
    <contour>
      <point x="279" y="423" type="curve" smooth="yes"/>
      <point x="285" y="423"/>
      <point x="291" y="422"/>
      <point x="297" y="420" type="curve"/>
      <point x="261" y="164" type="line"/>
      <point x="246" y="138"/>
      <point x="231" y="117"/>
      <point x="215" y="117" type="curve" smooth="yes"/>
      <point x="202" y="117"/>
      <point x="194" y="127"/>
      <point x="194" y="167" type="curve" smooth="yes"/>
      <point x="194" y="288"/>
      <point x="221" y="423"/>
    </contour>
  </outline>
</glyph>
<glyph name="b" format="2">
  <advance width="495"/>
  <unicode hex="0062"/>
  <anchor x="201" y="0" name="bottom"/>
  <anchor x="349" y="744" name="top"/>
  <outline>
    <contour>
      <point x="361" y="554" type="curve" smooth="yes"/>
      <point x="312" y="554"/>
      <point x="269" y="530"/>
      <point x="242" y="497" type="curve"/>
      <point x="279" y="764" type="line"/>
      <point x="91" y="744" type="line"/>
      <point x="-9" y="26" type="line"/>
      <point x="57" y="-2"/>
      <point x="131" y="-20"/>
      <point x="192" y="-20" type="curve" smooth="yes"/>
      <point x="412" y="-20"/>
      <point x="487" y="145"/>
      <point x="487" y="376" type="curve" smooth="yes"/>
      <point x="487" y="491"/>
      <point x="442" y="554"/>
    </contour>
    <contour>
      <point x="275" y="417" type="curve" smooth="yes"/>
      <point x="288" y="417"/>
      <point x="298" y="410"/>
      <point x="298" y="362" type="curve" smooth="yes"/>
      <point x="298" y="262"/>
      <point x="276" y="115"/>
      <point x="219" y="115" type="curve" smooth="yes"/>
      <point x="208" y="115"/>
      <point x="200" y="118"/>
      <point x="191" y="122" type="curve"/>
      <point x="226" y="377" type="line"/>
      <point x="244" y="404"/>
      <point x="261" y="417"/>
    </contour>
  </outline>
</glyph>
<glyph name="c" format="2">
  <advance width="402"/>
  <unicode hex="0063"/>
  <anchor x="197" y="0" name="bottom"/>
  <anchor x="280" y="534" name="top"/>
  <outline>
    <contour>
      <point x="286" y="554" type="curve" smooth="yes"/>
      <point x="117" y="554"/>
      <point x="11" y="407"/>
      <point x="11" y="204" type="curve" smooth="yes"/>
      <point x="11" y="63"/>
      <point x="88" y="-20"/>
      <point x="215" y="-20" type="curve" smooth="yes"/>
      <point x="285" y="-20"/>
      <point x="339" y="5"/>
      <point x="385" y="44" type="curve"/>
      <point x="321" y="152" type="line"/>
      <point x="292" y="134"/>
      <point x="272" y="125"/>
      <point x="251" y="125" type="curve" smooth="yes"/>
      <point x="224" y="125"/>
      <point x="204" y="136"/>
      <point x="204" y="201" type="curve" smooth="yes"/>
      <point x="204" y="296"/>
      <point x="226" y="412"/>
      <point x="294" y="412" type="curve" smooth="yes"/>
      <point x="315" y="412"/>
      <point x="336" y="403"/>
      <point x="359" y="384" type="curve"/>
      <point x="447" y="483" type="line"/>
      <point x="409" y="527"/>
      <point x="359" y="554"/>
    </contour>
  </outline>
</glyph>
<glyph name="d" format="2">
  <advance width="495"/>
  <unicode hex="0064"/>
  <anchor x="218" y="0" name="bottom"/>
  <anchor x="249" y="267" name="center"/>
  <anchor x="311" y="744" name="top"/>
  <anchor x="546" y="744" name="topright"/>
  <outline>
    <contour>
      <point x="353" y="763" type="line"/>
      <point x="318" y="511" type="line"/>
      <point x="298" y="538"/>
      <point x="269" y="554"/>
      <point x="229" y="554" type="curve" smooth="yes"/>
      <point x="86" y="554"/>
      <point x="7" y="364"/>
      <point x="7" y="171" type="curve" smooth="yes"/>
      <point x="7" y="45"/>
      <point x="57" y="-20"/>
      <point x="141" y="-20" type="curve" smooth="yes"/>
      <point x="200" y="-20"/>
      <point x="236" y="8"/>
      <point x="270" y="56" type="curve"/>
      <point x="268" y="0" type="line"/>
      <point x="433" y="0" type="line"/>
      <point x="537" y="744" type="line"/>
    </contour>
    <contour>
      <point x="272" y="418" type="curve" smooth="yes"/>
      <point x="285" y="418"/>
      <point x="293" y="412"/>
      <point x="302" y="398" type="curve"/>
      <point x="269" y="163" type="line"/>
      <point x="253" y="135"/>
      <point x="235" y="116"/>
      <point x="220" y="116" type="curve" smooth="yes"/>
      <point x="207" y="116"/>
      <point x="197" y="123"/>
      <point x="197" y="174" type="curve" smooth="yes"/>
      <point x="197" y="264"/>
      <point x="222" y="418"/>
    </contour>
  </outline>
</glyph>
<glyph name="e" format="2">
  <advance width="469"/>
  <unicode hex="0065"/>
  <anchor x="216" y="0" name="bottom"/>
  <anchor x="355" y="11" name="ogonek"/>
  <anchor x="288" y="534" name="top"/>
  <outline>
    <contour>
      <point x="297" y="554" type="curve" smooth="yes"/>
      <point x="106" y="554"/>
      <point x="13" y="398"/>
      <point x="9" y="196" type="curve" smooth="yes"/>
      <point x="6" y="46"/>
      <point x="89" y="-21"/>
      <point x="216" y="-20" type="curve"/>
      <point x="299" y="-20"/>
      <point x="366" y="13"/>
      <point x="416" y="56" type="curve"/>
      <point x="355" y="162" type="line"/>
      <point x="314" y="133"/>
      <point x="284" y="116"/>
      <point x="247" y="116" type="curve" smooth="yes"/>
      <point x="209" y="116"/>
      <point x="191" y="138"/>
      <point x="191" y="177" type="curve" smooth="yes"/>
      <point x="191" y="267"/>
      <point x="215" y="432"/>
      <point x="274" y="432" type="curve" smooth="yes"/>
      <point x="290" y="432"/>
      <point x="298" y="422"/>
      <point x="298" y="404" type="curve" smooth="yes"/>
      <point x="298" y="366"/>
      <point x="277" y="303"/>
      <point x="196" y="299" type="curve"/>
      <point x="179" y="190" type="line"/>
      <point x="313" y="203"/>
      <point x="470" y="250"/>
      <point x="476" y="403" type="curve" smooth="yes"/>
      <point x="479" y="491"/>
      <point x="410" y="554"/>
    </contour>
  </outline>
</glyph>
<glyph name="f" format="2">
  <advance width="316"/>
  <unicode hex="0066"/>
  <anchor x="77" y="-214" name="bottom"/>
  <anchor x="297" y="744" name="top"/>
  <outline>
    <contour>
      <point x="312" y="764" type="curve" smooth="yes"/>
      <point x="182" y="764"/>
      <point x="108" y="679"/>
      <point x="93" y="569" type="curve" smooth="yes"/>
      <point x="25" y="63" type="line" smooth="yes"/>
      <point x="12" y="-30"/>
      <point x="-20" y="-63"/>
      <point x="-86" y="-90" type="curve"/>
      <point x="-45" y="-226" type="line"/>
      <point x="71" y="-184"/>
      <point x="185" y="-128"/>
      <point x="212" y="73" type="curve" smooth="yes"/>
      <point x="277" y="558" type="line" smooth="yes"/>
      <point x="284" y="608"/>
      <point x="302" y="627"/>
      <point x="333" y="627" type="curve" smooth="yes"/>
      <point x="352" y="627"/>
      <point x="369" y="622"/>
      <point x="389" y="610" type="curve"/>
      <point x="454" y="718" type="line"/>
      <point x="424" y="742"/>
      <point x="375" y="764"/>
    </contour>
    <contour>
      <point x="375" y="534" type="line"/>
      <point x="37" y="534" type="line"/>
      <point x="19" y="405" type="line"/>
      <point x="335" y="405" type="line"/>
    </contour>
  </outline>
</glyph>
<glyph name="g" format="2">
  <advance width="485"/>
  <unicode hex="0067"/>
  <anchor x="163" y="-215" name="bottom"/>
  <anchor x="290" y="534" name="top"/>
  <outline>
    <contour>
      <point x="299" y="554" type="curve" smooth="yes"/>
      <point x="84" y="554"/>
      <point x="10" y="384"/>
      <point x="10" y="191" type="curve" smooth="yes"/>
      <point x="10" y="74"/>
      <point x="56" y="-1"/>
      <point x="143" y="-1" type="curve" smooth="yes"/>
      <point x="195" y="-1"/>
      <point x="230" y="25"/>
      <point x="255" y="63" type="curve"/>
      <point x="246" y="0" type="line" smooth="yes"/>
      <point x="236" y="-70"/>
      <point x="202" y="-86"/>
      <point x="162" y="-86" type="curve" smooth="yes"/>
      <point x="125" y="-86"/>
      <point x="93" y="-76"/>
      <point x="49" y="-50" type="curve"/>
      <point x="-15" y="-169" type="line"/>
      <point x="36" y="-204"/>
      <point x="97" y="-226"/>
      <point x="169" y="-226" type="curve" smooth="yes"/>
      <point x="329" y="-226"/>
      <point x="406" y="-140"/>
      <point x="431" y="35" type="curve" smooth="yes"/>
      <point x="496" y="499" type="line"/>
      <point x="438" y="533"/>
      <point x="369" y="554"/>
    </contour>
    <contour>
      <point x="280" y="423" type="curve" smooth="yes"/>
      <point x="286" y="423"/>
      <point x="293" y="422"/>
      <point x="299" y="420" type="curve"/>
      <point x="267" y="183" type="line"/>
      <point x="252" y="157"/>
      <point x="233" y="136"/>
      <point x="218" y="136" type="curve" smooth="yes"/>
      <point x="205" y="136"/>
      <point x="197" y="146"/>
      <point x="197" y="186" type="curve" smooth="yes"/>
      <point x="197" y="308"/>
      <point x="223" y="423"/>
    </contour>
  </outline>
</glyph>
<glyph name="h" format="2">
  <advance width="465"/>
  <unicode hex="0068"/>
  <anchor x="197" y="0" name="bottom"/>
  <anchor x="232" y="267" name="center"/>
  <anchor x="299" y="744" name="top"/>
  <outline>
    <contour>
      <point x="367" y="554" type="curve" smooth="yes"/>
      <point x="305" y="554"/>
      <point x="263" y="505"/>
      <point x="239" y="464" type="curve"/>
      <point x="279" y="763" type="line"/>
      <point x="91" y="744" type="line"/>
      <point x="-13" y="0" type="line"/>
      <point x="173" y="0" type="line"/>
      <point x="214" y="294" type="line"/>
      <point x="243" y="359"/>
      <point x="254" y="383"/>
      <point x="264" y="383" type="curve" smooth="yes"/>
      <point x="270" y="383"/>
      <point x="271" y="376"/>
      <point x="269" y="358" type="curve" smooth="yes"/>
      <point x="220" y="0" type="line"/>
      <point x="406" y="0" type="line"/>
      <point x="462" y="395" type="line" smooth="yes"/>
      <point x="476" y="493"/>
      <point x="439" y="554"/>
    </contour>
  </outline>
</glyph>
<glyph name="k" format="2">
  <advance width="499"/>
  <unicode hex="006B"/>
  <anchor x="222" y="0" name="bottom"/>
  <anchor x="356" y="744" name="top"/>
  <outline>
    <contour>
      <point x="280" y="763" type="line"/>
      <point x="91" y="744" type="line"/>
      <point x="-13" y="0" type="line"/>
      <point x="174" y="0" type="line"/>
      <point x="221" y="345" type="line"/>
      <point x="256" y="400"/>
      <point x="283" y="424"/>
      <point x="306" y="424" type="curve" smooth="yes"/>
      <point x="321" y="424"/>
      <point x="331" y="413"/>
      <point x="331" y="390" type="curve" smooth="yes"/>
      <point x="331" y="345"/>
      <point x="312" y="298"/>
      <point x="222" y="256" type="curve"/>
      <point x="269" y="0" type="line"/>
      <point x="461" y="0" type="line"/>
      <point x="404" y="243" type="line"/>
      <point x="481" y="297"/>
      <point x="518" y="348"/>
      <point x="518" y="430" type="curve" smooth="yes"/>
      <point x="518" y="503"/>
      <point x="468" y="553"/>
      <point x="391" y="553" type="curve" smooth="yes"/>
      <point x="332" y="553"/>
      <point x="286" y="531"/>
      <point x="242" y="480" type="curve"/>
    </contour>
  </outline>
</glyph>
<glyph name="l" format="2">
  <advance width="251"/>
  <unicode hex="006C"/>
  <anchor x="111" y="0" name="bottom"/>
  <anchor x="352" y="374" name="center"/>
  <anchor x="178" y="744" name="top"/>
  <anchor x="289" y="744" name="topright"/>
  <outline>
    <contour>
      <point x="273" y="763" type="line"/>
      <point x="86" y="744" type="line"/>
      <point x="2" y="140" type="line" smooth="yes"/>
      <point x="-12" y="42"/>
      <point x="31" y="-19"/>
      <point x="128" y="-19" type="curve" smooth="yes"/>
      <point x="165" y="-19"/>
      <point x="203" y="-10"/>
      <point x="229" y="1" type="curve"/>
      <point x="218" y="132" type="line"/>
      <point x="214" y="131"/>
      <point x="210" y="130"/>
      <point x="205" y="130" type="curve" smooth="yes"/>
      <point x="193" y="130"/>
      <point x="188" y="137"/>
      <point x="191" y="156" type="curve" smooth="yes"/>
    </contour>
  </outline>
</glyph>
<glyph name="m" format="2">
  <advance width="678"/>
  <unicode hex="006D"/>
  <anchor x="303" y="0" name="bottom"/>
  <anchor x="381" y="533" name="top"/>
  <outline>
    <contour>
      <point x="356" y="554" type="curve" smooth="yes"/>
      <point x="299" y="554"/>
      <point x="257" y="513"/>
      <point x="224" y="460" type="curve"/>
      <point x="223" y="533" type="line"/>
      <point x="61" y="533" type="line"/>
      <point x="-13" y="0" type="line"/>
      <point x="173" y="0" type="line"/>
      <point x="214" y="297" type="line"/>
      <point x="238" y="367"/>
      <point x="247" y="388"/>
      <point x="255" y="388" type="curve" smooth="yes"/>
      <point x="260" y="388"/>
      <point x="262" y="381"/>
      <point x="259" y="358" type="curve" smooth="yes"/>
      <point x="210" y="0" type="line"/>
      <point x="396" y="0" type="line"/>
      <point x="452" y="395" type="line" smooth="yes"/>
      <point x="466" y="493"/>
      <point x="429" y="554"/>
    </contour>
    <contour>
      <point x="579" y="554" type="curve" smooth="yes"/>
      <point x="522" y="554"/>
      <point x="480" y="513"/>
      <point x="447" y="460" type="curve"/>
      <point x="437" y="297" type="line"/>
      <point x="461" y="367"/>
      <point x="470" y="388"/>
      <point x="478" y="388" type="curve" smooth="yes"/>
      <point x="483" y="388"/>
      <point x="485" y="381"/>
      <point x="482" y="358" type="curve" smooth="yes"/>
      <point x="433" y="0" type="line"/>
      <point x="619" y="0" type="line"/>
      <point x="675" y="395" type="line" smooth="yes"/>
      <point x="689" y="493"/>
      <point x="652" y="554"/>
    </contour>
  </outline>
</glyph>
<glyph name="n" format="2">
  <advance width="466"/>
  <unicode hex="006E"/>
  <anchor x="198" y="0" name="bottom"/>
  <anchor x="275" y="534" name="top"/>
  <anchor x="56" y="534" name="topleft"/>
  <outline>
    <contour>
      <point x="367" y="554" type="curve" smooth="yes"/>
      <point x="305" y="554"/>
      <point x="259" y="510"/>
      <point x="225" y="457" type="curve"/>
      <point x="224" y="534" type="line"/>
      <point x="62" y="534" type="line"/>
      <point x="-12" y="0" type="line"/>
      <point x="174" y="0" type="line"/>
      <point x="215" y="294" type="line"/>
      <point x="244" y="359"/>
      <point x="255" y="383"/>
      <point x="265" y="383" type="curve" smooth="yes"/>
      <point x="271" y="383"/>
      <point x="272" y="376"/>
      <point x="270" y="358" type="curve" smooth="yes"/>
      <point x="221" y="0" type="line"/>
      <point x="407" y="0" type="line"/>
      <point x="463" y="395" type="line" smooth="yes"/>
      <point x="477" y="493"/>
      <point x="440" y="554"/>
    </contour>
  </outline>
</glyph>
<glyph name="o" format="2">
  <advance width="494"/>
  <unicode hex="006F"/>
  <anchor x="210" y="0" name="bottom"/>
  <anchor x="282" y="534" name="top"/>
  <anchor x="466" y="534" name="topright"/>
  <outline>
    <contour>
      <point x="210" y="-20" type="curve" smooth="yes"/>
      <point x="392" y="-20"/>
      <point x="484" y="144"/>
      <point x="484" y="337" type="curve" smooth="yes"/>
      <point x="484" y="485"/>
      <point x="405" y="554"/>
      <point x="284" y="554" type="curve" smooth="yes"/>
      <point x="101" y="554"/>
      <point x="10" y="388"/>
      <point x="10" y="196" type="curve" smooth="yes"/>
      <point x="10" y="48"/>
      <point x="88" y="-20"/>
    </contour>
    <contour>
      <point x="224" y="116" type="curve" smooth="yes"/>
      <point x="206" y="116"/>
      <point x="197" y="128"/>
      <point x="197" y="167" type="curve" smooth="yes"/>
      <point x="197" y="257"/>
      <point x="217" y="417"/>
      <point x="270" y="417" type="curve" smooth="yes"/>
      <point x="288" y="417"/>
      <point x="297" y="405"/>
      <point x="297" y="367" type="curve" smooth="yes"/>
      <point x="297" y="277"/>
      <point x="276" y="116"/>
    </contour>
  </outline>
</glyph>
<glyph name="p" format="2">
  <advance width="494"/>
  <unicode hex="0070"/>
  <anchor x="178" y="-215" name="bottom"/>
  <anchor x="283" y="534" name="top"/>
  <outline>
    <contour>
      <point x="-44" y="-227" type="line"/>
      <point x="144" y="-208" type="line"/>
      <point x="172" y="-12" type="line"/>
      <point x="192" y="-17"/>
      <point x="214" y="-20"/>
      <point x="237" y="-20" type="curve" smooth="yes"/>
      <point x="410" y="-20"/>
      <point x="487" y="150"/>
      <point x="487" y="376" type="curve" smooth="yes"/>
      <point x="487" y="491"/>
      <point x="442" y="554"/>
      <point x="361" y="554" type="curve" smooth="yes"/>
      <point x="313" y="554"/>
      <point x="264" y="531"/>
      <point x="227" y="481" type="curve"/>
      <point x="228" y="535" type="line"/>
      <point x="62" y="535" type="line"/>
    </contour>
    <contour>
      <point x="218" y="114" type="curve" smooth="yes"/>
      <point x="209" y="114"/>
      <point x="201" y="116"/>
      <point x="190" y="121" type="curve"/>
      <point x="227" y="378" type="line"/>
      <point x="244" y="404"/>
      <point x="261" y="417"/>
      <point x="275" y="417" type="curve" smooth="yes"/>
      <point x="288" y="417"/>
      <point x="299" y="410"/>
      <point x="299" y="367" type="curve" smooth="yes"/>
      <point x="299" y="283"/>
      <point x="278" y="114"/>
    </contour>
  </outline>
</glyph>
<glyph name="q" format="2">
  <advance width="490"/>
  <unicode hex="0071"/>
  <anchor x="182" y="-215" name="bottom"/>
  <anchor x="287" y="534" name="top"/>
  <outline>
    <contour>
      <point x="299" y="554" type="curve" smooth="yes"/>
      <point x="85" y="554"/>
      <point x="8" y="372"/>
      <point x="8" y="172" type="curve" smooth="yes"/>
      <point x="8" y="55"/>
      <point x="56" y="-20"/>
      <point x="145" y="-20" type="curve" smooth="yes"/>
      <point x="191" y="-20"/>
      <point x="220" y="0"/>
      <point x="249" y="32" type="curve"/>
      <point x="216" y="-208" type="line"/>
      <point x="400" y="-227" type="line"/>
      <point x="499" y="499" type="line"/>
      <point x="441" y="533"/>
      <point x="373" y="554"/>
    </contour>
    <contour>
      <point x="282" y="423" type="curve" smooth="yes"/>
      <point x="290" y="423"/>
      <point x="298" y="422"/>
      <point x="304" y="420" type="curve"/>
      <point x="268" y="164" type="line"/>
      <point x="253" y="138"/>
      <point x="235" y="117"/>
      <point x="217" y="117" type="curve" smooth="yes"/>
      <point x="203" y="117"/>
      <point x="195" y="129"/>
      <point x="195" y="167" type="curve" smooth="yes"/>
      <point x="195" y="301"/>
      <point x="224" y="423"/>
    </contour>
  </outline>
</glyph>
<glyph name="r" format="2">
  <advance width="340"/>
  <unicode hex="0072"/>
  <anchor x="81" y="0" name="bottom"/>
  <anchor x="225" y="534" name="top"/>
  <outline>
    <contour>
      <point x="348" y="551" type="curve" smooth="yes"/>
      <point x="290" y="551"/>
      <point x="249" y="507"/>
      <point x="221" y="448" type="curve"/>
      <point x="221" y="534" type="line"/>
      <point x="62" y="534" type="line"/>
      <point x="-12" y="0" type="line"/>
      <point x="174" y="0" type="line"/>
      <point x="206" y="229" type="line"/>
      <point x="225" y="303"/>
      <point x="250" y="366"/>
      <point x="297" y="366" type="curve" smooth="yes"/>
      <point x="310" y="366"/>
      <point x="323" y="363"/>
      <point x="334" y="360" type="curve"/>
      <point x="391" y="542" type="line"/>
      <point x="377" y="548"/>
      <point x="366" y="551"/>
    </contour>
  </outline>
</glyph>
<glyph name="s" format="2">
  <advance width="408"/>
  <unicode hex="0073"/>
  <anchor x="165" y="0" name="bottom"/>
  <anchor x="241" y="534" name="top"/>
  <outline>
    <contour>
      <point x="239" y="554" type="curve" smooth="yes"/>
      <point x="116" y="554"/>
      <point x="26" y="474"/>
      <point x="26" y="361" type="curve" smooth="yes"/>
      <point x="26" y="286"/>
      <point x="61" y="250"/>
      <point x="130" y="218" type="curve" smooth="yes"/>
      <point x="184" y="193"/>
      <point x="202" y="177"/>
      <point x="202" y="151" type="curve" smooth="yes"/>
      <point x="202" y="125"/>
      <point x="184" y="111"/>
      <point x="154" y="111" type="curve" smooth="yes"/>
      <point x="118" y="111"/>
      <point x="86" y="132"/>
      <point x="57" y="159" type="curve"/>
      <point x="-39" y="64" type="line"/>
      <point x="10" y="12"/>
      <point x="73" y="-20"/>
      <point x="161" y="-20" type="curve" smooth="yes"/>
      <point x="284" y="-20"/>
      <point x="389" y="56"/>
      <point x="389" y="180" type="curve" smooth="yes"/>
      <point x="389" y="256"/>
      <point x="350" y="294"/>
      <point x="287" y="324" type="curve" smooth="yes"/>
      <point x="223" y="355"/>
      <point x="208" y="369"/>
      <point x="208" y="389" type="curve" smooth="yes"/>
      <point x="208" y="408"/>
      <point x="224" y="422"/>
      <point x="251" y="422" type="curve" smooth="yes"/>
      <point x="280" y="422"/>
      <point x="310" y="408"/>
      <point x="338" y="387" type="curve"/>
      <point x="416" y="485" type="line"/>
      <point x="375" y="526"/>
      <point x="311" y="554"/>
    </contour>
  </outline>
</glyph>
<glyph name="t" format="2">
  <advance width="333"/>
  <unicode hex="0074"/>
  <anchor x="161" y="0" name="bottom"/>
  <anchor x="165" y="267" name="center"/>
  <anchor x="198" y="650" name="top"/>
  <anchor x="306" y="805" name="topright"/>
  <outline>
    <contour>
      <point x="285" y="669" type="line"/>
      <point x="118" y="650" type="line"/>
      <point x="72" y="477" type="line"/>
      <point x="30" y="174" type="line" smooth="yes"/>
      <point x="14" y="55"/>
      <point x="63" y="-20"/>
      <point x="176" y="-20" type="curve" smooth="yes"/>
      <point x="222" y="-20"/>
      <point x="275" y="-7"/>
      <point x="316" y="21" type="curve"/>
      <point x="275" y="138" type="line"/>
      <point x="263" y="132"/>
      <point x="254" y="129"/>
      <point x="242" y="129" type="curve" smooth="yes"/>
      <point x="223" y="129"/>
      <point x="213" y="143"/>
      <point x="217" y="174" type="curve" smooth="yes"/>
    </contour>
    <contour>
      <point x="360" y="534" type="line"/>
      <point x="34" y="534" type="line"/>
      <point x="14" y="405" type="line"/>
      <point x="320" y="405" type="line"/>
    </contour>
  </outline>
</glyph>
<glyph name="u" format="2">
  <advance width="460"/>
  <unicode hex="0075"/>
  <anchor x="202" y="0" name="bottom"/>
  <anchor x="406" y="0" name="bottomright"/>
  <anchor x="405" y="0" name="ogonek"/>
  <anchor x="266" y="534" name="top"/>
  <anchor x="483" y="534" name="topright"/>
  <outline>
    <contour>
      <point x="102" y="-20" type="curve" smooth="yes"/>
      <point x="168" y="-20"/>
      <point x="207" y="21"/>
      <point x="238" y="67" type="curve"/>
      <point x="236" y="0" type="line"/>
      <point x="398" y="0" type="line"/>
      <point x="473" y="534" type="line"/>
      <point x="287" y="534" type="line"/>
      <point x="240" y="193" type="line"/>
      <point x="224" y="160"/>
      <point x="211" y="147"/>
      <point x="202" y="147" type="curve" smooth="yes"/>
      <point x="195" y="147"/>
      <point x="193" y="154"/>
      <point x="195" y="172" type="curve" smooth="yes"/>
      <point x="245" y="534" type="line"/>
      <point x="59" y="534" type="line"/>
      <point x="4" y="139" type="line" smooth="yes"/>
      <point x="-10" y="42"/>
      <point x="29" y="-20"/>
    </contour>
  </outline>
</glyph>
<glyph name="v" format="2">
  <advance width="438"/>
  <unicode hex="0076"/>
  <anchor x="187" y="0" name="bottom"/>
  <anchor x="259" y="534" name="top"/>
  <outline>
    <contour>
      <point x="491" y="534" type="line"/>
      <point x="299" y="534" type="line"/>
      <point x="207" y="138" type="line"/>
      <point x="218" y="534" type="line"/>
      <point x="23" y="534" type="line"/>
      <point x="75" y="0" type="line"/>
      <point x="300" y="0" type="line"/>
    </contour>
  </outline>
</glyph>
<glyph name="w" format="2">
  <advance width="643"/>
  <unicode hex="0077"/>
  <anchor x="289" y="0" name="bottom"/>
  <anchor x="359" y="534" name="top"/>
  <outline>
    <contour>
      <point x="684" y="534" type="line"/>
      <point x="505" y="534" type="line"/>
      <point x="432" y="144" type="line"/>
      <point x="448" y="534" type="line"/>
      <point x="279" y="534" type="line"/>
      <point x="181" y="144" type="line"/>
      <point x="222" y="534" type="line"/>
      <point x="35" y="534" type="line"/>
      <point x="42" y="0" type="line"/>
      <point x="252" y="0" type="line"/>
      <point x="333" y="364" type="line"/>
      <point x="324" y="0" type="line"/>
      <point x="529" y="0" type="line"/>
    </contour>
  </outline>
</glyph>
<glyph name="x" format="2">
  <advance width="438"/>
  <unicode hex="0078"/>
  <anchor x="179" y="0" name="bottom"/>
  <anchor x="358" y="0" name="bottomright"/>
  <anchor x="252" y="534" name="top"/>
  <outline>
    <contour>
      <point x="219" y="534" type="line"/>
      <point x="24" y="534" type="line"/>
      <point x="106" y="283" type="line"/>
      <point x="200" y="181" type="line"/>
      <point x="227" y="0" type="line"/>
      <point x="420" y="0" type="line"/>
      <point x="335" y="281" type="line"/>
      <point x="235" y="374" type="line"/>
    </contour>
    <contour>
      <point x="469" y="534" type="line"/>
      <point x="286" y="534" type="line"/>
      <point x="235" y="374" type="line"/>
      <point x="106" y="283" type="line"/>
      <point x="-58" y="0" type="line"/>
      <point x="130" y="0" type="line"/>
      <point x="200" y="181" type="line"/>
      <point x="335" y="281" type="line"/>
    </contour>
  </outline>
</glyph>
<glyph name="y" format="2">
  <advance width="445"/>
  <unicode hex="0079"/>
  <anchor x="164" y="-215" name="bottom"/>
  <anchor x="260" y="534" name="top"/>
  <outline>
    <contour>
      <point x="498" y="534" type="line"/>
      <point x="302" y="534" type="line"/>
      <point x="198" y="118" type="line"/>
      <point x="215" y="534" type="line"/>
      <point x="23" y="534" type="line"/>
      <point x="64" y="0" type="line"/>
      <point x="130" y="1" type="line"/>
      <point x="98" y="-67"/>
      <point x="57" y="-89"/>
      <point x="-27" y="-100" type="curve"/>
      <point x="-25" y="-227" type="line"/>
      <point x="127" y="-221"/>
      <point x="237" y="-162"/>
      <point x="298" y="0" type="curve" smooth="yes"/>
    </contour>
  </outline>
</glyph>
<glyph name="z" format="2">
  <advance width="394"/>
  <unicode hex="007A"/>
  <anchor x="150" y="0" name="bottom"/>
  <anchor x="237" y="534" name="top"/>
  <outline>
    <contour>
      <point x="418" y="534" type="line"/>
      <point x="54" y="534" type="line"/>
      <point x="33" y="395" type="line"/>
      <point x="179" y="395" type="line"/>
      <point x="-16" y="133" type="line"/>
      <point x="-35" y="0" type="line"/>
      <point x="336" y="0" type="line"/>
      <point x="373" y="141" type="line"/>
      <point x="204" y="141" type="line"/>
      <point x="399" y="403" type="line"/>
    </contour>
  </outline>
</glyph>
<glyph name="braceleft" format="2">
  <advance width="268"/>
  <unicode hex="007B"/>
  <outline>
    <contour>
      <point x="343" y="842" type="line"/>
      <point x="167" y="842"/>
      <point x="121" y="781"/>
      <point x="106" y="660" type="curve" smooth="yes"/>
      <point x="86" y="502" type="line" smooth="yes"/>
      <point x="79" y="448"/>
      <point x="63" y="428"/>
      <point x="23" y="428" type="curve"/>
      <point x="1" y="272" type="line"/>
      <point x="37" y="272"/>
      <point x="46" y="255"/>
      <point x="39" y="200" type="curve" smooth="yes"/>
      <point x="19" y="41" type="line" smooth="yes"/>
      <point x="3" y="-83"/>
      <point x="53" y="-142"/>
      <point x="210" y="-142" type="curve"/>
      <point x="229" y="-12" type="line"/>
      <point x="189" y="-12"/>
      <point x="183" y="2"/>
      <point x="188" y="42" type="curve" smooth="yes"/>
      <point x="209" y="202" type="line" smooth="yes"/>
      <point x="222" y="298"/>
      <point x="194" y="336"/>
      <point x="127" y="348" type="curve"/>
      <point x="197" y="366"/>
      <point x="244" y="399"/>
      <point x="255" y="496" type="curve" smooth="yes"/>
      <point x="275" y="657" type="line" smooth="yes"/>
      <point x="280" y="700"/>
      <point x="290" y="712"/>
      <point x="326" y="712" type="curve"/>
    </contour>
  </outline>
</glyph>
<glyph name="bar" format="2">
  <advance width="285"/>
  <unicode hex="007C"/>
  <outline>
    <contour>
      <point x="307" y="812" type="line"/>
      <point x="131" y="812" type="line"/>
      <point x="3" y="-107" type="line"/>
      <point x="178" y="-107" type="line"/>
    </contour>
  </outline>
</glyph>
<glyph name="braceright" format="2">
  <advance width="268"/>
  <unicode hex="007D"/>
  <outline>
    <contour>
      <point x="-51" y="-142" type="line"/>
      <point x="125" y="-142"/>
      <point x="171" y="-81"/>
      <point x="186" y="40" type="curve" smooth="yes"/>
      <point x="206" y="198" type="line" smooth="yes"/>
      <point x="213" y="252"/>
      <point x="229" y="272"/>
      <point x="269" y="272" type="curve"/>
      <point x="291" y="428" type="line"/>
      <point x="255" y="428"/>
      <point x="246" y="445"/>
      <point x="253" y="500" type="curve" smooth="yes"/>
      <point x="273" y="659" type="line" smooth="yes"/>
      <point x="289" y="783"/>
      <point x="239" y="842"/>
      <point x="82" y="842" type="curve"/>
      <point x="63" y="712" type="line"/>
      <point x="103" y="712"/>
      <point x="109" y="698"/>
      <point x="104" y="658" type="curve" smooth="yes"/>
      <point x="83" y="498" type="line" smooth="yes"/>
      <point x="70" y="402"/>
      <point x="98" y="364"/>
      <point x="165" y="352" type="curve"/>
      <point x="95" y="334"/>
      <point x="48" y="301"/>
      <point x="37" y="204" type="curve" smooth="yes"/>
      <point x="17" y="43" type="line" smooth="yes"/>
      <point x="12" y="0"/>
      <point x="2" y="-12"/>
      <point x="-34" y="-12" type="curve"/>
    </contour>
  </outline>
</glyph>
<glyph name="asciitilde" format="2">
  <advance width="449"/>
  <unicode hex="007E"/>
  <outline>
    <contour>
      <point x="290" y="223" type="curve" smooth="yes"/>
      <point x="367" y="223"/>
      <point x="416" y="292"/>
      <point x="460" y="363" type="curve"/>
      <point x="376" y="412" type="line"/>
      <point x="355" y="382"/>
      <point x="341" y="363"/>
      <point x="311" y="363" type="curve" smooth="yes"/>
      <point x="268" y="363"/>
      <point x="244" y="423"/>
      <point x="173" y="423" type="curve" smooth="yes"/>
      <point x="97" y="423"/>
      <point x="48" y="354"/>
      <point x="4" y="283" type="curve"/>
      <point x="85" y="232" type="line"/>
      <point x="108" y="263"/>
      <point x="124" y="283"/>
      <point x="150" y="283" type="curve" smooth="yes"/>
      <point x="194" y="283"/>
      <point x="220" y="223"/>
    </contour>
  </outline>
</glyph>
<glyph name="exclamdown" format="2">
  <advance width="231"/>
  <unicode hex="00A1"/>
  <outline>
    <contour>
      <point x="175" y="229" type="line"/>
      <point x="32" y="229" type="line"/>
      <point x="-55" y="-207" type="line"/>
      <point x="139" y="-207" type="line"/>
    </contour>
    <component base="period" xOffset="53" yOffset="335"/>
  </outline>
</glyph>
<glyph name="cent" format="2">
  <advance width="402"/>
  <unicode hex="00A2"/>
  <anchor x="197" y="0" name="bottom"/>
  <anchor x="280" y="534" name="top"/>
  <outline>
    <contour>
      <point x="359" y="696" type="line"/>
      <point x="238" y="696" type="line"/>
      <point x="214" y="535" type="line"/>
      <point x="337" y="538" type="line"/>
    </contour>
    <contour>
      <point x="140" y="-1" type="line"/>
      <point x="115" y="-164" type="line"/>
      <point x="238" y="-164" type="line"/>
      <point x="262" y="-5" type="line"/>
    </contour>
    <component base="c"/>
  </outline>
</glyph>
<glyph name="sterling" format="2">
  <advance width="464"/>
  <unicode hex="00A3"/>
  <outline>
    <contour>
      <point x="269" y="257" type="curve" smooth="yes"/>
      <point x="297" y="484" type="line" smooth="yes"/>
      <point x="304" y="535"/>
      <point x="312" y="557"/>
      <point x="343" y="557" type="curve" smooth="yes"/>
      <point x="363" y="557"/>
      <point x="377" y="547"/>
      <point x="392" y="514" type="curve"/>
      <point x="508" y="588" type="line"/>
      <point x="476" y="658"/>
      <point x="420" y="696"/>
      <point x="336" y="696" type="curve" smooth="yes"/>
      <point x="204" y="696"/>
      <point x="134" y="613"/>
      <point x="115" y="488" type="curve" smooth="yes"/>
      <point x="84" y="248" type="line" smooth="yes"/>
      <point x="79" y="193"/>
      <point x="71" y="155"/>
      <point x="0" y="134" type="curve"/>
      <point x="-20" y="0" type="line"/>
      <point x="390" y="0" type="line"/>
      <point x="431" y="140" type="line"/>
      <point x="189" y="140" type="line"/>
      <point x="249" y="170"/>
      <point x="264" y="206"/>
    </contour>
    <contour>
      <point x="33" y="305" type="line"/>
      <point x="399" y="305" type="line"/>
      <point x="412" y="398" type="line"/>
      <point x="46" y="398" type="line"/>
    </contour>
  </outline>
</glyph>
<glyph name="currency" format="2">
  <advance width="460"/>
  <unicode hex="00A4"/>
  <outline>
    <contour>
      <point x="241" y="563" type="curve" smooth="yes"/>
      <point x="132" y="563"/>
      <point x="51" y="476"/>
      <point x="51" y="342" type="curve" smooth="yes"/>
      <point x="51" y="207"/>
      <point x="132" y="121"/>
      <point x="241" y="121" type="curve" smooth="yes"/>
      <point x="347" y="121"/>
      <point x="429" y="207"/>
      <point x="429" y="342" type="curve" smooth="yes"/>
      <point x="429" y="476"/>
      <point x="347" y="563"/>
    </contour>
    <contour>
      <point x="83" y="236" type="line"/>
      <point x="4" y="139" type="line"/>
      <point x="81" y="72" type="line"/>
      <point x="152" y="159" type="line"/>
    </contour>
    <contour>
      <point x="395" y="237" type="line"/>
      <point x="324" y="160" type="line"/>
      <point x="393" y="72" type="line"/>
      <point x="476" y="138" type="line"/>
    </contour>
    <contour>
      <point x="87" y="612" type="line"/>
      <point x="4" y="546" type="line"/>
      <point x="85" y="447" type="line"/>
      <point x="156" y="524" type="line"/>
    </contour>
    <contour>
      <point x="399" y="612" type="line"/>
      <point x="328" y="525" type="line"/>
      <point x="397" y="448" type="line"/>
      <point x="476" y="545" type="line"/>
    </contour>
    <contour>
      <point x="240" y="445" type="curve" smooth="yes"/>
      <point x="278" y="445"/>
      <point x="296" y="420"/>
      <point x="296" y="342" type="curve" smooth="yes"/>
      <point x="296" y="265"/>
      <point x="278" y="239"/>
      <point x="240" y="239" type="curve" smooth="yes"/>
      <point x="202" y="239"/>
      <point x="183" y="265"/>
      <point x="183" y="342" type="curve" smooth="yes"/>
      <point x="183" y="420"/>
      <point x="202" y="445"/>
    </contour>
  </outline>
</glyph>
<glyph name="yen" format="2">
  <advance width="483"/>
  <unicode hex="00A5"/>
  <outline>
    <contour>
      <point x="559" y="679" type="line"/>
      <point x="366" y="679" type="line"/>
      <point x="260" y="405" type="line"/>
      <point x="225" y="679" type="line"/>
      <point x="40" y="679" type="line"/>
      <point x="150" y="279" type="line"/>
      <point x="114" y="0" type="line"/>
      <point x="297" y="0" type="line"/>
      <point x="335" y="279" type="line"/>
    </contour>
    <contour>
      <point x="428" y="200" type="line"/>
      <point x="41" y="200" type="line"/>
      <point x="26" y="108" type="line"/>
      <point x="412" y="108" type="line"/>
    </contour>
    <contour>
      <point x="449" y="355" type="line"/>
      <point x="62" y="355" type="line"/>
      <point x="48" y="263" type="line"/>
      <point x="435" y="263" type="line"/>
    </contour>
  </outline>
</glyph>
<glyph name="brokenbar" format="2">
  <advance width="285"/>
  <unicode hex="00A6"/>
  <outline>
    <contour>
      <point x="307" y="812" type="line"/>
      <point x="131" y="812" type="line"/>
      <point x="79" y="443" type="line"/>
      <point x="255" y="443" type="line"/>
    </contour>
    <contour>
      <point x="230" y="262" type="line"/>
      <point x="54" y="262" type="line"/>
      <point x="3" y="-107" type="line"/>
      <point x="178" y="-107" type="line"/>
    </contour>
  </outline>
</glyph>
<glyph name="section" format="2">
  <advance width="466"/>
  <unicode hex="00A7"/>
  <outline>
    <contour>
      <point x="309" y="696" type="curve" smooth="yes"/>
      <point x="167" y="696"/>
      <point x="87" y="605"/>
      <point x="87" y="508" type="curve" smooth="yes"/>
      <point x="87" y="441"/>
      <point x="124" y="396"/>
      <point x="223" y="358" type="curve" smooth="yes"/>
      <point x="270" y="339"/>
      <point x="287" y="322"/>
      <point x="287" y="296" type="curve" smooth="yes"/>
      <point x="287" y="265"/>
      <point x="273" y="246"/>
      <point x="258" y="223" type="curve"/>
      <point x="332" y="179" type="line"/>
      <point x="403" y="213"/>
      <point x="444" y="261"/>
      <point x="444" y="333" type="curve" smooth="yes"/>
      <point x="444" y="400"/>
      <point x="398" y="435"/>
      <point x="340" y="461" type="curve" smooth="yes"/>
      <point x="273" y="491"/>
      <point x="257" y="501"/>
      <point x="257" y="528" type="curve" smooth="yes"/>
      <point x="257" y="552"/>
      <point x="274" y="568"/>
      <point x="313" y="568" type="curve" smooth="yes"/>
      <point x="344" y="568"/>
      <point x="378" y="557"/>
      <point x="404" y="538" type="curve"/>
      <point x="477" y="638" type="line"/>
      <point x="433" y="674"/>
      <point x="377" y="696"/>
    </contour>
    <contour>
      <point x="149" y="425" type="line"/>
      <point x="79" y="395"/>
      <point x="32" y="346"/>
      <point x="32" y="270" type="curve" smooth="yes"/>
      <point x="32" y="204"/>
      <point x="70" y="172"/>
      <point x="136" y="146" type="curve" smooth="yes"/>
      <point x="204" y="117"/>
      <point x="220" y="104"/>
      <point x="220" y="79" type="curve" smooth="yes"/>
      <point x="220" y="54"/>
      <point x="200" y="38"/>
      <point x="163" y="38" type="curve" smooth="yes"/>
      <point x="130" y="38"/>
      <point x="104" y="46"/>
      <point x="69" y="70" type="curve"/>
      <point x="-3" y="-32" type="line"/>
      <point x="38" y="-67"/>
      <point x="93" y="-89"/>
      <point x="165" y="-89" type="curve" smooth="yes"/>
      <point x="299" y="-89"/>
      <point x="391" y="-7"/>
      <point x="391" y="96" type="curve" smooth="yes"/>
      <point x="391" y="166"/>
      <point x="349" y="197"/>
      <point x="231" y="256" type="curve" smooth="yes"/>
      <point x="200" y="271"/>
      <point x="188" y="286"/>
      <point x="188" y="310" type="curve" smooth="yes"/>
      <point x="188" y="341"/>
      <point x="199" y="359"/>
      <point x="215" y="384" type="curve"/>
    </contour>
  </outline>
</glyph>
<glyph name="copyright" format="2">
  <advance width="670"/>
  <unicode hex="00A9"/>
  <outline>
    <contour>
      <point x="359" y="775" type="curve" smooth="yes"/>
      <point x="192" y="775"/>
      <point x="58" y="639"/>
      <point x="58" y="431" type="curve" smooth="yes"/>
      <point x="58" y="224"/>
      <point x="192" y="89"/>
      <point x="359" y="89" type="curve" smooth="yes"/>
      <point x="527" y="89"/>
      <point x="658" y="224"/>
      <point x="658" y="431" type="curve" smooth="yes"/>
      <point x="658" y="639"/>
      <point x="527" y="775"/>
    </contour>
    <contour>
      <point x="365" y="632" type="curve" smooth="yes"/>
      <point x="267" y="632"/>
      <point x="206" y="554"/>
      <point x="206" y="432" type="curve" smooth="yes"/>
      <point x="206" y="303"/>
      <point x="262" y="231"/>
      <point x="361" y="231" type="curve" smooth="yes"/>
      <point x="404" y="231"/>
      <point x="450" y="252"/>
      <point x="484" y="287" type="curve"/>
      <point x="435" y="357" type="line"/>
      <point x="416" y="340"/>
      <point x="402" y="331"/>
      <point x="381" y="331" type="curve" smooth="yes"/>
      <point x="352" y="331"/>
      <point x="330" y="352"/>
      <point x="330" y="432" type="curve" smooth="yes"/>
      <point x="330" y="507"/>
      <point x="351" y="533"/>
      <point x="377" y="533" type="curve" smooth="yes"/>
      <point x="395" y="533"/>
      <point x="407" y="529"/>
      <point x="431" y="512" type="curve"/>
      <point x="480" y="577" type="line"/>
      <point x="450" y="612"/>
      <point x="409" y="632"/>
    </contour>
    <contour>
      <point x="359" y="682" type="curve" smooth="yes"/>
      <point x="471" y="682"/>
      <point x="555" y="590"/>
      <point x="555" y="431" type="curve" smooth="yes"/>
      <point x="555" y="273"/>
      <point x="471" y="181"/>
      <point x="359" y="181" type="curve" smooth="yes"/>
      <point x="245" y="181"/>
      <point x="162" y="273"/>
      <point x="162" y="431" type="curve" smooth="yes"/>
      <point x="162" y="590"/>
      <point x="245" y="682"/>
    </contour>
  </outline>
</glyph>
<glyph name="ordfeminine" format="2">
  <advance width="488"/>
  <unicode hex="00AA"/>
  <outline>
    <contour>
      <point x="254" y="695" type="curve" smooth="yes"/>
      <point x="215" y="695"/>
      <point x="153" y="684"/>
      <point x="107" y="663" type="curve"/>
      <point x="124" y="558" type="line"/>
      <point x="161" y="571"/>
      <point x="197" y="579"/>
      <point x="215" y="579" type="curve" smooth="yes"/>
      <point x="240" y="579"/>
      <point x="250" y="575"/>
      <point x="250" y="555" type="curve" smooth="yes"/>
      <point x="250" y="549"/>
      <point x="248" y="543"/>
      <point x="248" y="535" type="curve" smooth="yes"/>
      <point x="248" y="530" type="line"/>
      <point x="237" y="530" type="line" smooth="yes"/>
      <point x="89" y="530"/>
      <point x="42" y="455"/>
      <point x="42" y="378" type="curve" smooth="yes"/>
      <point x="42" y="314"/>
      <point x="79" y="261"/>
      <point x="141" y="261" type="curve" smooth="yes"/>
      <point x="179" y="261"/>
      <point x="221" y="275"/>
      <point x="253" y="319" type="curve"/>
      <point x="275" y="283"/>
      <point x="307" y="267"/>
      <point x="352" y="265" type="curve"/>
      <point x="400" y="371" type="line"/>
      <point x="383" y="379"/>
      <point x="386" y="395"/>
      <point x="389" y="414" type="curve" smooth="yes"/>
      <point x="404" y="536" type="line" smooth="yes"/>
      <point x="406" y="550"/>
      <point x="408" y="567"/>
      <point x="408" y="578" type="curve" smooth="yes"/>
      <point x="408" y="657"/>
      <point x="361" y="695"/>
    </contour>
    <contour>
      <point x="235" y="444" type="line"/>
      <point x="230" y="395" type="line"/>
      <point x="226" y="386"/>
      <point x="220" y="378"/>
      <point x="215" y="378" type="curve" smooth="yes"/>
      <point x="209" y="378"/>
      <point x="208" y="385"/>
      <point x="208" y="396" type="curve" smooth="yes"/>
      <point x="208" y="432"/>
      <point x="222" y="444"/>
      <point x="238" y="444" type="curve" smooth="yes"/>
    </contour>
    <component base="minus" xScale="0.95" xOffset="-43" yOffset="-260"/>
  </outline>
</glyph>
<glyph name="logicalnot" format="2">
  <advance width="463"/>
  <unicode hex="00AC"/>
  <outline>
    <contour>
      <point x="451" y="404" type="line"/>
      <point x="50" y="404" type="line"/>
      <point x="30" y="259" type="line"/>
      <point x="270" y="259" type="line"/>
      <point x="249" y="100" type="line"/>
      <point x="406" y="100" type="line"/>
    </contour>
  </outline>
</glyph>
<glyph name="registered" format="2">
  <advance width="521"/>
  <unicode hex="00AE"/>
  <outline>
    <contour>
      <point x="293" y="764" type="curve" smooth="yes"/>
      <point x="150" y="764"/>
      <point x="46" y="653"/>
      <point x="46" y="480" type="curve" smooth="yes"/>
      <point x="46" y="309"/>
      <point x="150" y="199"/>
      <point x="293" y="199" type="curve" smooth="yes"/>
      <point x="433" y="199"/>
      <point x="535" y="309"/>
      <point x="535" y="480" type="curve" smooth="yes"/>
      <point x="535" y="653"/>
      <point x="433" y="764"/>
    </contour>
    <contour>
      <point x="342" y="480" type="line"/>
      <point x="279" y="463" type="line"/>
      <point x="327" y="348" type="line"/>
      <point x="408" y="348" type="line"/>
    </contour>
    <contour>
      <point x="293" y="689" type="curve" smooth="yes"/>
      <point x="385" y="689"/>
      <point x="451" y="617"/>
      <point x="451" y="480" type="curve" smooth="yes"/>
      <point x="451" y="344"/>
      <point x="385" y="274"/>
      <point x="293" y="274" type="curve" smooth="yes"/>
      <point x="198" y="274"/>
      <point x="130" y="344"/>
      <point x="130" y="480" type="curve" smooth="yes"/>
      <point x="130" y="617"/>
      <point x="198" y="689"/>
    </contour>
    <contour>
      <point x="270" y="633" type="curve" smooth="yes"/>
      <point x="195" y="633" type="line"/>
      <point x="195" y="348" type="line"/>
      <point x="267" y="348" type="line"/>
      <point x="267" y="575" type="line"/>
      <point x="290" y="575" type="line" smooth="yes"/>
      <point x="305" y="575"/>
      <point x="316" y="566"/>
      <point x="316" y="546" type="curve" smooth="yes"/>
      <point x="316" y="523"/>
      <point x="303" y="514"/>
      <point x="290" y="514" type="curve" smooth="yes"/>
      <point x="252" y="514" type="line"/>
      <point x="252" y="449" type="line"/>
      <point x="296" y="449" type="line"/>
      <point x="330" y="460" type="line"/>
      <point x="356" y="473"/>
      <point x="390" y="498"/>
      <point x="390" y="541" type="curve" smooth="yes"/>
      <point x="390" y="602"/>
      <point x="348" y="633"/>
    </contour>
  </outline>
</glyph>
<glyph name="degree" format="2">
  <advance width="413"/>
  <unicode hex="00B0"/>
  <outline>
    <contour>
      <point x="193" y="363" type="curve"/>
      <point x="298" y="363"/>
      <point x="373" y="451"/>
      <point x="373" y="569" type="curve" smooth="yes"/>
      <point x="373" y="665"/>
      <point x="312" y="716"/>
      <point x="237" y="716" type="curve"/>
      <point x="132" y="716"/>
      <point x="58" y="628"/>
      <point x="58" y="510" type="curve" smooth="yes"/>
      <point x="58" y="414"/>
      <point x="118" y="363"/>
    </contour>
    <contour>
      <point x="204" y="466" type="curve"/>
      <point x="184" y="466"/>
      <point x="175" y="480"/>
      <point x="175" y="513" type="curve" smooth="yes"/>
      <point x="175" y="558"/>
      <point x="187" y="613"/>
      <point x="227" y="613" type="curve"/>
      <point x="247" y="613"/>
      <point x="256" y="599"/>
      <point x="256" y="566" type="curve" smooth="yes"/>
      <point x="256" y="521"/>
      <point x="244" y="466"/>
    </contour>
  </outline>
</glyph>
<glyph name="paragraph" format="2">
  <advance width="683"/>
  <unicode hex="00B6"/>
  <outline>
    <contour>
      <point x="677" y="696" type="line"/>
      <point x="334" y="696" type="line"/>
      <point x="299" y="661" type="line"/>
      <point x="174" y="-227" type="line"/>
      <point x="331" y="-207" type="line"/>
      <point x="438" y="568" type="line"/>
      <point x="501" y="568" type="line"/>
      <point x="393" y="-227" type="line"/>
      <point x="550" y="-207" type="line"/>
    </contour>
    <contour>
      <point x="334" y="696" type="line"/>
      <point x="170" y="696"/>
      <point x="63" y="595"/>
      <point x="63" y="433" type="curve" smooth="yes"/>
      <point x="63" y="322"/>
      <point x="131" y="250"/>
      <point x="255" y="254" type="curve"/>
    </contour>
  </outline>
</glyph>
<glyph name="ordmasculine" format="2">
  <advance width="418"/>
  <unicode hex="00BA"/>
  <outline>
    <contour>
      <point x="265" y="696" type="curve" smooth="yes"/>
      <point x="120" y="696"/>
      <point x="45" y="580"/>
      <point x="45" y="428" type="curve" smooth="yes"/>
      <point x="45" y="311"/>
      <point x="109" y="261"/>
      <point x="210" y="261" type="curve" smooth="yes"/>
      <point x="355" y="261"/>
      <point x="430" y="379"/>
      <point x="430" y="529" type="curve" smooth="yes"/>
      <point x="430" y="646"/>
      <point x="366" y="696"/>
    </contour>
    <contour>
      <point x="255" y="580" type="curve"/>
      <point x="266" y="580"/>
      <point x="273" y="573"/>
      <point x="273" y="551" type="curve" smooth="yes"/>
      <point x="273" y="490"/>
      <point x="258" y="377"/>
      <point x="221" y="377" type="curve"/>
      <point x="210" y="377"/>
      <point x="204" y="384"/>
      <point x="204" y="406" type="curve" smooth="yes"/>
      <point x="204" y="469"/>
      <point x="216" y="580"/>
    </contour>
    <component base="minus" xOffset="-49" yOffset="-260"/>
  </outline>
</glyph>
<glyph name="questiondown" format="2">
  <advance width="417"/>
  <unicode hex="00BF"/>
  <outline>
    <contour>
      <point x="143" y="-227" type="curve" smooth="yes"/>
      <point x="237" y="-227"/>
      <point x="308" y="-183"/>
      <point x="361" y="-117" type="curve"/>
      <point x="265" y="-27" type="line"/>
      <point x="232" y="-61"/>
      <point x="205" y="-79"/>
      <point x="182" y="-79" type="curve" smooth="yes"/>
      <point x="164" y="-79"/>
      <point x="155" y="-70"/>
      <point x="155" y="-53" type="curve" smooth="yes"/>
      <point x="155" y="29"/>
      <point x="311" y="31"/>
      <point x="311" y="194" type="curve" smooth="yes"/>
      <point x="311" y="218"/>
      <point x="306" y="235"/>
      <point x="302" y="249" type="curve"/>
      <point x="138" y="224" type="line"/>
      <point x="139" y="219"/>
      <point x="140" y="212"/>
      <point x="140" y="197" type="curve" smooth="yes"/>
      <point x="140" y="103"/>
      <point x="-43" y="103"/>
      <point x="-43" y="-66" type="curve" smooth="yes"/>
      <point x="-43" y="-155"/>
      <point x="22" y="-227"/>
    </contour>
    <component base="period" xScale="-1" yScale="-1" xOffset="311" yOffset="489"/>
  </outline>
</glyph>
<glyph name="AE" format="2">
  <advance width="713"/>
  <unicode hex="00C6"/>
  <anchor x="322" y="0" name="bottom"/>
  <anchor x="464" y="696" name="top"/>
  <outline>
    <contour>
      <point x="739" y="696" type="line"/>
      <point x="247" y="696" type="line"/>
      <point x="-56" y="0" type="line"/>
      <point x="155" y="0" type="line"/>
      <point x="349" y="555" type="line"/>
      <point x="324" y="0" type="line"/>
      <point x="668" y="0" type="line"/>
      <point x="690" y="139" type="line"/>
      <point x="503" y="139" type="line"/>
      <point x="515" y="559" type="line"/>
      <point x="698" y="559" type="line"/>
    </contour>
    <contour>
      <point x="343" y="277" type="line"/>
      <point x="248" y="277" type="line"/>
      <point x="187" y="138" type="line"/>
      <point x="336" y="138" type="line"/>
    </contour>
    <contour>
      <point x="694" y="418" type="line"/>
      <point x="495" y="418" type="line"/>
      <point x="497" y="284" type="line"/>
      <point x="673" y="284" type="line"/>
    </contour>
  </outline>
</glyph>
<glyph name="Eth" format="2">
  <advance width="558"/>
  <unicode hex="00D0"/>
  <anchor x="229" y="0" name="bottom"/>
  <anchor x="292" y="348" name="center"/>
  <anchor x="306" y="696" name="top"/>
  <outline>
    <contour>
      <point x="336" y="409" type="line"/>
      <point x="55" y="409" type="line"/>
      <point x="27" y="409" type="line"/>
      <point x="9" y="297" type="line"/>
      <point x="318" y="297" type="line"/>
    </contour>
    <component base="D" xOffset="8"/>
  </outline>
</glyph>
<glyph name="multiply" format="2">
  <advance width="443"/>
  <unicode hex="00D7"/>
  <outline>
    <contour>
      <point x="346" y="522" type="line"/>
      <point x="238" y="397" type="line"/>
      <point x="158" y="522" type="line"/>
      <point x="44" y="433" type="line"/>
      <point x="133" y="304" type="line"/>
      <point x="18" y="182" type="line"/>
      <point x="110" y="90" type="line"/>
      <point x="214" y="211" type="line"/>
      <point x="296" y="90" type="line"/>
      <point x="410" y="179" type="line"/>
      <point x="319" y="304" type="line"/>
      <point x="438" y="430" type="line"/>
    </contour>
  </outline>
</glyph>
<glyph name="Oslash" format="2">
  <advance width="581"/>
  <unicode hex="00D8"/>
  <anchor x="251" y="0" name="bottom"/>
  <anchor x="358" y="738" name="top"/>
  <outline>
    <contour>
      <point x="413" y="832" type="line"/>
      <point x="368" y="707" type="line"/>
      <point x="344" y="596" type="line"/>
      <point x="200" y="163" type="line"/>
      <point x="101" y="33" type="line"/>
      <point x="54" y="-100" type="line"/>
      <point x="188" y="-138" type="line"/>
      <point x="232" y="-11" type="line"/>
      <point x="263" y="108" type="line"/>
      <point x="407" y="538" type="line"/>
      <point x="500" y="663" type="line"/>
      <point x="545" y="793" type="line"/>
    </contour>
    <contour>
      <point x="349" y="716" type="curve" smooth="yes"/>
      <point x="124" y="716"/>
      <point x="23" y="496"/>
      <point x="23" y="246" type="curve" smooth="yes"/>
      <point x="23" y="78"/>
      <point x="106" y="-20"/>
      <point x="254" y="-20" type="curve" smooth="yes"/>
      <point x="478" y="-20"/>
      <point x="581" y="201"/>
      <point x="581" y="451" type="curve" smooth="yes"/>
      <point x="581" y="619"/>
      <point x="497" y="716"/>
    </contour>
    <contour>
      <point x="337" y="578" type="curve" smooth="yes"/>
      <point x="379" y="578"/>
      <point x="394" y="554"/>
      <point x="394" y="489" type="curve" smooth="yes"/>
      <point x="394" y="352"/>
      <point x="364" y="117"/>
      <point x="266" y="117" type="curve" smooth="yes"/>
      <point x="224" y="117"/>
      <point x="209" y="139"/>
      <point x="209" y="202" type="curve" smooth="yes"/>
      <point x="209" y="334"/>
      <point x="241" y="578"/>
    </contour>
  </outline>
</glyph>
<glyph name="Thorn" format="2">
  <advance width="507"/>
  <unicode hex="00DE"/>
  <anchor x="219" y="0" name="bottom"/>
  <anchor x="317" y="696" name="top"/>
  <outline>
    <contour>
      <point x="273" y="591" type="curve" smooth="yes"/>
      <point x="151" y="591" type="line"/>
      <point x="143" y="454" type="line"/>
      <point x="263" y="454" type="line" smooth="yes"/>
      <point x="302" y="454"/>
      <point x="319" y="437"/>
      <point x="319" y="387" type="curve" smooth="yes"/>
      <point x="319" y="310"/>
      <point x="298" y="247"/>
      <point x="230" y="247" type="curve" smooth="yes"/>
      <point x="208" y="247" type="line"/>
      <point x="188" y="108" type="line"/>
      <point x="232" y="108" type="line" smooth="yes"/>
      <point x="408" y="108"/>
      <point x="516" y="220"/>
      <point x="516" y="390" type="curve" smooth="yes"/>
      <point x="516" y="524"/>
      <point x="431" y="591"/>
    </contour>
    <contour>
      <point x="282" y="696" type="line"/>
      <point x="88" y="696" type="line"/>
      <point x="-9" y="0" type="line"/>
      <point x="185" y="0" type="line"/>
    </contour>
  </outline>
</glyph>
<glyph name="germandbls" format="2">
  <advance width="505"/>
  <unicode hex="00DF"/>
  <outline>
    <contour>
      <point x="-73" y="-226" type="line"/>
      <point x="43" y="-182"/>
      <point x="157" y="-112"/>
      <point x="183" y="73" type="curve" smooth="yes"/>
      <point x="245" y="536" type="line" smooth="yes"/>
      <point x="253" y="598"/>
      <point x="262" y="633"/>
      <point x="287" y="633" type="curve" smooth="yes"/>
      <point x="298" y="633"/>
      <point x="307" y="625"/>
      <point x="307" y="604" type="curve" smooth="yes"/>
      <point x="307" y="512"/>
      <point x="245" y="484"/>
      <point x="245" y="387" type="curve" smooth="yes"/>
      <point x="245" y="286"/>
      <point x="302" y="258"/>
      <point x="302" y="180" type="curve" smooth="yes"/>
      <point x="302" y="146"/>
      <point x="294" y="125"/>
      <point x="275" y="125" type="curve" smooth="yes"/>
      <point x="267" y="125"/>
      <point x="261" y="127"/>
      <point x="252" y="132" type="curve"/>
      <point x="193" y="3" type="line"/>
      <point x="219" y="-11"/>
      <point x="251" y="-19"/>
      <point x="286" y="-19" type="curve" smooth="yes"/>
      <point x="436" y="-19"/>
      <point x="492" y="89"/>
      <point x="492" y="195" type="curve" smooth="yes"/>
      <point x="492" y="342"/>
      <point x="404" y="360"/>
      <point x="404" y="423" type="curve" smooth="yes"/>
      <point x="404" y="491"/>
      <point x="480" y="514"/>
      <point x="480" y="620" type="curve" smooth="yes"/>
      <point x="480" y="700"/>
      <point x="423" y="764"/>
      <point x="309" y="764" type="curve" smooth="yes"/>
      <point x="166" y="764"/>
      <point x="79" y="676"/>
      <point x="59" y="531" type="curve" smooth="yes"/>
      <point x="-7" y="43" type="line" smooth="yes"/>
      <point x="-18" y="-33"/>
      <point x="-55" y="-65"/>
      <point x="-114" y="-90" type="curve"/>
    </contour>
  </outline>
</glyph>
<glyph name="ae" format="2">
  <advance width="713"/>
  <unicode hex="00E6"/>
  <anchor x="291" y="0" name="bottom"/>
  <anchor x="392" y="534" name="top"/>
  <outline>
    <contour>
      <point x="255" y="553" type="curve" smooth="yes"/>
      <point x="208" y="553"/>
      <point x="144" y="539"/>
      <point x="82" y="513" type="curve"/>
      <point x="104" y="391" type="line"/>
      <point x="150" y="409"/>
      <point x="188" y="416"/>
      <point x="220" y="416" type="curve" smooth="yes"/>
      <point x="253" y="416"/>
      <point x="280" y="403"/>
      <point x="285" y="373" type="curve"/>
      <point x="279" y="359"/>
      <point x="274" y="344"/>
      <point x="270" y="328" type="curve"/>
      <point x="244" y="328" type="line" smooth="yes"/>
      <point x="38" y="328"/>
      <point x="-6" y="219"/>
      <point x="-6" y="123" type="curve" smooth="yes"/>
      <point x="-6" y="38"/>
      <point x="49" y="-19"/>
      <point x="134" y="-19" type="curve" smooth="yes"/>
      <point x="186" y="-19"/>
      <point x="238" y="-3"/>
      <point x="287" y="56" type="curve"/>
      <point x="323" y="4"/>
      <point x="383" y="-21"/>
      <point x="460" y="-20" type="curve" smooth="yes"/>
      <point x="543" y="-20"/>
      <point x="610" y="13"/>
      <point x="660" y="56" type="curve"/>
      <point x="599" y="162" type="line"/>
      <point x="558" y="133"/>
      <point x="528" y="116"/>
      <point x="491" y="116" type="curve" smooth="yes"/>
      <point x="448" y="116"/>
      <point x="435" y="139"/>
      <point x="435" y="191" type="curve"/>
      <point x="566" y="206"/>
      <point x="714" y="255"/>
      <point x="720" y="403" type="curve" smooth="yes"/>
      <point x="723" y="491"/>
      <point x="654" y="554"/>
      <point x="541" y="554" type="curve" smooth="yes"/>
      <point x="474" y="554"/>
      <point x="419" y="535"/>
      <point x="376" y="501" type="curve"/>
      <point x="348" y="533"/>
      <point x="314" y="553"/>
    </contour>
    <contour>
      <point x="254" y="224" type="line"/>
      <point x="254" y="212"/>
      <point x="252" y="180"/>
      <point x="254" y="157" type="curve"/>
      <point x="239" y="132"/>
      <point x="226" y="114"/>
      <point x="212" y="114" type="curve" smooth="yes"/>
      <point x="194" y="114"/>
      <point x="189" y="131"/>
      <point x="189" y="153" type="curve" smooth="yes"/>
      <point x="189" y="200"/>
      <point x="210" y="224"/>
      <point x="240" y="224" type="curve" smooth="yes"/>
    </contour>
    <contour>
      <point x="518" y="432" type="curve" smooth="yes"/>
      <point x="534" y="432"/>
      <point x="542" y="422"/>
      <point x="542" y="404" type="curve" smooth="yes"/>
      <point x="542" y="367"/>
      <point x="522" y="306"/>
      <point x="446" y="299" type="curve"/>
      <point x="458" y="369"/>
      <point x="482" y="432"/>
    </contour>
  </outline>
</glyph>
<glyph name="eth" format="2">
  <advance width="495"/>
  <unicode hex="00F0"/>
  <anchor x="204" y="0" name="bottom"/>
  <anchor x="258" y="744" name="top"/>
  <outline>
    <contour>
      <point x="151" y="762" type="curve"/>
      <point x="102" y="646" type="line"/>
      <point x="123" y="641"/>
      <point x="177" y="627"/>
      <point x="220" y="607" type="curve"/>
      <point x="283" y="551"/>
      <point x="302" y="509"/>
      <point x="309" y="432" type="curve"/>
      <point x="299" y="343" type="line"/>
      <point x="285" y="216"/>
      <point x="276" y="116"/>
      <point x="223" y="116" type="curve" smooth="yes"/>
      <point x="202" y="116"/>
      <point x="190" y="128"/>
      <point x="190" y="171" type="curve" smooth="yes"/>
      <point x="190" y="233"/>
      <point x="208" y="352"/>
      <point x="261" y="352" type="curve" smooth="yes"/>
      <point x="278" y="352"/>
      <point x="293" y="340"/>
      <point x="305" y="317" type="curve"/>
      <point x="314" y="434" type="line"/>
      <point x="288" y="463"/>
      <point x="260" y="481"/>
      <point x="211" y="481" type="curve" smooth="yes"/>
      <point x="94" y="481"/>
      <point x="6" y="321"/>
      <point x="6" y="188" type="curve" smooth="yes"/>
      <point x="6" y="56"/>
      <point x="87" y="-19"/>
      <point x="204" y="-19" type="curve" smooth="yes"/>
      <point x="390" y="-19"/>
      <point x="485" y="168"/>
      <point x="485" y="383" type="curve" smooth="yes"/>
      <point x="485" y="515"/>
      <point x="440" y="621"/>
      <point x="324" y="705" type="curve"/>
      <point x="236" y="741"/>
      <point x="196" y="754"/>
    </contour>
    <contour>
      <point x="344" y="808" type="line"/>
      <point x="261" y="719" type="line"/>
      <point x="175" y="637" type="line"/>
      <point x="114" y="575" type="line"/>
      <point x="210" y="522" type="line"/>
      <point x="265" y="580" type="line"/>
      <point x="362" y="665" type="line"/>
      <point x="424" y="736" type="line"/>
    </contour>
  </outline>
</glyph>
<glyph name="oslash" format="2">
  <advance width="494"/>
  <unicode hex="00F8"/>
  <anchor x="211" y="0" name="bottom"/>
  <anchor x="286" y="534" name="top"/>
  <outline>
    <contour>
      <point x="210" y="-20" type="curve" smooth="yes"/>
      <point x="392" y="-20"/>
      <point x="484" y="144"/>
      <point x="484" y="337" type="curve" smooth="yes"/>
      <point x="484" y="477"/>
      <point x="405" y="554"/>
      <point x="284" y="554" type="curve" smooth="yes"/>
      <point x="101" y="554"/>
      <point x="10" y="388"/>
      <point x="10" y="196" type="curve" smooth="yes"/>
      <point x="10" y="56"/>
      <point x="88" y="-20"/>
    </contour>
    <contour>
      <point x="224" y="101" type="curve" smooth="yes"/>
      <point x="186" y="101"/>
      <point x="177" y="118"/>
      <point x="177" y="167" type="curve" smooth="yes"/>
      <point x="177" y="292"/>
      <point x="207" y="432"/>
      <point x="270" y="432" type="curve" smooth="yes"/>
      <point x="308" y="432"/>
      <point x="317" y="415"/>
      <point x="317" y="367" type="curve" smooth="yes"/>
      <point x="317" y="242"/>
      <point x="286" y="101"/>
    </contour>
    <contour>
      <point x="82" y="27" type="line"/>
      <point x="31" y="-98" type="line"/>
      <point x="154" y="-137" type="line"/>
      <point x="200" y="-18" type="line"/>
      <point x="235" y="118" type="line"/>
      <point x="318" y="370" type="line"/>
      <point x="412" y="506" type="line"/>
      <point x="462" y="632" type="line"/>
      <point x="338" y="672" type="line"/>
      <point x="294" y="552" type="line"/>
      <point x="261" y="416" type="line"/>
      <point x="175" y="156" type="line"/>
    </contour>
  </outline>
</glyph>
<glyph name="thorn" format="2">
  <advance width="498"/>
  <unicode hex="00FE"/>
  <anchor x="314" y="744" name="top"/>
  <outline>
    <contour>
      <point x="359" y="554" type="curve" smooth="yes"/>
      <point x="311" y="554"/>
      <point x="266" y="531"/>
      <point x="242" y="496" type="curve"/>
      <point x="280" y="763" type="line"/>
      <point x="91" y="744" type="line"/>
      <point x="-45" y="-226" type="line"/>
      <point x="143" y="-207" type="line"/>
      <point x="171" y="-12" type="line"/>
      <point x="191" y="-17"/>
      <point x="213" y="-20"/>
      <point x="236" y="-20" type="curve" smooth="yes"/>
      <point x="409" y="-20"/>
      <point x="486" y="150"/>
      <point x="486" y="376" type="curve" smooth="yes"/>
      <point x="486" y="491"/>
      <point x="441" y="554"/>
    </contour>
    <contour>
      <point x="217" y="114" type="curve" smooth="yes"/>
      <point x="208" y="114"/>
      <point x="200" y="116"/>
      <point x="189" y="121" type="curve"/>
      <point x="226" y="378" type="line"/>
      <point x="243" y="404"/>
      <point x="260" y="417"/>
      <point x="274" y="417" type="curve" smooth="yes"/>
      <point x="287" y="417"/>
      <point x="298" y="410"/>
      <point x="298" y="367" type="curve" smooth="yes"/>
      <point x="298" y="283"/>
      <point x="277" y="114"/>
    </contour>
  </outline>
</glyph>
<glyph name="dcroat" format="2">
  <advance width="505"/>
  <unicode hex="0111"/>
  <anchor x="218" y="0" name="bottom"/>
  <anchor x="249" y="267" name="center"/>
  <anchor x="311" y="744" name="top"/>
  <anchor x="546" y="744" name="topright"/>
  <outline>
    <contour>
      <point x="567" y="694" type="line"/>
      <point x="250" y="694" type="line"/>
      <point x="246" y="591" type="line"/>
      <point x="516" y="591" type="line"/>
      <point x="551" y="591" type="line"/>
    </contour>
    <component base="d"/>
  </outline>
</glyph>
<glyph name="Hbar" format="2">
  <advance width="552"/>
  <unicode hex="0126"/>
  <anchor x="237" y="0" name="bottom"/>
  <anchor x="488" y="0" name="bottomright"/>
  <anchor x="290" y="348" name="center"/>
  <anchor x="338" y="696" name="top"/>
  <anchor x="105" y="696" name="topleft"/>
  <outline>
    <contour>
      <point x="599" y="599" type="line"/>
      <point x="563" y="599" type="line"/>
      <point x="47" y="599" type="line"/>
      <point x="33" y="496" type="line"/>
      <point x="69" y="496" type="line"/>
      <point x="584" y="496" type="line"/>
    </contour>
    <component base="H" xOffset="10"/>
  </outline>
</glyph>
<glyph name="hbar" format="2">
  <advance width="474"/>
  <unicode hex="0127"/>
  <anchor x="206" y="0" name="bottom"/>
  <anchor x="241" y="267" name="center"/>
  <anchor x="308" y="744" name="top"/>
  <outline>
    <contour>
      <point x="380" y="694" type="line"/>
      <point x="60" y="694" type="line"/>
      <point x="44" y="591" type="line"/>
      <point x="79" y="591" type="line"/>
      <point x="350" y="591" type="line"/>
    </contour>
    <component base="h" xOffset="9"/>
  </outline>
</glyph>
<glyph name="dotlessi" format="2">
  <advance width="236"/>
  <unicode hex="0131"/>
  <anchor x="81" y="0" name="bottom"/>
  <anchor x="138" y="0" name="ogonek"/>
  <anchor x="155" y="534" name="top"/>
  <outline>
    <contour>
      <point x="248" y="534" type="line"/>
      <point x="62" y="534" type="line"/>
      <point x="-12" y="0" type="line"/>
      <point x="174" y="0" type="line"/>
    </contour>
  </outline>
</glyph>
<glyph name="kgreenlandic" format="2">
  <advance width="473"/>
  <unicode hex="0138"/>
  <anchor x="205" y="0" name="bottom"/>
  <anchor x="280" y="533" name="top"/>
  <outline>
    <contour>
      <point x="536" y="533" type="line"/>
      <point x="344" y="533" type="line"/>
      <point x="218" y="282" type="line"/>
      <point x="265" y="0" type="line"/>
      <point x="465" y="0" type="line"/>
      <point x="405" y="284" type="line"/>
    </contour>
    <contour>
      <point x="250" y="533" type="line"/>
      <point x="63" y="533" type="line"/>
      <point x="-11" y="0" type="line"/>
      <point x="176" y="0" type="line"/>
    </contour>
  </outline>
</glyph>
<glyph name="Lslash" format="2">
  <advance width="476"/>
  <unicode hex="0141"/>
  <anchor x="229" y="0" name="bottom"/>
  <anchor x="402" y="403" name="center"/>
  <anchor x="233" y="696" name="top"/>
  <anchor x="344" y="696" name="topright"/>
  <outline>
    <contour>
      <point x="67" y="209" type="line"/>
      <point x="425" y="439" type="line"/>
      <point x="379" y="528" type="line"/>
      <point x="-4" y="281" type="line"/>
      <point x="42" y="192" type="line"/>
    </contour>
    <component base="L" xOffset="48"/>
  </outline>
</glyph>
<glyph name="lslash" format="2">
  <advance width="311"/>
  <unicode hex="0142"/>
  <anchor x="150" y="0" name="bottom"/>
  <anchor x="391" y="374" name="center"/>
  <anchor x="217" y="744" name="top"/>
  <anchor x="328" y="744" name="topright"/>
  <outline>
    <contour>
      <point x="321" y="539" type="line"/>
      <point x="-9" y="333" type="line"/>
      <point x="20" y="231" type="line"/>
      <point x="347" y="434" type="line"/>
    </contour>
    <component base="l" xOffset="39"/>
  </outline>
</glyph>
<glyph name="napostrophe" format="2">
  <advance width="586"/>
  <unicode hex="0149"/>
  <anchor x="318" y="0" name="bottom"/>
  <anchor x="395" y="534" name="top"/>
  <anchor x="176" y="534" name="topleft"/>
  <outline>
    <contour>
      <point x="160" y="763" type="curve" smooth="yes"/>
      <point x="117" y="763"/>
      <point x="84" y="729"/>
      <point x="84" y="679" type="curve" smooth="yes"/>
      <point x="84" y="657"/>
      <point x="93" y="642"/>
      <point x="108" y="632" type="curve"/>
      <point x="77" y="535" type="line"/>
      <point x="148" y="535" type="line"/>
      <point x="194" y="615" type="line" smooth="yes"/>
      <point x="213" y="650"/>
      <point x="224" y="671"/>
      <point x="224" y="700" type="curve" smooth="yes"/>
      <point x="224" y="737"/>
      <point x="198" y="763"/>
    </contour>
    <component base="n" xOffset="120"/>
  </outline>
</glyph>
<glyph name="OE" format="2">
  <advance width="744"/>
  <unicode hex="0152"/>
  <anchor x="338" y="0" name="bottom"/>
  <anchor x="436" y="696" name="top"/>
  <outline>
    <contour>
      <point x="339" y="716" type="curve" smooth="yes"/>
      <point x="124" y="716"/>
      <point x="23" y="496"/>
      <point x="23" y="246" type="curve" smooth="yes"/>
      <point x="23" y="68"/>
      <point x="101" y="-20"/>
      <point x="236" y="-20" type="curve" smooth="yes"/>
      <point x="314" y="-20"/>
      <point x="370" y="8"/>
      <point x="420" y="65" type="curve"/>
      <point x="518" y="151"/>
      <point x="561" y="290"/>
      <point x="561" y="451" type="curve" smooth="yes"/>
      <point x="561" y="545"/>
      <point x="529" y="604"/>
      <point x="477" y="658" type="curve"/>
      <point x="460" y="697"/>
      <point x="406" y="716"/>
    </contour>
    <contour>
      <point x="327" y="575" type="curve" smooth="yes"/>
      <point x="353" y="575"/>
      <point x="364" y="551"/>
      <point x="364" y="489" type="curve" smooth="yes"/>
      <point x="364" y="352"/>
      <point x="334" y="120"/>
      <point x="256" y="120" type="curve" smooth="yes"/>
      <point x="231" y="120"/>
      <point x="219" y="142"/>
      <point x="219" y="202" type="curve" smooth="yes"/>
      <point x="219" y="334"/>
      <point x="251" y="575"/>
    </contour>
    <contour>
      <point x="718" y="139" type="line"/>
      <point x="475" y="139" type="line"/>
      <point x="323" y="0" type="line"/>
      <point x="695" y="0" type="line"/>
    </contour>
    <contour>
      <point x="721" y="420" type="line"/>
      <point x="543" y="420" type="line"/>
      <point x="533" y="286" type="line"/>
      <point x="701" y="286" type="line"/>
    </contour>
    <contour>
      <point x="799" y="696" type="line"/>
      <point x="377" y="696" type="line"/>
      <point x="492" y="559" type="line"/>
      <point x="758" y="559" type="line"/>
    </contour>
  </outline>
</glyph>
<glyph name="oe" format="2">
  <advance width="747"/>
  <unicode hex="0153"/>
  <anchor x="355" y="0" name="bottom"/>
  <anchor x="408" y="534" name="top"/>
  <outline>
    <contour>
      <point x="279" y="554" type="curve" smooth="yes"/>
      <point x="101" y="554"/>
      <point x="10" y="388"/>
      <point x="10" y="196" type="curve" smooth="yes"/>
      <point x="10" y="46"/>
      <point x="91" y="-20"/>
      <point x="197" y="-20" type="curve" smooth="yes"/>
      <point x="362" y="-20"/>
      <point x="444" y="144"/>
      <point x="464" y="337" type="curve"/>
      <point x="444" y="497"/>
      <point x="382" y="554"/>
    </contour>
    <contour>
      <point x="270" y="417" type="curve" smooth="yes"/>
      <point x="288" y="417"/>
      <point x="297" y="405"/>
      <point x="297" y="367" type="curve" smooth="yes"/>
      <point x="297" y="277"/>
      <point x="276" y="116"/>
      <point x="224" y="116" type="curve" smooth="yes"/>
      <point x="206" y="116"/>
      <point x="197" y="128"/>
      <point x="197" y="167" type="curve" smooth="yes"/>
      <point x="197" y="257"/>
      <point x="217" y="417"/>
    </contour>
    <contour>
      <point x="581" y="554" type="curve" smooth="yes"/>
      <point x="404" y="554"/>
      <point x="341" y="398"/>
      <point x="297" y="196" type="curve"/>
      <point x="314" y="56"/>
      <point x="387" y="-21"/>
      <point x="500" y="-20" type="curve"/>
      <point x="577" y="-20"/>
      <point x="644" y="13"/>
      <point x="694" y="56" type="curve"/>
      <point x="633" y="162" type="line"/>
      <point x="592" y="133"/>
      <point x="562" y="116"/>
      <point x="525" y="116" type="curve" smooth="yes"/>
      <point x="487" y="116"/>
      <point x="469" y="138"/>
      <point x="469" y="177" type="curve" smooth="yes"/>
      <point x="469" y="287"/>
      <point x="493" y="432"/>
      <point x="552" y="432" type="curve" smooth="yes"/>
      <point x="568" y="432"/>
      <point x="576" y="422"/>
      <point x="576" y="404" type="curve" smooth="yes"/>
      <point x="576" y="366"/>
      <point x="555" y="303"/>
      <point x="474" y="299" type="curve"/>
      <point x="457" y="190" type="line"/>
      <point x="591" y="203"/>
      <point x="748" y="250"/>
      <point x="754" y="403" type="curve" smooth="yes"/>
      <point x="757" y="491"/>
      <point x="688" y="554"/>
    </contour>
  </outline>
</glyph>
<glyph name="Tbar" format="2">
  <advance width="457"/>
  <unicode hex="0166"/>
  <anchor x="191" y="0" name="bottom"/>
  <anchor x="297" y="0" name="bottomright"/>
  <anchor x="240" y="348" name="center"/>
  <anchor x="289" y="696" name="top"/>
  <outline>
    <contour>
      <point x="429" y="391" type="line"/>
      <point x="343" y="391" type="line"/>
      <point x="63" y="391" type="line"/>
      <point x="48" y="288" type="line"/>
      <point x="134" y="288" type="line"/>
      <point x="414" y="288" type="line"/>
    </contour>
    <component base="T"/>
  </outline>
</glyph>
<glyph name="tbar" format="2">
  <advance width="333"/>
  <unicode hex="0167"/>
  <anchor x="161" y="0" name="bottom"/>
  <anchor x="165" y="267" name="center"/>
  <anchor x="198" y="650" name="top"/>
  <anchor x="306" y="805" name="topright"/>
  <outline>
    <contour>
      <point x="319" y="363" type="line"/>
      <point x="57" y="363" type="line"/>
      <point x="17" y="363" type="line"/>
      <point x="-1" y="243" type="line"/>
      <point x="280" y="243" type="line"/>
    </contour>
    <component base="t"/>
  </outline>
</glyph>
<glyph name="bstroke" format="2">
  <advance width="504"/>
  <unicode hex="0180"/>
  <anchor x="210" y="0" name="bottom"/>
  <anchor x="358" y="744" name="top"/>
  <outline>
    <contour>
      <point x="380" y="694" type="line"/>
      <point x="60" y="694" type="line"/>
      <point x="44" y="591" type="line"/>
      <point x="79" y="591" type="line"/>
      <point x="350" y="591" type="line"/>
    </contour>
    <component base="b" xOffset="9"/>
  </outline>
</glyph>
<glyph name="btopbar" format="2">
  <advance width="482"/>
  <unicode hex="0183"/>
  <anchor x="211" y="0" name="bottom"/>
  <anchor x="315" y="744" name="top"/>
  <outline>
    <contour>
      <point x="258" y="610" type="line"/>
      <point x="412" y="610" type="line"/>
      <point x="453" y="744" type="line"/>
      <point x="98" y="744" type="line"/>
    </contour>
    <contour>
      <point x="279" y="744" type="line"/>
      <point x="94" y="744" type="line"/>
      <point x="-6" y="29" type="line"/>
      <point x="49" y="-1"/>
      <point x="121" y="-19"/>
      <point x="200" y="-19" type="curve" smooth="yes"/>
      <point x="448" y="-19"/>
      <point x="489" y="204"/>
      <point x="489" y="338" type="curve" smooth="yes"/>
      <point x="489" y="463"/>
      <point x="449" y="534"/>
      <point x="360" y="534" type="curve" smooth="yes"/>
      <point x="319" y="534"/>
      <point x="267" y="510"/>
      <point x="240" y="473" type="curve"/>
    </contour>
    <contour>
      <point x="275" y="398" type="curve" smooth="yes"/>
      <point x="287" y="398"/>
      <point x="299" y="385"/>
      <point x="299" y="327" type="curve" smooth="yes"/>
      <point x="299" y="257"/>
      <point x="280" y="116"/>
      <point x="226" y="116" type="curve" smooth="yes"/>
      <point x="213" y="116"/>
      <point x="200" y="121"/>
      <point x="195" y="127" type="curve"/>
      <point x="221" y="343" type="line"/>
      <point x="239" y="380"/>
      <point x="260" y="398"/>
    </contour>
  </outline>
</glyph>
<glyph name="Tonesix" format="2">
  <advance width="517"/>
  <unicode hex="0184"/>
  <anchor x="227" y="0" name="bottom"/>
  <anchor x="326" y="695" name="top"/>
  <outline>
    <contour>
      <point x="12" y="0" type="line"/>
      <point x="261" y="0" type="line" smooth="yes"/>
      <point x="446" y="0"/>
      <point x="521" y="150"/>
      <point x="521" y="280" type="curve" smooth="yes"/>
      <point x="521" y="402"/>
      <point x="448" y="467"/>
      <point x="316" y="467" type="curve" smooth="yes"/>
      <point x="260" y="467" type="line"/>
      <point x="239" y="333" type="line"/>
      <point x="272" y="333" type="line" smooth="yes"/>
      <point x="307" y="333"/>
      <point x="318" y="305"/>
      <point x="318" y="264" type="curve" smooth="yes"/>
      <point x="318" y="219"/>
      <point x="306" y="140"/>
      <point x="252" y="140" type="curve" smooth="yes"/>
      <point x="228" y="140" type="line"/>
      <point x="303" y="695" type="line"/>
      <point x="145" y="695" type="line"/>
      <point x="76" y="475" type="line"/>
    </contour>
    <contour>
      <point x="76" y="475" type="line"/>
      <point x="145" y="695" type="line"/>
      <point x="109" y="634"/>
      <point x="67" y="577"/>
      <point x="17" y="531" type="curve"/>
    </contour>
  </outline>
</glyph>
<glyph name="tonesix" format="2">
  <advance width="452"/>
  <unicode hex="0185"/>
  <anchor x="195" y="0" name="bottom"/>
  <anchor x="270" y="533" name="top"/>
  <outline>
    <contour>
      <point x="62" y="323" type="line"/>
      <point x="130" y="533" type="line"/>
      <point x="91" y="471"/>
      <point x="52" y="425"/>
      <point x="3" y="379" type="curve"/>
    </contour>
    <contour>
      <point x="257" y="370" type="curve" smooth="yes"/>
      <point x="257" y="370" type="line"/>
      <point x="279" y="533" type="line"/>
      <point x="130" y="533" type="line"/>
      <point x="62" y="323" type="line"/>
      <point x="22" y="18" type="line"/>
      <point x="94" y="-7"/>
      <point x="149" y="-19"/>
      <point x="218" y="-19" type="curve" smooth="yes"/>
      <point x="405" y="-19"/>
      <point x="454" y="115"/>
      <point x="454" y="209" type="curve" smooth="yes"/>
      <point x="454" y="317"/>
      <point x="390" y="370"/>
    </contour>
    <contour>
      <point x="229" y="100" type="curve" smooth="yes"/>
      <point x="227" y="100"/>
      <point x="225" y="101"/>
      <point x="222" y="104" type="curve"/>
      <point x="238" y="254" type="line"/>
      <point x="236" y="254" type="line" smooth="yes"/>
      <point x="264" y="254"/>
      <point x="270" y="235"/>
      <point x="270" y="203" type="curve" smooth="yes"/>
      <point x="270" y="159"/>
      <point x="263" y="100"/>
    </contour>
  </outline>
</glyph>
<glyph name="Oopen" format="2">
  <advance width="472"/>
  <unicode hex="0186"/>
  <anchor x="174" y="0" name="bottom"/>
  <anchor x="272" y="695" name="top"/>
  <outline>
    <contour>
      <point x="263" y="715" type="curve" smooth="yes"/>
      <point x="181" y="715"/>
      <point x="114" y="685"/>
      <point x="56" y="635" type="curve"/>
      <point x="131" y="522" type="line"/>
      <point x="162" y="552"/>
      <point x="193" y="572"/>
      <point x="231" y="572" type="curve" smooth="yes"/>
      <point x="273" y="572"/>
      <point x="290" y="534"/>
      <point x="290" y="444" type="curve" smooth="yes"/>
      <point x="290" y="301"/>
      <point x="257" y="130"/>
      <point x="168" y="130" type="curve" smooth="yes"/>
      <point x="128" y="130"/>
      <point x="101" y="154"/>
      <point x="72" y="186" type="curve"/>
      <point x="-26" y="77" type="line"/>
      <point x="10" y="27"/>
      <point x="73" y="-19"/>
      <point x="157" y="-19" type="curve" smooth="yes"/>
      <point x="364" y="-19"/>
      <point x="490" y="188"/>
      <point x="490" y="436" type="curve" smooth="yes"/>
      <point x="490" y="614"/>
      <point x="404" y="715"/>
    </contour>
  </outline>
</glyph>
<glyph name="Chook" format="2">
  <advance width="484"/>
  <unicode hex="0187"/>
  <anchor x="211" y="0" name="bottom"/>
  <anchor x="295" y="744" name="top"/>
  <outline>
    <contour>
      <point x="371" y="634" type="line"/>
      <point x="526" y="626" type="line"/>
      <point x="531" y="667" type="line" smooth="yes"/>
      <point x="536" y="705"/>
      <point x="547" y="724"/>
      <point x="570" y="724" type="curve" smooth="yes"/>
      <point x="584" y="724"/>
      <point x="599" y="719"/>
      <point x="615" y="707" type="curve"/>
      <point x="679" y="823" type="line"/>
      <point x="652" y="842"/>
      <point x="615" y="861"/>
      <point x="559" y="861" type="curve" smooth="yes"/>
      <point x="450" y="861"/>
      <point x="397" y="794"/>
      <point x="379" y="685" type="curve" smooth="yes"/>
    </contour>
    <contour>
      <point x="320" y="715" type="curve" smooth="yes"/>
      <point x="127" y="715"/>
      <point x="17" y="454"/>
      <point x="17" y="258" type="curve" smooth="yes"/>
      <point x="17" y="77"/>
      <point x="104" y="-19"/>
      <point x="252" y="-19" type="curve" smooth="yes"/>
      <point x="331" y="-19"/>
      <point x="406" y="25"/>
      <point x="457" y="75" type="curve"/>
      <point x="391" y="189" type="line"/>
      <point x="354" y="157"/>
      <point x="321" y="130"/>
      <point x="285" y="130" type="curve" smooth="yes"/>
      <point x="239" y="130"/>
      <point x="217" y="171"/>
      <point x="217" y="261" type="curve" smooth="yes"/>
      <point x="217" y="363"/>
      <point x="243" y="572"/>
      <point x="342" y="572" type="curve" smooth="yes"/>
      <point x="380" y="572"/>
      <point x="408" y="560"/>
      <point x="441" y="536" type="curve"/>
      <point x="527" y="626" type="line"/>
      <point x="504" y="656"/>
      <point x="474" y="669"/>
      <point x="437" y="665" type="curve"/>
      <point x="408" y="694"/>
      <point x="377" y="715"/>
    </contour>
  </outline>
</glyph>
<glyph name="chook" format="2">
  <advance width="385"/>
  <unicode hex="0188"/>
  <anchor x="162" y="0" name="bottom"/>
  <anchor x="267" y="744" name="top"/>
  <outline>
    <contour>
      <point x="252" y="553" type="curve" smooth="yes"/>
      <point x="96" y="553"/>
      <point x="5" y="348"/>
      <point x="5" y="208" type="curve" smooth="yes"/>
      <point x="5" y="70"/>
      <point x="80" y="-19"/>
      <point x="212" y="-19" type="curve" smooth="yes"/>
      <point x="281" y="-19"/>
      <point x="333" y="5"/>
      <point x="379" y="44" type="curve"/>
      <point x="316" y="163" type="line"/>
      <point x="286" y="140"/>
      <point x="268" y="128"/>
      <point x="244" y="128" type="curve" smooth="yes"/>
      <point x="219" y="128"/>
      <point x="199" y="144"/>
      <point x="199" y="205" type="curve" smooth="yes"/>
      <point x="199" y="274"/>
      <point x="209" y="409"/>
      <point x="282" y="409" type="curve" smooth="yes"/>
      <point x="309" y="409"/>
      <point x="335" y="400"/>
      <point x="358" y="385" type="curve"/>
      <point x="437" y="480" type="line"/>
      <point x="420" y="503"/>
      <point x="398" y="511"/>
      <point x="373" y="508" type="curve"/>
      <point x="348" y="532"/>
      <point x="298" y="553"/>
    </contour>
    <contour>
      <point x="437" y="480" type="line"/>
      <point x="448" y="569" type="line" smooth="yes"/>
      <point x="453" y="607"/>
      <point x="461" y="626"/>
      <point x="486" y="626" type="curve" smooth="yes"/>
      <point x="499" y="626"/>
      <point x="515" y="621"/>
      <point x="531" y="610" type="curve"/>
      <point x="595" y="725" type="line"/>
      <point x="569" y="745"/>
      <point x="530" y="763"/>
      <point x="474" y="763" type="curve" smooth="yes"/>
      <point x="365" y="763"/>
      <point x="311" y="697"/>
      <point x="297" y="587" type="curve" smooth="yes"/>
      <point x="290" y="531" type="line"/>
    </contour>
  </outline>
</glyph>
<glyph name="Dtopbar" format="2">
  <advance width="495"/>
  <unicode hex="018B"/>
  <anchor x="216" y="0" name="bottom"/>
  <anchor x="314" y="695" name="top"/>
  <outline>
    <contour>
      <point x="346" y="685" type="line"/>
      <point x="272" y="140" type="line"/>
      <point x="248" y="140" type="line" smooth="yes"/>
      <point x="218" y="140"/>
      <point x="205" y="162"/>
      <point x="205" y="207" type="curve" smooth="yes"/>
      <point x="205" y="273"/>
      <point x="228" y="321"/>
      <point x="272" y="321" type="curve" smooth="yes"/>
      <point x="304" y="321" type="line"/>
      <point x="326" y="454" type="line"/>
      <point x="269" y="454" type="line" smooth="yes"/>
      <point x="101" y="454"/>
      <point x="2" y="361"/>
      <point x="2" y="200" type="curve" smooth="yes"/>
      <point x="2" y="72"/>
      <point x="82" y="0"/>
      <point x="195" y="0" type="curve" smooth="yes"/>
      <point x="443" y="0" type="line"/>
      <point x="541" y="695" type="line"/>
    </contour>
    <contour>
      <point x="149" y="695" type="line"/>
      <point x="125" y="548" type="line"/>
      <point x="335" y="548" type="line"/>
      <point x="540" y="695" type="line"/>
    </contour>
  </outline>
</glyph>
<glyph name="dtopbar" format="2">
  <advance width="494"/>
  <unicode hex="018C"/>
  <anchor x="216" y="0" name="bottom"/>
  <anchor x="320" y="744" name="top"/>
  <outline>
    <contour>
      <point x="165" y="610" type="line"/>
      <point x="328" y="610" type="line"/>
      <point x="533" y="744" type="line"/>
      <point x="187" y="744" type="line"/>
    </contour>
    <contour>
      <point x="350" y="744" type="line"/>
      <point x="315" y="490" type="line"/>
      <point x="296" y="517"/>
      <point x="265" y="534"/>
      <point x="232" y="534" type="curve" smooth="yes"/>
      <point x="73" y="534"/>
      <point x="7" y="337"/>
      <point x="7" y="184" type="curve" smooth="yes"/>
      <point x="7" y="57"/>
      <point x="47" y="-19"/>
      <point x="139" y="-19" type="curve" smooth="yes"/>
      <point x="202" y="-19"/>
      <point x="243" y="25"/>
      <point x="269" y="70" type="curve"/>
      <point x="267" y="0" type="line"/>
      <point x="433" y="0" type="line"/>
      <point x="537" y="744" type="line"/>
    </contour>
    <contour>
      <point x="269" y="399" type="curve" smooth="yes"/>
      <point x="281" y="399"/>
      <point x="288" y="390"/>
      <point x="297" y="371" type="curve"/>
      <point x="276" y="203" type="line"/>
      <point x="261" y="162"/>
      <point x="235" y="117"/>
      <point x="217" y="117" type="curve" smooth="yes"/>
      <point x="209" y="117"/>
      <point x="198" y="129"/>
      <point x="198" y="188" type="curve" smooth="yes"/>
      <point x="198" y="269"/>
      <point x="219" y="399"/>
    </contour>
  </outline>
</glyph>
<glyph name="deltaturned" format="2">
  <advance width="463"/>
  <unicode hex="018D"/>
  <anchor x="276" y="533" name="top"/>
  <outline>
    <contour>
      <point x="167" y="-226" type="curve" smooth="yes"/>
      <point x="313" y="-226"/>
      <point x="379" y="-138"/>
      <point x="379" y="-55" type="curve" smooth="yes"/>
      <point x="379" y="-13"/>
      <point x="366" y="31"/>
      <point x="315" y="72" type="curve"/>
      <point x="442" y="129"/>
      <point x="473" y="236"/>
      <point x="473" y="344" type="curve" smooth="yes"/>
      <point x="473" y="457"/>
      <point x="403" y="553"/>
      <point x="276" y="553" type="curve" smooth="yes"/>
      <point x="74" y="553"/>
      <point x="7" y="350"/>
      <point x="7" y="223" type="curve" smooth="yes"/>
      <point x="7" y="116"/>
      <point x="52" y="57"/>
      <point x="150" y="6" type="curve" smooth="yes"/>
      <point x="197" y="-18"/>
      <point x="205" y="-32"/>
      <point x="205" y="-52" type="curve" smooth="yes"/>
      <point x="205" y="-79"/>
      <point x="194" y="-101"/>
      <point x="168" y="-101" type="curve" smooth="yes"/>
      <point x="133" y="-101"/>
      <point x="108" y="-86"/>
      <point x="86" y="-58" type="curve"/>
      <point x="-7" y="-147" type="line"/>
      <point x="24" y="-190"/>
      <point x="81" y="-226"/>
    </contour>
    <contour>
      <point x="234" y="121" type="curve"/>
      <point x="204" y="149"/>
      <point x="195" y="173"/>
      <point x="195" y="216" type="curve" smooth="yes"/>
      <point x="195" y="264"/>
      <point x="201" y="416"/>
      <point x="258" y="416" type="curve" smooth="yes"/>
      <point x="275" y="416"/>
      <point x="285" y="391"/>
      <point x="285" y="346" type="curve" smooth="yes"/>
      <point x="285" y="268"/>
      <point x="281" y="186"/>
    </contour>
  </outline>
</glyph>
<glyph name="Ereversed" format="2">
  <advance width="408"/>
  <unicode hex="018E"/>
  <outline>
    <contour>
      <point x="76" y="695" type="line"/>
      <point x="54" y="558" type="line"/>
      <point x="238" y="558" type="line"/>
      <point x="222" y="420" type="line"/>
      <point x="68" y="420" type="line"/>
      <point x="48" y="286" type="line"/>
      <point x="202" y="286" type="line"/>
      <point x="185" y="139" type="line"/>
      <point x="-2" y="139" type="line"/>
      <point x="-25" y="0" type="line"/>
      <point x="357" y="0" type="line"/>
      <point x="454" y="695" type="line"/>
    </contour>
  </outline>
</glyph>
<glyph name="Eopen" format="2">
  <advance width="450"/>
  <unicode hex="0190"/>
  <anchor x="208" y="0" name="bottom"/>
  <anchor x="309" y="695" name="top"/>
  <outline>
    <contour>
      <point x="302" y="715" type="curve" smooth="yes"/>
      <point x="181" y="715"/>
      <point x="60" y="636"/>
      <point x="60" y="507" type="curve" smooth="yes"/>
      <point x="60" y="441"/>
      <point x="90" y="388"/>
      <point x="180" y="367" type="curve"/>
      <point x="66" y="353"/>
      <point x="-3" y="295"/>
      <point x="-3" y="169" type="curve" smooth="yes"/>
      <point x="-3" y="53"/>
      <point x="83" y="-19"/>
      <point x="214" y="-19" type="curve" smooth="yes"/>
      <point x="315" y="-19"/>
      <point x="388" y="17"/>
      <point x="444" y="79" type="curve"/>
      <point x="361" y="181" type="line"/>
      <point x="319" y="142"/>
      <point x="290" y="122"/>
      <point x="253" y="122" type="curve" smooth="yes"/>
      <point x="215" y="122"/>
      <point x="196" y="143"/>
      <point x="196" y="194" type="curve" smooth="yes"/>
      <point x="196" y="260"/>
      <point x="228" y="297"/>
      <point x="288" y="297" type="curve" smooth="yes"/>
      <point x="331" y="297" type="line"/>
      <point x="375" y="434" type="line"/>
      <point x="305" y="434" type="line" smooth="yes"/>
      <point x="268" y="434"/>
      <point x="254" y="454"/>
      <point x="254" y="492" type="curve" smooth="yes"/>
      <point x="254" y="542"/>
      <point x="278" y="576"/>
      <point x="316" y="576" type="curve" smooth="yes"/>
      <point x="347" y="576"/>
      <point x="373" y="560"/>
      <point x="397" y="524" type="curve"/>
      <point x="499" y="619" type="line"/>
      <point x="455" y="681"/>
      <point x="399" y="715"/>
    </contour>
  </outline>
</glyph>
<glyph name="florin" format="2">
  <advance width="316"/>
  <unicode hex="0192"/>
  <outline>
    <contour>
      <point x="93" y="569" type="curve" smooth="yes"/>
      <point x="26" y="64" type="line" smooth="yes"/>
      <point x="13" y="-29"/>
      <point x="-20" y="-63"/>
      <point x="-86" y="-90" type="curve"/>
      <point x="-45" y="-226" type="line"/>
      <point x="71" y="-184"/>
      <point x="183" y="-128"/>
      <point x="212" y="73" type="curve" smooth="yes"/>
      <point x="277" y="558" type="line" smooth="yes"/>
      <point x="284" y="609"/>
      <point x="302" y="627"/>
      <point x="333" y="627" type="curve" smooth="yes"/>
      <point x="352" y="627"/>
      <point x="369" y="622"/>
      <point x="389" y="610" type="curve"/>
      <point x="454" y="718" type="line"/>
      <point x="424" y="742"/>
      <point x="375" y="764"/>
      <point x="312" y="764" type="curve" smooth="yes"/>
      <point x="182" y="764"/>
      <point x="108" y="679"/>
    </contour>
    <contour>
      <point x="17" y="404" type="line"/>
      <point x="333" y="404" type="line"/>
      <point x="375" y="533" type="line"/>
      <point x="37" y="533" type="line"/>
    </contour>
  </outline>
</glyph>
<glyph name="Ghook" format="2">
  <advance width="521"/>
  <unicode hex="0193"/>
  <anchor x="230" y="0" name="bottom"/>
  <anchor x="329" y="740" name="top"/>
  <outline>
    <contour>
      <point x="347" y="715" type="curve" smooth="yes"/>
      <point x="135" y="715"/>
      <point x="16" y="462"/>
      <point x="16" y="246" type="curve" smooth="yes"/>
      <point x="16" y="74"/>
      <point x="86" y="-19"/>
      <point x="255" y="-19" type="curve" smooth="yes"/>
      <point x="323" y="-19"/>
      <point x="416" y="8"/>
      <point x="486" y="58" type="curve"/>
      <point x="535" y="407" type="line"/>
      <point x="290" y="407" type="line"/>
      <point x="284" y="273" type="line"/>
      <point x="327" y="273" type="line"/>
      <point x="312" y="139" type="line"/>
      <point x="297" y="128"/>
      <point x="284" y="121"/>
      <point x="265" y="121" type="curve" smooth="yes"/>
      <point x="231" y="121"/>
      <point x="214" y="149"/>
      <point x="214" y="231" type="curve" smooth="yes"/>
      <point x="214" y="353"/>
      <point x="230" y="576"/>
      <point x="363" y="576" type="curve" smooth="yes"/>
      <point x="403" y="576"/>
      <point x="440" y="559"/>
      <point x="467" y="535" type="curve"/>
      <point x="564" y="622" type="line"/>
      <point x="544" y="647"/>
      <point x="517" y="660"/>
      <point x="483" y="658" type="curve"/>
      <point x="450" y="694"/>
      <point x="410" y="715"/>
    </contour>
    <contour>
      <point x="408" y="634" type="line"/>
      <point x="564" y="622" type="line"/>
      <point x="568" y="667" type="line" smooth="yes"/>
      <point x="572" y="705"/>
      <point x="584" y="724"/>
      <point x="607" y="724" type="curve" smooth="yes"/>
      <point x="621" y="724"/>
      <point x="635" y="719"/>
      <point x="652" y="707" type="curve"/>
      <point x="716" y="823" type="line"/>
      <point x="689" y="842"/>
      <point x="652" y="861"/>
      <point x="596" y="861" type="curve" smooth="yes"/>
      <point x="487" y="861"/>
      <point x="433" y="794"/>
      <point x="416" y="685" type="curve" smooth="yes"/>
    </contour>
  </outline>
</glyph>
<glyph name="Gammaafrican" format="2">
  <advance width="472"/>
  <unicode hex="0194"/>
  <anchor x="303" y="695" name="top"/>
  <outline>
    <contour>
      <point x="179" y="-226" type="curve" smooth="yes"/>
      <point x="288" y="-226"/>
      <point x="351" y="-168"/>
      <point x="351" y="-58" type="curve" smooth="yes"/>
      <point x="351" y="-1"/>
      <point x="333" y="40"/>
      <point x="312" y="95" type="curve"/>
      <point x="245" y="229" type="line"/>
      <point x="242" y="695" type="line"/>
      <point x="40" y="695" type="line"/>
      <point x="131" y="103" type="line"/>
      <point x="211" y="7" type="line"/>
      <point x="218" y="-19"/>
      <point x="221" y="-42"/>
      <point x="221" y="-63" type="curve" smooth="yes"/>
      <point x="221" y="-90"/>
      <point x="212" y="-109"/>
      <point x="195" y="-109" type="curve" smooth="yes"/>
      <point x="184" y="-109"/>
      <point x="178" y="-102"/>
      <point x="178" y="-86" type="curve" smooth="yes"/>
      <point x="178" y="-61"/>
      <point x="197" y="-24"/>
      <point x="211" y="7" type="curve"/>
      <point x="312" y="95" type="line"/>
      <point x="568" y="695" type="line"/>
      <point x="368" y="695" type="line"/>
      <point x="245" y="229" type="line"/>
      <point x="131" y="103" type="line"/>
      <point x="87" y="32"/>
      <point x="48" y="-32"/>
      <point x="48" y="-103" type="curve" smooth="yes"/>
      <point x="48" y="-177"/>
      <point x="85" y="-226"/>
    </contour>
  </outline>
</glyph>
<glyph name="hv" format="2">
  <advance width="682"/>
  <unicode hex="0195"/>
  <anchor x="310" y="0" name="bottom"/>
  <anchor x="414" y="744" name="top"/>
  <outline>
    <contour>
      <point x="690" y="533" type="curve"/>
      <point x="515" y="533" type="line"/>
      <point x="516" y="516"/>
      <point x="516" y="495"/>
      <point x="516" y="477" type="curve" smooth="yes"/>
      <point x="516" y="408"/>
      <point x="509" y="117"/>
      <point x="445" y="117" type="curve" smooth="yes"/>
      <point x="422" y="117"/>
      <point x="431" y="155"/>
      <point x="435" y="188" type="curve" smooth="yes"/>
      <point x="462" y="391" type="line" smooth="yes"/>
      <point x="475" y="494"/>
      <point x="440" y="553"/>
      <point x="375" y="553" type="curve" smooth="yes"/>
      <point x="322" y="553"/>
      <point x="265" y="511"/>
      <point x="238" y="449" type="curve"/>
      <point x="280" y="763" type="line"/>
      <point x="92" y="744" type="line"/>
      <point x="-12" y="0" type="line"/>
      <point x="174" y="0" type="line"/>
      <point x="213" y="281" type="line"/>
      <point x="242" y="356"/>
      <point x="258" y="398"/>
      <point x="265" y="398" type="curve" smooth="yes"/>
      <point x="270" y="398"/>
      <point x="273" y="387"/>
      <point x="268" y="343" type="curve" smooth="yes"/>
      <point x="247" y="181" type="line" smooth="yes"/>
      <point x="234" y="82"/>
      <point x="275" y="-19"/>
      <point x="420" y="-19" type="curve" smooth="yes"/>
      <point x="666" y="-19"/>
      <point x="694" y="204"/>
      <point x="694" y="446" type="curve" smooth="yes"/>
      <point x="694" y="478"/>
      <point x="692" y="509"/>
    </contour>
  </outline>
</glyph>
<glyph name="Iotaafrican" format="2">
  <advance width="397"/>
  <unicode hex="0196"/>
  <anchor x="131" y="0" name="bottom"/>
  <anchor x="177" y="695" name="top"/>
  <outline>
    <contour>
      <point x="273" y="695" type="line"/>
      <point x="80" y="695" type="line"/>
      <point x="11" y="207" type="line"/>
      <point x="205" y="207" type="line"/>
    </contour>
    <component base="hookHELPERright.case" xOffset="13" yOffset="207"/>
  </outline>
</glyph>
<glyph name="Khook" format="2">
  <advance width="552"/>
  <unicode hex="0198"/>
  <anchor x="245" y="0" name="bottom"/>
  <anchor x="343" y="695" name="top"/>
  <outline>
    <contour>
      <point x="281" y="695" type="line"/>
      <point x="87" y="695" type="line"/>
      <point x="-10" y="0" type="line"/>
      <point x="184" y="0" type="line"/>
    </contour>
    <contour>
      <point x="509" y="528" type="line" smooth="yes"/>
      <point x="529" y="570"/>
      <point x="540" y="578"/>
      <point x="559" y="578" type="curve" smooth="yes"/>
      <point x="572" y="578"/>
      <point x="578" y="573"/>
      <point x="582" y="568" type="curve"/>
      <point x="640" y="675" type="line"/>
      <point x="619" y="696"/>
      <point x="590" y="715"/>
      <point x="539" y="715" type="curve" smooth="yes"/>
      <point x="457" y="715"/>
      <point x="410" y="684"/>
      <point x="359" y="589" type="curve" smooth="yes"/>
      <point x="241" y="371" type="line"/>
      <point x="321" y="0" type="line"/>
      <point x="538" y="0" type="line"/>
      <point x="436" y="377" type="line"/>
    </contour>
  </outline>
</glyph>
<glyph name="khook" format="2">
  <advance width="579"/>
  <unicode hex="0199"/>
  <outline>
    <contour>
      <point x="249" y="532" type="line"/>
      <point x="63" y="532" type="line"/>
      <point x="-12" y="0" type="line"/>
      <point x="175" y="0" type="line"/>
      <point x="222" y="335" type="line"/>
      <point x="258" y="400"/>
      <point x="279" y="424"/>
      <point x="299" y="424" type="curve" smooth="yes"/>
      <point x="315" y="424"/>
      <point x="325" y="412"/>
      <point x="325" y="389" type="curve" smooth="yes"/>
      <point x="325" y="342"/>
      <point x="307" y="296"/>
      <point x="215" y="256" type="curve"/>
      <point x="260" y="0" type="line"/>
      <point x="462" y="0" type="line"/>
      <point x="406" y="238" type="line"/>
      <point x="478" y="280"/>
      <point x="512" y="344"/>
      <point x="512" y="427" type="curve" smooth="yes"/>
      <point x="512" y="502"/>
      <point x="467" y="553"/>
      <point x="384" y="553" type="curve" smooth="yes"/>
      <point x="334" y="553"/>
      <point x="290" y="531"/>
      <point x="242" y="475" type="curve"/>
    </contour>
    <component base="hookaboveHELPER" xOffset="-9"/>
  </outline>
</glyph>
<glyph name="lambdastroke" format="2">
  <advance width="456"/>
  <unicode hex="019B"/>
  <anchor x="197" y="0" name="bottom"/>
  <anchor x="302" y="744" name="top"/>
  <outline>
    <contour>
      <point x="189" y="511" type="line"/>
      <point x="240" y="560" type="line"/>
      <point x="350" y="629" type="line"/>
      <point x="410" y="680" type="line"/>
      <point x="362" y="768" type="line"/>
      <point x="268" y="693" type="line"/>
      <point x="173" y="632" type="line"/>
      <point x="109" y="574" type="line"/>
    </contour>
    <contour>
      <point x="137" y="763" type="curve"/>
      <point x="100" y="645" type="line"/>
      <point x="201" y="636"/>
      <point x="232" y="593"/>
      <point x="235" y="472" type="curve"/>
      <point x="153" y="487" type="line"/>
      <point x="-32" y="26" type="line"/>
      <point x="150" y="-19" type="line"/>
      <point x="230" y="347" type="line"/>
      <point x="221" y="157"/>
      <point x="226" y="86"/>
      <point x="258" y="-18" type="curve"/>
      <point x="450" y="38" type="line"/>
      <point x="409" y="138"/>
      <point x="398" y="225"/>
      <point x="388" y="428" type="curve" smooth="yes"/>
      <point x="375" y="687"/>
      <point x="293" y="739"/>
    </contour>
  </outline>
</glyph>
<glyph name="Mturned" format="2">
  <advance width="719"/>
  <unicode hex="019C"/>
  <anchor x="329" y="0" name="bottom"/>
  <anchor x="427" y="695" name="top"/>
  <outline>
    <contour>
      <point x="114" y="-19" type="curve" smooth="yes"/>
      <point x="168" y="-19"/>
      <point x="215" y="7"/>
      <point x="257" y="71" type="curve"/>
      <point x="257" y="181" type="line"/>
      <point x="241" y="143"/>
      <point x="225" y="124"/>
      <point x="213" y="124" type="curve" smooth="yes"/>
      <point x="204" y="124"/>
      <point x="198" y="145"/>
      <point x="202" y="180" type="curve" smooth="yes"/>
      <point x="273" y="695" type="line"/>
      <point x="79" y="695" type="line"/>
      <point x="5" y="173" type="line" smooth="yes"/>
      <point x="-11" y="61"/>
      <point x="30" y="-19"/>
    </contour>
    <contour>
      <point x="360" y="-19" type="curve" smooth="yes"/>
      <point x="412" y="-19"/>
      <point x="451" y="7"/>
      <point x="503" y="80" type="curve"/>
      <point x="503" y="182" type="line"/>
      <point x="487" y="143"/>
      <point x="471" y="124"/>
      <point x="459" y="124" type="curve" smooth="yes"/>
      <point x="450" y="124"/>
      <point x="444" y="145"/>
      <point x="448" y="180" type="curve" smooth="yes"/>
      <point x="519" y="695" type="line"/>
      <point x="326" y="695" type="line"/>
      <point x="252" y="173" type="line" smooth="yes"/>
      <point x="236" y="61"/>
      <point x="276" y="-19"/>
    </contour>
    <contour>
      <point x="497" y="0" type="line"/>
      <point x="668" y="0" type="line"/>
      <point x="765" y="695" type="line"/>
      <point x="571" y="695" type="line"/>
      <point x="487" y="101" type="line"/>
    </contour>
  </outline>
</glyph>
<glyph name="Nhookleft" format="2">
  <advance width="639"/>
  <unicode hex="019D"/>
  <anchor x="228" y="0" name="bottom"/>
  <anchor x="322" y="696" name="top"/>
  <outline>
    <contour>
      <point x="-52" y="-226" type="curve" smooth="yes"/>
      <point x="64" y="-226"/>
      <point x="136" y="-160"/>
      <point x="155" y="-22" type="curve" smooth="yes"/>
      <point x="158" y="0" type="line"/>
      <point x="-9" y="0" type="line"/>
      <point x="-13" y="-30" type="line" smooth="yes"/>
      <point x="-18" y="-74"/>
      <point x="-34" y="-93"/>
      <point x="-58" y="-93" type="curve" smooth="yes"/>
      <point x="-78" y="-93"/>
      <point x="-90" y="-86"/>
      <point x="-107" y="-74" type="curve"/>
      <point x="-184" y="-180" type="line"/>
      <point x="-156" y="-206"/>
      <point x="-116" y="-226"/>
    </contour>
    <component base="N"/>
  </outline>
</glyph>
<glyph name="nlegrightlong" format="2">
  <advance width="453"/>
  <unicode hex="019E"/>
  <outline>
    <contour>
      <point x="373" y="553" type="curve" smooth="yes"/>
      <point x="323" y="553"/>
      <point x="261" y="510"/>
      <point x="226" y="444" type="curve"/>
      <point x="225" y="533" type="line"/>
      <point x="63" y="533" type="line"/>
      <point x="-11" y="0" type="line"/>
      <point x="175" y="0" type="line"/>
      <point x="214" y="281" type="line"/>
      <point x="243" y="356"/>
      <point x="263" y="398"/>
      <point x="270" y="398" type="curve" smooth="yes"/>
      <point x="275" y="398"/>
      <point x="279" y="387"/>
      <point x="273" y="343" type="curve" smooth="yes"/>
      <point x="187" y="-227" type="line"/>
      <point x="377" y="-207" type="line"/>
      <point x="464" y="391" type="line" smooth="yes"/>
      <point x="478" y="493"/>
      <point x="442" y="553"/>
    </contour>
  </outline>
</glyph>
<glyph name="Oi" format="2">
  <advance width="801"/>
  <unicode hex="01A2"/>
  <anchor x="468" y="695" name="top"/>
  <outline>
    <contour>
      <point x="651" y="715" type="curve" smooth="yes"/>
      <point x="590" y="715"/>
      <point x="529" y="696"/>
      <point x="480" y="652" type="curve"/>
      <point x="553" y="561" type="line"/>
      <point x="571" y="574"/>
      <point x="580" y="580"/>
      <point x="600" y="580" type="curve" smooth="yes"/>
      <point x="627" y="580"/>
      <point x="633" y="554"/>
      <point x="627" y="516" type="curve" smooth="yes"/>
      <point x="526" y="-214" type="line"/>
      <point x="719" y="-214" type="line"/>
      <point x="820" y="507" type="line" smooth="yes"/>
      <point x="840" y="645"/>
      <point x="770" y="715"/>
    </contour>
    <contour>
      <point x="346" y="715" type="curve"/>
      <point x="93" y="715"/>
      <point x="18" y="443"/>
      <point x="18" y="255" type="curve" smooth="yes"/>
      <point x="18" y="84"/>
      <point x="94" y="-19"/>
      <point x="245" y="-19" type="curve"/>
      <point x="500" y="-19"/>
      <point x="573" y="255"/>
      <point x="573" y="439" type="curve" smooth="yes"/>
      <point x="573" y="613"/>
      <point x="487" y="715"/>
    </contour>
    <contour>
      <point x="326" y="574" type="curve"/>
      <point x="360" y="574"/>
      <point x="374" y="542"/>
      <point x="374" y="461" type="curve" smooth="yes"/>
      <point x="374" y="391"/>
      <point x="367" y="121"/>
      <point x="265" y="121" type="curve" smooth="yes"/>
      <point x="230" y="121"/>
      <point x="217" y="154"/>
      <point x="217" y="235" type="curve" smooth="yes"/>
      <point x="217" y="301"/>
      <point x="222" y="574"/>
    </contour>
  </outline>
</glyph>
<glyph name="oi" format="2">
  <advance width="691"/>
  <unicode hex="01A3"/>
  <anchor x="390" y="533" name="top"/>
  <outline>
    <contour>
      <point x="429" y="-226" type="line"/>
      <point x="616" y="-207" type="line"/>
      <point x="693" y="344" type="line" smooth="yes"/>
      <point x="712" y="475"/>
      <point x="652" y="553"/>
      <point x="535" y="553" type="curve" smooth="yes"/>
      <point x="463" y="553"/>
      <point x="421" y="535"/>
      <point x="359" y="490" type="curve"/>
      <point x="432" y="400" type="line"/>
      <point x="460" y="412"/>
      <point x="472" y="418"/>
      <point x="484" y="418" type="curve" smooth="yes"/>
      <point x="504" y="418"/>
      <point x="515" y="403"/>
      <point x="509" y="364" type="curve" smooth="yes"/>
    </contour>
    <contour>
      <point x="279" y="553" type="curve"/>
      <point x="73" y="553"/>
      <point x="6" y="359"/>
      <point x="6" y="202" type="curve" smooth="yes"/>
      <point x="6" y="63"/>
      <point x="79" y="-19"/>
      <point x="201" y="-19" type="curve"/>
      <point x="399" y="-19"/>
      <point x="469" y="167"/>
      <point x="474" y="323" type="curve" smooth="yes"/>
      <point x="479" y="464"/>
      <point x="392" y="553"/>
    </contour>
    <contour>
      <point x="259" y="416" type="curve"/>
      <point x="280" y="416"/>
      <point x="288" y="393"/>
      <point x="285" y="333" type="curve" smooth="yes"/>
      <point x="282" y="262"/>
      <point x="277" y="117"/>
      <point x="221" y="117" type="curve" smooth="yes"/>
      <point x="202" y="117"/>
      <point x="195" y="138"/>
      <point x="195" y="188" type="curve" smooth="yes"/>
      <point x="195" y="272"/>
      <point x="203" y="416"/>
    </contour>
  </outline>
</glyph>
<glyph name="phook" format="2">
  <advance width="589"/>
  <unicode hex="01A5"/>
  <anchor x="316" y="744" name="top"/>
  <outline>
    <contour>
      <point x="-42" y="-226" type="line"/>
      <point x="144" y="-207" type="line"/>
      <point x="174" y="-5" type="line"/>
      <point x="182" y="-12"/>
      <point x="204" y="-19"/>
      <point x="248" y="-19" type="curve" smooth="yes"/>
      <point x="432" y="-19"/>
      <point x="490" y="202"/>
      <point x="490" y="358" type="curve" smooth="yes"/>
      <point x="490" y="481"/>
      <point x="450" y="553"/>
      <point x="358" y="553" type="curve" smooth="yes"/>
      <point x="325" y="553"/>
      <point x="276" y="533"/>
      <point x="246" y="489" type="curve"/>
      <point x="249" y="532" type="line"/>
      <point x="64" y="532" type="line"/>
    </contour>
    <contour>
      <point x="227" y="116" type="curve" smooth="yes"/>
      <point x="214" y="116"/>
      <point x="201" y="121"/>
      <point x="196" y="127" type="curve"/>
      <point x="225" y="362" type="line"/>
      <point x="243" y="399"/>
      <point x="262" y="416"/>
      <point x="277" y="416" type="curve" smooth="yes"/>
      <point x="288" y="416"/>
      <point x="300" y="404"/>
      <point x="300" y="347" type="curve" smooth="yes"/>
      <point x="300" y="261"/>
      <point x="281" y="116"/>
    </contour>
    <component base="hookaboveHELPER" xOffset="-9"/>
  </outline>
</glyph>
<glyph name="Yr" format="2">
  <advance width="505"/>
  <unicode hex="01A6"/>
  <anchor x="319" y="695" name="top"/>
  <outline>
    <contour>
      <point x="-10" y="0" type="line"/>
      <point x="184" y="0" type="line"/>
      <point x="281" y="695" type="line"/>
      <point x="87" y="695" type="line"/>
    </contour>
    <contour>
      <point x="188" y="140" type="line"/>
      <point x="334" y="139" type="line"/>
      <point x="494" y="210"/>
      <point x="517" y="297"/>
      <point x="517" y="410" type="curve" smooth="yes"/>
      <point x="517" y="528"/>
      <point x="442" y="585"/>
      <point x="298" y="585" type="curve" smooth="yes"/>
      <point x="258" y="585" type="line"/>
      <point x="237" y="449" type="line"/>
      <point x="269" y="449" type="line" smooth="yes"/>
      <point x="299" y="449"/>
      <point x="317" y="428"/>
      <point x="317" y="387" type="curve" smooth="yes"/>
      <point x="317" y="344"/>
      <point x="308" y="274"/>
      <point x="254" y="274" type="curve" smooth="yes"/>
      <point x="210" y="274" type="line"/>
    </contour>
    <contour>
      <point x="282" y="-111" type="line"/>
      <point x="488" y="-111" type="line"/>
      <point x="390" y="190" type="line"/>
      <point x="214" y="154" type="line"/>
    </contour>
  </outline>
</glyph>
<glyph name="Tonetwo" format="2">
  <advance width="473"/>
  <unicode hex="01A7"/>
  <anchor x="206" y="0" name="bottom"/>
  <anchor x="304" y="695" name="top"/>
  <outline>
    <contour>
      <point x="316" y="715" type="curve" smooth="yes"/>
      <point x="222" y="715"/>
      <point x="143" y="682"/>
      <point x="77" y="622" type="curve"/>
      <point x="144" y="517" type="line"/>
      <point x="184" y="554"/>
      <point x="226" y="574"/>
      <point x="274" y="574" type="curve" smooth="yes"/>
      <point x="301" y="574"/>
      <point x="313" y="558"/>
      <point x="313" y="528" type="curve" smooth="yes"/>
      <point x="313" y="485"/>
      <point x="292" y="464"/>
      <point x="200" y="430" type="curve" smooth="yes"/>
      <point x="81" y="386"/>
      <point x="2" y="316"/>
      <point x="2" y="171" type="curve" smooth="yes"/>
      <point x="2" y="58"/>
      <point x="78" y="-19"/>
      <point x="210" y="-19" type="curve" smooth="yes"/>
      <point x="324" y="-19"/>
      <point x="408" y="28"/>
      <point x="460" y="83" type="curve"/>
      <point x="382" y="192" type="line"/>
      <point x="338" y="152"/>
      <point x="291" y="126"/>
      <point x="245" y="126" type="curve" smooth="yes"/>
      <point x="208" y="126"/>
      <point x="202" y="149"/>
      <point x="202" y="179" type="curve" smooth="yes"/>
      <point x="202" y="226"/>
      <point x="227" y="261"/>
      <point x="296" y="288" type="curve" smooth="yes"/>
      <point x="423" y="337"/>
      <point x="511" y="400"/>
      <point x="511" y="539" type="curve" smooth="yes"/>
      <point x="511" y="647"/>
      <point x="435" y="715"/>
    </contour>
  </outline>
</glyph>
<glyph name="eshreversedloop" format="2">
  <advance width="482"/>
  <unicode hex="01AA"/>
  <anchor x="293" y="744" name="top"/>
  <outline>
    <contour>
      <point x="263" y="763" type="curve" smooth="yes"/>
      <point x="131" y="763"/>
      <point x="41" y="671"/>
      <point x="41" y="545" type="curve" smooth="yes"/>
      <point x="41" y="451"/>
      <point x="92" y="390"/>
      <point x="161" y="390" type="curve" smooth="yes"/>
      <point x="222" y="390"/>
      <point x="271" y="425"/>
      <point x="301" y="464" type="curve"/>
      <point x="279" y="535" type="line"/>
      <point x="258" y="524"/>
      <point x="242" y="517"/>
      <point x="223" y="517" type="curve" smooth="yes"/>
      <point x="204" y="517"/>
      <point x="194" y="528"/>
      <point x="194" y="555" type="curve" smooth="yes"/>
      <point x="194" y="592"/>
      <point x="202" y="635"/>
      <point x="234" y="635" type="curve" smooth="yes"/>
      <point x="253" y="635"/>
      <point x="257" y="621"/>
      <point x="251" y="580" type="curve" smooth="yes"/>
      <point x="172" y="0" type="line"/>
      <point x="358" y="0" type="line"/>
      <point x="433" y="538" type="line" smooth="yes"/>
      <point x="452" y="680"/>
      <point x="387" y="763"/>
    </contour>
    <component base="hookHELPERright" xOffset="186"/>
  </outline>
</glyph>
<glyph name="tpalatalhook" format="2">
  <advance width="327"/>
  <unicode hex="01AB"/>
  <anchor x="201" y="649" name="top"/>
  <outline>
    <contour>
      <point x="94" y="-225" type="curve" smooth="yes"/>
      <point x="213" y="-225"/>
      <point x="293" y="-160"/>
      <point x="314" y="-19" type="curve" smooth="yes"/>
      <point x="320" y="22" type="line"/>
      <point x="157" y="1" type="line"/>
      <point x="153" y="-34" type="line" smooth="yes"/>
      <point x="148" y="-72"/>
      <point x="125" y="-90"/>
      <point x="97" y="-90" type="curve" smooth="yes"/>
      <point x="68" y="-90"/>
      <point x="49" y="-83"/>
      <point x="29" y="-71" type="curve"/>
      <point x="-46" y="-179" type="line"/>
      <point x="-18" y="-205"/>
      <point x="31" y="-225"/>
    </contour>
    <contour>
      <point x="286" y="668" type="line"/>
      <point x="119" y="649" type="line"/>
      <point x="73" y="476" type="line"/>
      <point x="36" y="194" type="line" smooth="yes"/>
      <point x="17" y="56"/>
      <point x="54" y="-19"/>
      <point x="175" y="-19" type="curve" smooth="yes"/>
      <point x="192" y="-19"/>
      <point x="213" y="-16"/>
      <point x="236" y="-11" type="curve"/>
      <point x="319" y="22" type="line"/>
      <point x="281" y="131" type="line"/>
      <point x="268" y="125"/>
      <point x="258" y="120"/>
      <point x="247" y="120" type="curve" smooth="yes"/>
      <point x="227" y="120"/>
      <point x="214" y="134"/>
      <point x="221" y="180" type="curve" smooth="yes"/>
    </contour>
    <contour>
      <point x="362" y="533" type="line"/>
      <point x="37" y="533" type="line"/>
      <point x="17" y="404" type="line"/>
      <point x="323" y="404" type="line"/>
    </contour>
  </outline>
</glyph>
<glyph name="Thook" format="2">
  <advance width="513"/>
  <unicode hex="01AC"/>
  <anchor x="226" y="0" name="bottom"/>
  <anchor x="324" y="695" name="top"/>
  <outline>
    <contour>
      <point x="160" y="0" type="line"/>
      <point x="354" y="0" type="line"/>
      <point x="428" y="547" type="line"/>
      <point x="546" y="547" type="line"/>
      <point x="589" y="695" type="line"/>
      <point x="260" y="695" type="line"/>
      <point x="215" y="547" type="line"/>
      <point x="234" y="547" type="line"/>
    </contour>
    <contour>
      <point x="53" y="408" type="curve"/>
      <point x="181" y="457" type="line"/>
      <point x="179" y="470"/>
      <point x="176" y="482"/>
      <point x="176" y="493" type="curve" smooth="yes"/>
      <point x="176" y="528"/>
      <point x="190" y="547"/>
      <point x="213" y="547" type="curve" smooth="yes"/>
      <point x="248" y="547" type="line"/>
      <point x="267" y="695" type="line"/>
      <point x="248" y="695" type="line" smooth="yes"/>
      <point x="134" y="695"/>
      <point x="39" y="631"/>
      <point x="39" y="503" type="curve" smooth="yes"/>
      <point x="39" y="468"/>
      <point x="45" y="435"/>
    </contour>
  </outline>
</glyph>
<glyph name="thook" format="2">
  <advance width="328"/>
  <unicode hex="01AD"/>
  <anchor x="133" y="0" name="bottom"/>
  <anchor x="237" y="744" name="top"/>
  <outline>
    <contour>
      <point x="81" y="532" type="line"/>
      <point x="268" y="532" type="line"/>
      <point x="274" y="579" type="line" smooth="yes"/>
      <point x="278" y="617"/>
      <point x="288" y="635"/>
      <point x="308" y="635" type="curve" smooth="yes"/>
      <point x="320" y="635"/>
      <point x="335" y="630"/>
      <point x="352" y="619" type="curve"/>
      <point x="415" y="725" type="line"/>
      <point x="388" y="745"/>
      <point x="349" y="763"/>
      <point x="295" y="763" type="curve" smooth="yes"/>
      <point x="171" y="763"/>
      <point x="98" y="678"/>
      <point x="85" y="568" type="curve" smooth="yes"/>
    </contour>
    <contour>
      <point x="268" y="532" type="line"/>
      <point x="81" y="532" type="line"/>
      <point x="73" y="476" type="line"/>
      <point x="36" y="194" type="line" smooth="yes"/>
      <point x="17" y="56"/>
      <point x="55" y="-19"/>
      <point x="174" y="-19" type="curve" smooth="yes"/>
      <point x="215" y="-19"/>
      <point x="276" y="-6"/>
      <point x="319" y="22" type="curve"/>
      <point x="278" y="144" type="line"/>
      <point x="266" y="134"/>
      <point x="252" y="130"/>
      <point x="241" y="130" type="curve" smooth="yes"/>
      <point x="227" y="130"/>
      <point x="216" y="144"/>
      <point x="223" y="194" type="curve" smooth="yes"/>
    </contour>
    <contour>
      <point x="363" y="533" type="line"/>
      <point x="37" y="533" type="line"/>
      <point x="17" y="404" type="line"/>
      <point x="323" y="404" type="line"/>
    </contour>
  </outline>
</glyph>
<glyph name="Upsilonafrican" format="2">
  <advance width="556"/>
  <unicode hex="01B1"/>
  <anchor x="247" y="0" name="bottom"/>
  <anchor x="345" y="695" name="top"/>
  <outline>
    <contour>
      <point x="245" y="-19" type="curve" smooth="yes"/>
      <point x="434" y="-19"/>
      <point x="561" y="142"/>
      <point x="561" y="363" type="curve" smooth="yes"/>
      <point x="561" y="452"/>
      <point x="532" y="515"/>
      <point x="482" y="557" type="curve"/>
      <point x="574" y="558" type="line"/>
      <point x="597" y="695" type="line"/>
      <point x="377" y="695" type="line"/>
      <point x="357" y="569" type="line"/>
      <point x="364" y="533"/>
      <point x="368" y="493"/>
      <point x="368" y="428" type="curve" smooth="yes"/>
      <point x="368" y="269"/>
      <point x="348" y="121"/>
      <point x="265" y="121" type="curve" smooth="yes"/>
      <point x="228" y="121"/>
      <point x="214" y="158"/>
      <point x="214" y="233" type="curve" smooth="yes"/>
      <point x="214" y="340"/>
      <point x="242" y="470"/>
      <point x="290" y="566" type="curve"/>
      <point x="311" y="695" type="line"/>
      <point x="91" y="695" type="line"/>
      <point x="69" y="558" type="line"/>
      <point x="165" y="559" type="line"/>
      <point x="65" y="489"/>
      <point x="13" y="373"/>
      <point x="13" y="238" type="curve" smooth="yes"/>
      <point x="13" y="93"/>
      <point x="92" y="-19"/>
    </contour>
  </outline>
</glyph>
<glyph name="Vhook" format="2">
  <advance width="508"/>
  <unicode hex="01B2"/>
  <anchor x="215" y="0" name="bottom"/>
  <anchor x="313" y="695" name="top"/>
  <outline>
    <contour>
      <point x="411" y="715" type="curve" smooth="yes"/>
      <point x="379" y="715"/>
      <point x="349" y="709"/>
      <point x="321" y="698" type="curve"/>
      <point x="325" y="572" type="line"/>
      <point x="330" y="574"/>
      <point x="332" y="575"/>
      <point x="338" y="575" type="curve" smooth="yes"/>
      <point x="348" y="575"/>
      <point x="352" y="566"/>
      <point x="349" y="542" type="curve" smooth="yes"/>
      <point x="314" y="282" type="line" smooth="yes"/>
      <point x="299" y="165"/>
      <point x="264" y="123"/>
      <point x="233" y="123" type="curve" smooth="yes"/>
      <point x="207" y="123"/>
      <point x="199" y="154"/>
      <point x="207" y="213" type="curve" smooth="yes"/>
      <point x="274" y="695" type="line"/>
      <point x="80" y="695" type="line"/>
      <point x="12" y="217" type="line" smooth="yes"/>
      <point x="-7" y="81"/>
      <point x="67" y="-19"/>
      <point x="206" y="-19" type="curve" smooth="yes"/>
      <point x="373" y="-19"/>
      <point x="483" y="87"/>
      <point x="509" y="286" type="curve" smooth="yes"/>
      <point x="541" y="520" type="line" smooth="yes"/>
      <point x="560" y="658"/>
      <point x="515" y="715"/>
    </contour>
  </outline>
</glyph>
<glyph name="Yhook" format="2">
  <advance width="541"/>
  <unicode hex="01B3"/>
  <anchor x="239" y="0" name="bottom"/>
  <anchor x="337" y="695" name="top"/>
  <anchor x="50" y="695" name="topleft"/>
  <outline>
    <contour>
      <point x="333" y="559" type="curve" smooth="yes"/>
      <point x="288" y="408" type="line"/>
      <point x="257" y="695" type="line"/>
      <point x="49" y="695" type="line"/>
      <point x="166" y="257" type="line"/>
      <point x="130" y="0" type="line"/>
      <point x="324" y="0" type="line"/>
      <point x="360" y="257" type="line"/>
      <point x="487" y="528" type="line" smooth="yes"/>
      <point x="505" y="567"/>
      <point x="516" y="578"/>
      <point x="535" y="578" type="curve" smooth="yes"/>
      <point x="548" y="578"/>
      <point x="555" y="574"/>
      <point x="563" y="566" type="curve"/>
      <point x="626" y="678" type="line"/>
      <point x="599" y="699"/>
      <point x="569" y="715"/>
      <point x="517" y="715" type="curve" smooth="yes"/>
      <point x="421" y="715"/>
      <point x="367" y="675"/>
    </contour>
  </outline>
</glyph>
<glyph name="yhook" format="2">
  <advance width="450"/>
  <unicode hex="01B4"/>
  <anchor x="270" y="533" name="top"/>
  <outline>
    <contour>
      <point x="-24" y="-227" type="line"/>
      <point x="126" y="-221"/>
      <point x="259" y="-154"/>
      <point x="313" y="36" type="curve" smooth="yes"/>
      <point x="418" y="410" type="line" smooth="yes"/>
      <point x="427" y="443"/>
      <point x="441" y="451"/>
      <point x="454" y="451" type="curve" smooth="yes"/>
      <point x="462" y="451"/>
      <point x="468" y="449"/>
      <point x="472" y="447" type="curve"/>
      <point x="516" y="573" type="line"/>
      <point x="494" y="581"/>
      <point x="470" y="586"/>
      <point x="438" y="586" type="curve" smooth="yes"/>
      <point x="343" y="586"/>
      <point x="299" y="540"/>
      <point x="275" y="438" type="curve" smooth="yes"/>
      <point x="199" y="118" type="line"/>
      <point x="217" y="533" type="line"/>
      <point x="24" y="533" type="line"/>
      <point x="65" y="0" type="line"/>
      <point x="129" y="1" type="line"/>
      <point x="98" y="-61"/>
      <point x="58" y="-86"/>
      <point x="-24" y="-97" type="curve"/>
    </contour>
  </outline>
</glyph>
<glyph name="Zstroke" format="2">
  <advance width="545"/>
  <unicode hex="01B5"/>
  <anchor x="197" y="0" name="bottom"/>
  <anchor x="295" y="695" name="top"/>
  <outline>
    <contour>
      <point x="-28" y="0" type="line"/>
      <point x="402" y="0" type="line"/>
      <point x="445" y="155" type="line"/>
      <point x="210" y="155" type="line"/>
      <point x="484" y="548" type="line"/>
      <point x="508" y="695" type="line"/>
      <point x="90" y="695" type="line"/>
      <point x="66" y="545" type="line"/>
      <point x="279" y="545" type="line"/>
      <point x="-5" y="145" type="line"/>
    </contour>
    <component base="hyphen" xScale="1.3" yScale="0.8" xOffset="-1" yOffset="93"/>
  </outline>
</glyph>
<glyph name="zstroke" format="2">
  <advance width="387"/>
  <unicode hex="01B6"/>
  <anchor x="163" y="0" name="bottom"/>
  <anchor x="238" y="533" name="top"/>
  <outline>
    <contour>
      <point x="421" y="533" type="line"/>
      <point x="57" y="533" type="line"/>
      <point x="35" y="404" type="line"/>
      <point x="200" y="404" type="line"/>
      <point x="-13" y="124" type="line"/>
      <point x="-33" y="0" type="line"/>
      <point x="338" y="0" type="line"/>
      <point x="376" y="132" type="line"/>
      <point x="192" y="132" type="line"/>
      <point x="401" y="411" type="line"/>
    </contour>
    <component base="hyphen" xScale="1.2" yScale="0.7" xOffset="-10" yOffset="53"/>
  </outline>
</glyph>
<glyph name="Ezh" format="2">
  <advance width="473"/>
  <unicode hex="01B7"/>
  <anchor x="205" y="0" name="bottom"/>
  <outline>
    <contour>
      <point x="193" y="-19" type="curve" smooth="yes"/>
      <point x="342" y="-19"/>
      <point x="470" y="77"/>
      <point x="470" y="244" type="curve" smooth="yes"/>
      <point x="470" y="349"/>
      <point x="407" y="406"/>
      <point x="323" y="406" type="curve"/>
      <point x="302" y="406" type="line"/>
      <point x="119" y="298" type="line"/>
      <point x="209" y="298" type="line" smooth="yes"/>
      <point x="243" y="298"/>
      <point x="272" y="281"/>
      <point x="272" y="232" type="curve" smooth="yes"/>
      <point x="272" y="166"/>
      <point x="235" y="123"/>
      <point x="194" y="123" type="curve" smooth="yes"/>
      <point x="153" y="123"/>
      <point x="128" y="141"/>
      <point x="95" y="184" type="curve"/>
      <point x="-13" y="90" type="line"/>
      <point x="26" y="25"/>
      <point x="84" y="-19"/>
    </contour>
    <contour>
      <point x="135" y="402" type="line"/>
      <point x="119" y="298" type="line"/>
      <point x="268" y="338" type="line"/>
      <point x="475" y="561" type="line"/>
      <point x="496" y="695" type="line"/>
      <point x="110" y="695" type="line"/>
      <point x="88" y="556" type="line"/>
      <point x="258" y="556" type="line"/>
    </contour>
  </outline>
</glyph>
<glyph name="Ezhreversed" format="2">
  <advance width="475"/>
  <unicode hex="01B8"/>
  <anchor x="206" y="0" name="bottom"/>
  <anchor x="304" y="695" name="top"/>
  <outline>
    <contour>
      <point x="217" y="-19" type="curve" smooth="yes"/>
      <point x="322" y="-19"/>
      <point x="394" y="23"/>
      <point x="452" y="88" type="curve"/>
      <point x="373" y="186" type="line"/>
      <point x="329" y="144"/>
      <point x="292" y="123"/>
      <point x="250" y="123" type="curve" smooth="yes"/>
      <point x="223" y="123"/>
      <point x="203" y="147"/>
      <point x="203" y="190" type="curve" smooth="yes"/>
      <point x="203" y="258"/>
      <point x="237" y="298"/>
      <point x="284" y="298" type="curve" smooth="yes"/>
      <point x="374" y="298" type="line"/>
      <point x="223" y="406" type="line"/>
      <point x="209" y="406" type="line"/>
      <point x="99" y="406"/>
      <point x="1" y="317"/>
      <point x="1" y="179" type="curve" smooth="yes"/>
      <point x="1" y="60"/>
      <point x="75" y="-19"/>
    </contour>
    <contour>
      <point x="390" y="400" type="line"/>
      <point x="295" y="556" type="line"/>
      <point x="473" y="556" type="line"/>
      <point x="495" y="695" type="line"/>
      <point x="110" y="695" type="line"/>
      <point x="89" y="561" type="line"/>
      <point x="245" y="338" type="line"/>
      <point x="373" y="298" type="line"/>
    </contour>
  </outline>
</glyph>
<glyph name="ezhreversed" format="2">
  <advance width="434"/>
  <unicode hex="01B9"/>
  <anchor x="262" y="533" name="top"/>
  <outline>
    <contour>
      <point x="183" y="-226" type="curve" smooth="yes"/>
      <point x="282" y="-226"/>
      <point x="356" y="-184"/>
      <point x="409" y="-119" type="curve"/>
      <point x="333" y="-23" type="line"/>
      <point x="286" y="-65"/>
      <point x="255" y="-83"/>
      <point x="218" y="-83" type="curve" smooth="yes"/>
      <point x="188" y="-83"/>
      <point x="163" y="-59"/>
      <point x="163" y="-4" type="curve" smooth="yes"/>
      <point x="163" y="70"/>
      <point x="198" y="111"/>
      <point x="248" y="111" type="curve" smooth="yes"/>
      <point x="334" y="111" type="line"/>
      <point x="191" y="216" type="line"/>
      <point x="176" y="216" type="line"/>
      <point x="51" y="206"/>
      <point x="-29" y="115"/>
      <point x="-29" y="-22" type="curve" smooth="yes"/>
      <point x="-29" y="-140"/>
      <point x="42" y="-226"/>
    </contour>
    <contour>
      <point x="351" y="211" type="line"/>
      <point x="258" y="395" type="line"/>
      <point x="438" y="395" type="line"/>
      <point x="461" y="533" type="line"/>
      <point x="81" y="533" type="line"/>
      <point x="60" y="406" type="line"/>
      <point x="216" y="151" type="line"/>
      <point x="335" y="111" type="line"/>
    </contour>
  </outline>
</glyph>
<glyph name="ezhtail" format="2">
  <advance width="445"/>
  <unicode hex="01BA"/>
  <outline>
    <contour>
      <point x="112" y="-226" type="curve"/>
      <point x="160" y="-128" type="line"/>
      <point x="149" y="-118"/>
      <point x="144" y="-109"/>
      <point x="144" y="-95" type="curve" smooth="yes"/>
      <point x="144" y="-75"/>
      <point x="153" y="-64"/>
      <point x="234" y="-43" type="curve" smooth="yes"/>
      <point x="332" y="-17"/>
      <point x="419" y="32"/>
      <point x="419" y="155" type="curve" smooth="yes"/>
      <point x="419" y="235"/>
      <point x="377" y="284"/>
      <point x="293" y="284" type="curve" smooth="yes"/>
      <point x="300" y="284" type="line"/>
      <point x="423" y="415" type="line"/>
      <point x="442" y="533" type="line"/>
      <point x="60" y="533" type="line"/>
      <point x="39" y="404" type="line"/>
      <point x="207" y="404" type="line"/>
      <point x="100" y="276" type="line"/>
      <point x="84" y="181" type="line"/>
      <point x="174" y="181" type="line" smooth="yes"/>
      <point x="217" y="181"/>
      <point x="230" y="172"/>
      <point x="230" y="148" type="curve" smooth="yes"/>
      <point x="230" y="113"/>
      <point x="211" y="96"/>
      <point x="142" y="77" type="curve" smooth="yes"/>
      <point x="58" y="54"/>
      <point x="-18" y="11"/>
      <point x="-18" y="-82" type="curve" smooth="yes"/>
      <point x="-18" y="-151"/>
      <point x="39" y="-199"/>
    </contour>
  </outline>
</glyph>
<glyph name="tonefive" format="2">
  <advance width="410"/>
  <unicode hex="01BD"/>
  <anchor x="174" y="0" name="bottom"/>
  <anchor x="249" y="533" name="top"/>
  <outline>
    <contour>
      <point x="414" y="533" type="line"/>
      <point x="86" y="533" type="line"/>
      <point x="40" y="217" type="line"/>
      <point x="158" y="217" type="line"/>
      <point x="168" y="223"/>
      <point x="181" y="228"/>
      <point x="193" y="228" type="curve" smooth="yes"/>
      <point x="206" y="228"/>
      <point x="212" y="217"/>
      <point x="212" y="192" type="curve" smooth="yes"/>
      <point x="212" y="148"/>
      <point x="200" y="118"/>
      <point x="172" y="118" type="curve" smooth="yes"/>
      <point x="138" y="118"/>
      <point x="113" y="137"/>
      <point x="89" y="165" type="curve"/>
      <point x="-18" y="67" type="line"/>
      <point x="25" y="16"/>
      <point x="65" y="-19"/>
      <point x="160" y="-19" type="curve" smooth="yes"/>
      <point x="284" y="-19"/>
      <point x="395" y="69"/>
      <point x="395" y="207" type="curve" smooth="yes"/>
      <point x="395" y="301"/>
      <point x="342" y="349"/>
      <point x="278" y="349" type="curve" smooth="yes"/>
      <point x="253" y="349"/>
      <point x="230" y="343"/>
      <point x="215" y="332" type="curve"/>
      <point x="222" y="399" type="line"/>
      <point x="371" y="399" type="line"/>
    </contour>
  </outline>
</glyph>
<glyph name="glottalinvertedstroke" format="2">
  <advance width="503"/>
  <unicode hex="01BE"/>
  <anchor x="158" y="0" name="bottom"/>
  <anchor x="260" y="744" name="top"/>
  <outline>
    <contour>
      <point x="100" y="625" type="line"/>
      <point x="85" y="522" type="line"/>
      <point x="137" y="522" type="line"/>
      <point x="395" y="522" type="line"/>
      <point x="410" y="625" type="line"/>
    </contour>
    <component base="glottalstopinverted"/>
  </outline>
</glyph>
<glyph name="wynn" format="2">
  <advance width="480"/>
  <unicode hex="01BF"/>
  <anchor x="285" y="533" name="top"/>
  <outline>
    <contour>
      <point x="230" y="533" type="line"/>
      <point x="64" y="533" type="line"/>
      <point x="-43" y="-226" type="line"/>
      <point x="145" y="-207" type="line"/>
      <point x="228" y="384" type="line"/>
      <point x="230" y="464" type="line"/>
    </contour>
    <contour>
      <point x="221" y="463" type="curve"/>
      <point x="220" y="370" type="line"/>
      <point x="236" y="398"/>
      <point x="256" y="420"/>
      <point x="279" y="420" type="curve" smooth="yes"/>
      <point x="295" y="420"/>
      <point x="303" y="404"/>
      <point x="303" y="371" type="curve" smooth="yes"/>
      <point x="303" y="271"/>
      <point x="259" y="198"/>
      <point x="209" y="137" type="curve" smooth="yes"/>
      <point x="188" y="111" type="line"/>
      <point x="167" y="-19" type="line"/>
      <point x="223" y="12" type="line" smooth="yes"/>
      <point x="376" y="97"/>
      <point x="496" y="187"/>
      <point x="496" y="386" type="curve" smooth="yes"/>
      <point x="496" y="492"/>
      <point x="444" y="553"/>
      <point x="366" y="553" type="curve" smooth="yes"/>
      <point x="314" y="553"/>
      <point x="261" y="521"/>
    </contour>
  </outline>
</glyph>
<glyph name="clickdental" format="2">
  <advance width="198"/>
  <unicode hex="01C0"/>
  <outline>
    <contour>
      <point x="254" y="760" type="line"/>
      <point x="94" y="744" type="line"/>
      <point x="-9" y="0" type="line"/>
      <point x="146" y="0" type="line"/>
    </contour>
  </outline>
</glyph>
<glyph name="clickalveolar" format="2">
  <advance width="288"/>
  <unicode hex="01C2"/>
  <outline>
    <contour>
      <point x="22" y="392" type="line"/>
      <point x="90" y="392" type="line"/>
      <point x="311" y="392" type="line"/>
      <point x="327" y="494" type="line"/>
      <point x="39" y="494" type="line"/>
    </contour>
    <contour>
      <point x="0" y="243" type="line"/>
      <point x="68" y="243" type="line"/>
      <point x="290" y="243" type="line"/>
      <point x="306" y="345" type="line"/>
      <point x="16" y="345" type="line"/>
    </contour>
    <component base="clickdental" xOffset="45"/>
  </outline>
</glyph>
<glyph name="clickretroflex" format="2">
  <advance width="288"/>
  <unicode hex="01C3"/>
  <outline>
    <contour>
      <point x="264" y="760" type="line"/>
      <point x="105" y="744" type="line"/>
      <point x="38" y="247" type="line"/>
      <point x="194" y="247" type="line"/>
    </contour>
    <component base="period" xOffset="17"/>
  </outline>
</glyph>
<glyph name="Gstroke" format="2">
  <advance width="568"/>
  <unicode hex="01E4"/>
  <anchor x="253" y="0" name="bottom"/>
  <anchor x="351" y="695" name="top"/>
  <outline>
    <contour>
      <point x="372" y="715" type="curve" smooth="yes"/>
      <point x="110" y="715"/>
      <point x="17" y="459"/>
      <point x="17" y="246" type="curve" smooth="yes"/>
      <point x="17" y="74"/>
      <point x="87" y="-19"/>
      <point x="256" y="-19" type="curve" smooth="yes"/>
      <point x="324" y="-19"/>
      <point x="417" y="8"/>
      <point x="487" y="58" type="curve"/>
      <point x="541" y="429" type="line"/>
      <point x="294" y="429" type="line"/>
      <point x="292" y="319" type="line"/>
      <point x="346" y="319" type="line"/>
      <point x="324" y="139" type="line"/>
      <point x="309" y="128"/>
      <point x="285" y="121"/>
      <point x="266" y="121" type="curve" smooth="yes"/>
      <point x="232" y="121"/>
      <point x="215" y="149"/>
      <point x="215" y="231" type="curve" smooth="yes"/>
      <point x="215" y="353"/>
      <point x="231" y="576"/>
      <point x="364" y="576" type="curve" smooth="yes"/>
      <point x="404" y="576"/>
      <point x="428" y="559"/>
      <point x="455" y="523" type="curve"/>
      <point x="565" y="622" type="line"/>
      <point x="529" y="675"/>
      <point x="461" y="715"/>
    </contour>
    <component base="hyphen" yScale="0.7" xOffset="246" yOffset="5"/>
  </outline>
</glyph>
